<?xml version="1.0" encoding="utf-8"?>
<!-- Generator: Adobe Illustrator 15.1.0, SVG Export Plug-In . SVG Version: 6.00 Build 0)  -->
<!DOCTYPE svg PUBLIC "-//W3C//DTD SVG 1.1//EN" "http://www.w3.org/Graphics/SVG/1.1/DTD/svg11.dtd">
<svg version="1.1" id="Layer_1" xmlns="http://www.w3.org/2000/svg" xmlns:xlink="http://www.w3.org/1999/xlink" x="0px" y="0px"
	 width="44.125px" height="39.042px" viewBox="0 0 44.125 39.042" enable-background="new 0 0 44.125 39.042" xml:space="preserve">
<path fill="none" stroke="#252525" stroke-width="0.75" stroke-miterlimit="10" d="M40.646,34.933V3.154
	c0-0.852-0.691-1.542-1.543-1.542s-1.541,0.689-1.541,1.542v4.585h-2.221V7.016c0-1.039-0.843-1.88-1.88-1.88h-0.203
	c-1.038,0-1.881,0.842-1.881,1.88V7.74h-3.521V7.016c0-1.039-0.844-1.88-1.883-1.88h-0.201c-1.039,0-1.881,0.842-1.881,1.88V7.74
	h-3.191V7.016c0-1.039-0.842-1.88-1.881-1.88h-0.201c-1.039,0-1.881,0.842-1.881,1.88V7.74H6.315V3.154
	c0-0.852-0.689-1.542-1.541-1.542c-0.851,0-1.541,0.689-1.541,1.542v31.779H0.884v4.109h42.128v-4.109H40.646z M37.563,34.933H6.315
	v-6.127h16.352v1.043c0,1.039,0.842,1.882,1.881,1.882h0.202c1.037,0,1.88-0.843,1.88-1.882v-1.043h4.052v1.043
	c0,1.039,0.844,1.882,1.883,1.882h0.201c1.039,0,1.881-0.843,1.881-1.882v-1.043h2.916V34.933z M37.563,28.142h-2.916v-1.137
	c0-1.039-0.842-1.879-1.881-1.879h-0.201c-1.039,0-1.883,0.84-1.883,1.879v1.137H26.63v-1.137c0-1.039-0.843-1.879-1.88-1.879
	h-0.202c-1.039,0-1.881,0.84-1.881,1.879v1.137H6.315v-9.024h3.083v0.897c0,1.041,0.842,1.881,1.881,1.881h0.201
	c1.039,0,1.881-0.84,1.881-1.881v-0.897h4.052v0.897c0,1.041,0.841,1.881,1.88,1.881h0.202c1.038,0,1.88-0.84,1.88-1.881v-0.897
	h16.186v9.024H37.563z M37.563,18.454H21.376v-1.282c0-1.039-0.842-1.881-1.88-1.881h-0.202c-1.039,0-1.88,0.842-1.88,1.881v1.282
	h-4.052v-1.282c0-1.039-0.842-1.881-1.881-1.881H11.28c-1.04,0-1.881,0.842-1.881,1.881v1.282H6.315V8.402h10.422V9.86
	c0,1.039,0.843,1.881,1.881,1.881h0.201c1.039,0,1.881-0.842,1.881-1.881V8.402h3.192V9.86c0,1.039,0.84,1.881,1.879,1.881h0.201
	c1.039,0,1.883-0.842,1.883-1.881V8.402h3.521V9.86c0,1.039,0.842,1.881,1.881,1.881h0.203c1.037,0,1.88-0.842,1.88-1.881V8.402
	h2.222V18.454L37.563,18.454z"/>
</svg>
