<?xml version="1.0" encoding="utf-8"?>
<!-- Generator: Adobe Illustrator 15.1.0, SVG Export Plug-In . SVG Version: 6.00 Build 0)  -->
<!DOCTYPE svg PUBLIC "-//W3C//DTD SVG 1.1//EN" "http://www.w3.org/Graphics/SVG/1.1/DTD/svg11.dtd">
<svg version="1.1" id="Layer_1" xmlns="http://www.w3.org/2000/svg" xmlns:xlink="http://www.w3.org/1999/xlink" x="0px" y="0px"
	 width="44.125px" height="39.042px" viewBox="0 0 44.125 39.042" enable-background="new 0 0 44.125 39.042" xml:space="preserve">
<path fill="#826550" d="M41.67,34.606V1.599C41.67,0.715,40.954,0,40.07,0c-0.887,0-1.603,0.715-1.603,1.599V6.36h-2.303V5.612
	c0-1.078-0.874-1.953-1.958-1.953h-0.212c-1.077,0-1.952,0.871-1.952,1.953V6.36h-3.654V5.612c0-1.078-0.875-1.953-1.953-1.953
	h-0.213c-1.076,0-1.953,0.871-1.953,1.953V6.36h-3.315V5.612c0-1.078-0.875-1.953-1.956-1.953H18.79
	c-1.078,0-1.955,0.871-1.955,1.953V6.36H6.014V1.599C6.014,0.715,5.297,0,4.413,0c-0.882,0-1.6,0.714-1.6,1.599v33.006H0.375v4.266
	h43.75v-4.266h-2.453v0.001H41.67L41.67,34.606z M38.469,34.606H6.019v-6.367H23v1.087c0,1.077,0.875,1.953,1.955,1.953h0.212
	c1.078,0,1.952-0.875,1.952-1.953v-1.087h4.208v1.087c0,1.077,0.875,1.953,1.952,1.953h0.214c1.077,0,1.954-0.875,1.954-1.953
	v-1.087h3.025v6.367H38.469z M38.469,27.548h-3.027v-1.18c0-1.076-0.873-1.953-1.953-1.953h-0.213c-1.077,0-1.952,0.875-1.952,1.953
	v1.18h-4.212v-1.18c0-1.076-0.877-1.953-1.953-1.953h-0.213c-1.078,0-1.953,0.875-1.953,1.953v1.18H6.012V18.18h3.202v0.932
	c0,1.078,0.875,1.953,1.954,1.953h0.21c1.078,0,1.954-0.875,1.954-1.953V18.18h4.209v0.932c0,1.078,0.875,1.953,1.955,1.953h0.21
	c1.079,0,1.956-0.875,1.956-1.953V18.18h16.811L38.469,27.548L38.469,27.548z M38.469,17.492H21.658v-1.333
	c0-1.081-0.873-1.956-1.953-1.956h-0.211c-1.078,0-1.953,0.875-1.953,1.956v1.333h-4.208v-1.333c0-1.081-0.877-1.956-1.956-1.956
	h-0.209c-1.08,0-1.955,0.875-1.955,1.956v1.333H6.01V7.05h10.821v1.515c0,1.078,0.875,1.953,1.956,1.953h0.208
	c1.079,0,1.954-0.871,1.954-1.953V7.05h3.313v1.515c0,1.078,0.875,1.953,1.954,1.953h0.212c1.077,0,1.955-0.871,1.955-1.953V7.05
	h3.657v1.515c0,1.078,0.873,1.953,1.957,1.953h0.208c1.078,0,1.957-0.871,1.957-1.953V7.05h2.304v10.44h0.005v0.002H38.469z"/>
</svg>
