<svg xmlns="http://www.w3.org/2000/svg"  width="841.89px" height="595.281px" viewBox="0 0 841.89 595.281">
<title>advantage-3-illustration</title>
<g>
	<g>
		<path fill="#FFDE03" d="M529.332,272.551h-182.95c-6.691,0-12.774-3.882-15.592-9.951l-42.947-92.5h-50.208
			c-9.493,0-17.19-7.697-17.19-17.191c0-9.493,7.697-17.19,17.19-17.19h61.18c6.691,0,12.774,3.882,15.591,9.951l42.947,92.5
			h171.979c9.494,0,17.189,7.696,17.189,17.19C546.521,264.854,538.826,272.551,529.332,272.551z"/>
	</g>
	<circle fill="#FFDE03" cx="388.576" cy="313.737" r="30.11"/>
	<circle fill="#FFDE03" cx="483.66" cy="313.737" r="30.11"/>
</g>
<g>
	<path fill="#FFDE03" d="M168.445,463.325v-82.08h17.475v66.698h34.703v15.382H168.445L168.445,463.325z"/>
	<path fill="#FFDE03" d="M225.542,422.347c0-24.733,18.09-42.455,42.825-42.455c24.857,0,42.947,17.722,42.947,42.455
		c0,24.735-18.09,42.455-42.947,42.455C243.631,464.802,225.542,447.082,225.542,422.347z M293.347,422.347
		c0-15.382-9.845-26.948-24.98-26.948c-15.137,0-24.858,11.566-24.858,26.948c0,15.261,9.722,26.95,24.858,26.95
		C283.502,449.297,293.347,437.606,293.347,422.347z"/>
	<path fill="#FFDE03" d="M323.614,430.592v-49.347h17.721v48.73c0,11.444,6.646,19.32,19.32,19.32
		c12.675,0,19.197-7.876,19.197-19.32v-48.73h17.843v49.224c0,20.428-12.06,34.333-37.041,34.333S323.614,450.773,323.614,430.592z"
		/>
	<path fill="#FFDE03" d="M466.359,463.325l-5.045-13.905h-35.195l-5.167,13.905h-19.936l31.748-82.08h21.906l31.625,82.08H466.359z
		 M443.714,398.72l-12.797,35.317h25.596L443.714,398.72z"/>
	<path fill="#FFDE03" d="M493.917,463.325v-82.08h17.475v66.698h34.703v15.382H493.917L493.917,463.325z"/>
	<path fill="#FFDE03" d="M564.921,463.325v-66.697h-23.998v-15.383h65.469v15.383h-23.875v66.697H564.921z"/>
	<path fill="#FFDE03" d="M640.474,463.325V429.73l-31.627-48.485h19.938l20.428,32.979l20.182-32.979h19.936l-31.381,48.485v33.595
		H640.474L640.474,463.325z"/>
</g>
<g>
	<path fill="#FFDE03" d="M443.07,129.715l5.516-1.835c-0.07-2.302-0.334-4.576-0.771-6.809l-5.824-0.795
		c-0.672-2.722-1.637-5.345-2.867-7.822l4.027-4.186c-1.135-2.052-2.439-3.998-3.887-5.842l-5.523,2.003
		c-1.771-2.021-3.752-3.852-5.947-5.477l1.646-5.602c-1.961-1.307-4.018-2.467-6.205-3.454l-3.958,4.329
		c-1.224-0.481-2.498-0.91-3.797-1.27c-1.303-0.363-2.603-0.647-3.898-0.864l-1.169-5.745c-2.377-0.284-4.754-0.348-7.096-0.232
		l-1.474,5.649c-2.715,0.261-5.367,0.806-7.912,1.635l-3.713-4.565c-2.197,0.833-4.315,1.832-6.346,3.007l1.309,5.667
		c-2.34,1.481-4.51,3.241-6.483,5.228l-5.413-2.321c-1.517,1.695-2.915,3.505-4.16,5.447l3.778,4.406
		c-1.426,2.463-2.597,5.134-3.457,7.964l-5.864,0.467c-0.552,2.19-0.923,4.392-1.131,6.574l5.387,2.143
		c-0.15,3.07,0.08,6.096,0.652,9.039l-4.961,3.132c0.527,2.107,1.207,4.171,2.034,6.167l5.769-0.61c1.328,2.836,3,5.509,4.993,7.939
		l-2.933,5.057c1.417,1.58,2.948,3.05,4.594,4.414l4.833-3.233c2.514,1.892,5.295,3.486,8.319,4.718l-0.249,5.829
		c0.994,0.349,1.987,0.68,3.009,0.963c1.032,0.289,2.058,0.518,3.09,0.723l2.788-5.118c3.214,0.49,6.418,0.558,9.558,0.233
		l2.48,5.258c2.113-0.321,4.181-0.791,6.208-1.417l0.09-5.847c2.958-1.058,5.768-2.489,8.361-4.24l4.643,3.498
		c1.732-1.286,3.379-2.707,4.916-4.242l-2.648-5.238c2.008-2.226,3.76-4.701,5.217-7.416l5.719,0.942
		c0.949-1.98,1.762-4.065,2.41-6.221l-4.783-3.418C442.664,135.454,443.037,132.561,443.07,129.715z M405.517,151.837
		c-12.616,0-22.841-10.226-22.841-22.846c0-12.62,10.226-22.844,22.841-22.844c12.616,0,22.848,10.225,22.848,22.844
		C428.365,141.61,418.133,151.837,405.517,151.837z"/>
	<path fill="#FFDE03" d="M572.873,118.333l6.932,4.95c-0.945,3.123-2.119,6.14-3.496,9.005l-8.285-1.361
		c-2.104,3.928-4.645,7.517-7.549,10.739l3.832,7.584c-2.227,2.226-4.604,4.283-7.121,6.143l-6.711-5.059
		c-3.762,2.532-7.834,4.604-12.111,6.134l-0.131,8.469c-2.938,0.906-5.938,1.585-8.994,2.052l-3.588-7.613
		c-4.549,0.472-9.189,0.373-13.848-0.339l-4.037,7.415c-1.49-0.301-2.975-0.634-4.469-1.051c-1.477-0.408-2.922-0.886-4.357-1.395
		l0.354-8.438c-4.373-1.79-8.398-4.091-12.041-6.834l-6.994,4.682c-2.387-1.976-4.607-4.104-6.654-6.389l4.242-7.329
		c-2.879-3.516-5.301-7.386-7.225-11.493l-8.361,0.881c-1.195-2.89-2.176-5.875-2.938-8.93l7.184-4.531
		c-0.832-4.257-1.164-8.644-0.943-13.094l-7.807-3.099c0.303-3.163,0.842-6.353,1.641-9.518l8.492-0.673
		c1.244-4.103,2.945-7.973,5.006-11.536l-5.473-6.387c1.809-2.807,3.83-5.432,6.025-7.882l7.844,3.359
		c2.854-2.878,5.998-5.426,9.387-7.576l-1.896-8.205c2.938-1.698,6.006-3.142,9.186-4.353l5.377,6.609
		c3.688-1.193,7.529-1.987,11.459-2.366l2.143-8.178c3.387-0.17,6.824-0.074,10.27,0.333l1.691,8.32
		c1.877,0.317,3.76,0.729,5.641,1.252c1.893,0.521,3.73,1.142,5.506,1.835l5.732-6.26c3.162,1.423,6.145,3.106,8.973,4.999
		l-2.373,8.114c3.178,2.345,6.045,4.999,8.609,7.924l7.996-2.901c2.1,2.674,3.986,5.494,5.635,8.457l-5.834,6.064
		c1.783,3.586,3.18,7.39,4.152,11.329l8.436,1.152c0.631,3.235,1.014,6.523,1.121,9.862l-7.994,2.654
		C574.453,109.985,573.916,114.173,572.873,118.333 M531.599,63.265c-23.326-6.462-47.482,7.213-53.947,30.538
		c-6.469,23.339,7.203,47.5,30.529,53.964c23.342,6.47,47.5-7.207,53.971-30.546C568.617,93.894,554.943,69.736,531.599,63.265
		 M529.125,72.191c-18.396-5.097-37.451,5.689-42.549,24.088c-5.102,18.411,5.682,37.462,24.082,42.56
		c18.41,5.105,37.465-5.679,42.564-24.093C558.326,96.349,547.539,77.295,529.125,72.191"/>
	<path fill="#FFDE03" d="M395.448,69.992l3.222,2.303c-0.436,1.455-0.987,2.858-1.624,4.191l-3.857-0.634
		c-0.975,1.828-2.159,3.498-3.511,4.995l1.783,3.527c-1.033,1.037-2.143,1.993-3.312,2.861l-3.124-2.356
		c-1.749,1.179-3.642,2.144-5.631,2.855l-0.059,3.937c-1.368,0.423-2.763,0.739-4.185,0.957l-1.672-3.541
		c-2.115,0.218-4.275,0.173-6.439-0.156l-1.88,3.447c-0.693-0.139-1.38-0.295-2.077-0.49c-0.686-0.189-1.359-0.411-2.025-0.646
		l0.166-3.927c-2.039-0.832-3.914-1.903-5.604-3.179l-3.254,2.179c-1.113-0.918-2.142-1.911-3.097-2.973l1.977-3.41
		c-1.34-1.634-2.468-3.435-3.362-5.345l-3.888,0.41c-0.558-1.344-1.015-2.733-1.369-4.153l3.341-2.107
		c-0.386-1.981-0.54-4.021-0.437-6.093l-3.629-1.44c0.136-1.471,0.389-2.956,0.761-4.428l3.949-0.313
		c0.579-1.91,1.37-3.708,2.33-5.368l-2.548-2.973c0.844-1.303,1.783-2.524,2.804-3.664l3.65,1.563
		c1.327-1.337,2.788-2.523,4.364-3.524l-0.881-3.817c1.368-0.789,2.794-1.461,4.274-2.025l2.5,3.074
		c1.716-0.554,3.502-0.924,5.327-1.098l0.999-3.807c1.576-0.078,3.176-0.033,4.777,0.156l0.788,3.871
		c0.874,0.147,1.75,0.339,2.624,0.583c0.879,0.241,1.736,0.531,2.564,0.854l2.663-2.912c1.472,0.663,2.858,1.444,4.181,2.325
		l-1.108,3.774c1.479,1.091,2.812,2.326,4.002,3.687l3.722-1.35c0.977,1.244,1.854,2.555,2.623,3.934l-2.717,2.822
		c0.832,1.667,1.483,3.438,1.931,5.268l3.926,0.538c0.296,1.502,0.472,3.034,0.522,4.587l-3.716,1.234
		C396.182,66.11,395.932,68.06,395.448,69.992 M376.247,44.377c-10.851-3.006-22.086,3.355-25.093,14.207
		c-3.008,10.857,3.351,22.096,14.202,25.103c10.857,3.008,22.098-3.353,25.101-14.21C393.468,58.624,387.104,47.387,376.247,44.377
		 M375.096,48.529c-8.553-2.37-17.422,2.648-19.79,11.205c-2.374,8.563,2.64,17.426,11.198,19.799
		c8.567,2.373,17.429-2.642,19.804-11.208C388.682,59.768,383.663,50.903,375.096,48.529"/>
	<path fill="#FFDE03" d="M505.167,195.287l3.229,2.302c-0.439,1.455-0.986,2.858-1.627,4.192l-3.855-0.635
		c-0.977,1.828-2.156,3.498-3.512,4.995l1.781,3.527c-1.033,1.036-2.139,1.993-3.311,2.86l-3.123-2.356
		c-1.75,1.179-3.646,2.143-5.633,2.855l-0.063,3.938c-1.363,0.423-2.76,0.738-4.184,0.957l-1.672-3.543
		c-2.113,0.219-4.271,0.175-6.436-0.156l-1.885,3.449c-0.688-0.14-1.381-0.296-2.074-0.491c-0.688-0.188-1.361-0.41-2.025-0.646
		l0.162-3.925c-2.035-0.833-3.906-1.905-5.604-3.18l-3.254,2.178c-1.107-0.917-2.141-1.909-3.096-2.973l1.977-3.409
		c-1.34-1.637-2.469-3.438-3.359-5.347l-3.889,0.41c-0.557-1.342-1.018-2.732-1.371-4.152l3.344-2.107
		c-0.389-1.982-0.541-4.023-0.439-6.094l-3.631-1.441c0.139-1.47,0.391-2.955,0.764-4.427l3.949-0.314
		c0.582-1.91,1.369-3.707,2.332-5.367l-2.551-2.972c0.842-1.305,1.787-2.523,2.805-3.664l3.648,1.562
		c1.326-1.336,2.789-2.523,4.367-3.524l-0.883-3.817c1.367-0.791,2.797-1.461,4.271-2.024l2.504,3.076
		c1.711-0.555,3.502-0.927,5.328-1.101l0.996-3.805c1.574-0.077,3.176-0.036,4.777,0.154l0.787,3.873
		c0.873,0.146,1.748,0.336,2.625,0.582c0.877,0.242,1.734,0.531,2.561,0.852l2.664-2.91c1.477,0.662,2.861,1.443,4.178,2.326
		l-1.104,3.772c1.477,1.093,2.813,2.327,4.004,3.688l3.721-1.349c0.979,1.244,1.855,2.553,2.621,3.931l-2.717,2.823
		c0.832,1.667,1.48,3.439,1.934,5.27l3.922,0.537c0.297,1.502,0.473,3.034,0.523,4.587l-3.717,1.232
		C505.906,191.403,505.654,193.353,505.167,195.287 M485.966,169.669c-10.848-3.005-22.084,3.357-25.09,14.208
		c-3.012,10.858,3.346,22.095,14.201,25.103c10.857,3.009,22.094-3.352,25.104-14.21
		C503.191,183.919,496.828,172.68,485.966,169.669 M484.822,173.823c-8.561-2.37-17.422,2.647-19.793,11.205
		c-2.375,8.563,2.645,17.424,11.203,19.798c8.563,2.374,17.424-2.642,19.795-11.208
		C498.402,185.061,493.382,176.196,484.822,173.823"/>
	<path fill="#FFDE03" d="M563.96,203.746l3.35-1.113c-0.041-1.398-0.199-2.78-0.469-4.138l-3.539-0.482
		c-0.408-1.655-0.992-3.246-1.744-4.749l2.451-2.545c-0.691-1.246-1.48-2.43-2.365-3.545l-3.35,1.217
		c-1.076-1.231-2.279-2.337-3.611-3.326l0.994-3.401c-1.191-0.798-2.441-1.503-3.766-2.099l-2.404,2.626
		c-0.744-0.291-1.518-0.554-2.305-0.77c-0.791-0.219-1.582-0.394-2.369-0.526l-0.711-3.492c-1.441-0.168-2.891-0.206-4.309-0.138
		l-0.896,3.433c-1.65,0.154-3.26,0.484-4.805,0.989l-2.26-2.769c-1.332,0.504-2.617,1.114-3.852,1.827l0.795,3.441
		c-1.422,0.9-2.738,1.966-3.939,3.174l-3.287-1.408c-0.918,1.03-1.768,2.128-2.525,3.309l2.299,2.678
		c-0.869,1.493-1.582,3.116-2.104,4.832l-3.563,0.286c-0.336,1.329-0.564,2.668-0.688,3.994l3.271,1.301
		c-0.088,1.864,0.049,3.7,0.398,5.492l-3.014,1.898c0.32,1.278,0.73,2.535,1.23,3.749l3.51-0.371
		c0.805,1.723,1.816,3.347,3.029,4.821l-1.783,3.07c0.859,0.963,1.793,1.851,2.791,2.681l2.936-1.962
		c1.527,1.147,3.219,2.113,5.053,2.865l-0.148,3.543c0.604,0.209,1.203,0.406,1.826,0.582c0.629,0.177,1.25,0.313,1.877,0.44
		l1.693-3.103c1.953,0.292,3.896,0.332,5.805,0.138l1.508,3.193c1.285-0.197,2.543-0.484,3.771-0.865l0.049-3.554
		c1.803-0.64,3.51-1.504,5.086-2.567l2.814,2.116c1.055-0.776,2.055-1.642,2.988-2.57l-1.609-3.186
		c1.221-1.349,2.283-2.852,3.166-4.501l3.479,0.576c0.574-1.208,1.07-2.477,1.465-3.781l-2.908-2.079
		C563.712,207.232,563.939,205.479,563.96,203.746z M541.152,217.187c-7.662,0-13.875-6.215-13.875-13.878
		c0-7.666,6.213-13.874,13.875-13.874c7.664,0,13.875,6.208,13.875,13.874C555.027,210.972,548.816,217.187,541.152,217.187z"/>
	<path fill="#FFDE03" d="M435.291,208.425l2.668,1.904c-0.363,1.203-0.816,2.362-1.344,3.465l-3.189-0.524
		c-0.807,1.512-1.785,2.894-2.902,4.132l1.473,2.919c-0.855,0.855-1.771,1.646-2.738,2.364l-2.584-1.947
		c-1.447,0.974-3.014,1.771-4.66,2.361l-0.051,3.258c-1.129,0.348-2.282,0.61-3.461,0.789l-1.379-2.929
		c-1.751,0.181-3.536,0.143-5.328-0.131l-1.554,2.855c-0.574-0.118-1.145-0.245-1.719-0.405c-0.57-0.158-1.125-0.341-1.678-0.537
		l0.138-3.248c-1.682-0.688-3.233-1.575-4.634-2.629l-2.691,1.8c-0.919-0.758-1.774-1.578-2.563-2.458l1.635-2.819
		c-1.109-1.354-2.041-2.842-2.781-4.423l-3.216,0.34c-0.461-1.113-0.839-2.263-1.132-3.437l2.765-1.744
		c-0.321-1.639-0.448-3.326-0.364-5.038l-3.003-1.193c0.115-1.217,0.323-2.444,0.63-3.662l3.267-0.261
		c0.479-1.578,1.132-3.067,1.928-4.438l-2.106-2.458c0.696-1.081,1.475-2.09,2.318-3.033l3.017,1.293
		c1.1-1.106,2.308-2.087,3.612-2.915l-0.729-3.157c1.13-0.653,2.312-1.208,3.533-1.675l2.071,2.543
		c1.418-0.459,2.896-0.765,4.408-0.91l0.824-3.146c1.304-0.065,2.627-0.03,3.952,0.128l0.651,3.201
		c0.722,0.123,1.447,0.28,2.172,0.482c0.727,0.2,1.433,0.439,2.117,0.706l2.205-2.409c1.217,0.548,2.365,1.196,3.455,1.924
		l-0.914,3.123c1.221,0.902,2.326,1.923,3.311,3.048l3.08-1.117c0.807,1.029,1.535,2.113,2.164,3.256l-2.242,2.333
		c0.688,1.379,1.225,2.844,1.598,4.358l3.246,0.443c0.244,1.245,0.391,2.511,0.432,3.795l-3.076,1.021
		C435.9,205.212,435.693,206.824,435.291,208.425 M416.749,196.842c-3.672-1.018-7.475,1.135-8.493,4.808
		c-1.018,3.675,1.134,7.479,4.807,8.497c3.675,1.018,7.478-1.135,8.497-4.81C422.578,201.664,420.425,197.861,416.749,196.842"/>
	<path fill="#FFDE03" d="M465.902,49.346l3.668,2.619c-0.498,1.654-1.123,3.248-1.85,4.765l-4.383-0.72
		c-1.111,2.079-2.457,3.979-3.994,5.682l2.027,4.014c-1.178,1.176-2.439,2.263-3.77,3.25l-3.551-2.678
		c-1.992,1.339-4.145,2.436-6.41,3.246l-0.068,4.48c-1.553,0.478-3.139,0.839-4.758,1.084l-1.896-4.027
		c-2.408,0.249-4.863,0.196-7.326-0.181l-2.137,3.926c-0.789-0.163-1.574-0.337-2.363-0.557c-0.783-0.217-1.549-0.469-2.309-0.738
		l0.189-4.465c-2.313-0.946-4.445-2.165-6.372-3.615l-3.7,2.476c-1.264-1.043-2.439-2.17-3.524-3.379l2.248-3.876
		c-1.525-1.861-2.807-3.908-3.824-6.082l-4.422,0.468c-0.634-1.53-1.153-3.111-1.556-4.726l3.802-2.398
		c-0.441-2.253-0.617-4.573-0.5-6.927l-4.129-1.64c0.158-1.673,0.444-3.361,0.867-5.036l4.492-0.358
		c0.66-2.17,1.557-4.218,2.651-6.103l-2.896-3.379c0.957-1.486,2.028-2.875,3.188-4.171l4.148,1.778
		c1.512-1.521,3.173-2.87,4.967-4.008l-1.001-4.341c1.554-0.898,3.177-1.662,4.857-2.304l2.85,3.497
		c1.949-0.632,3.98-1.051,6.061-1.25l1.133-4.327c1.793-0.09,3.611-0.042,5.434,0.176l0.896,4.401
		c0.992,0.169,1.99,0.385,2.986,0.663c0.998,0.275,1.971,0.604,2.91,0.97l3.033-3.312c1.672,0.753,3.252,1.644,4.75,2.646
		l-1.258,4.293c1.68,1.241,3.197,2.645,4.553,4.191l4.232-1.535c1.109,1.415,2.111,2.905,2.979,4.477l-3.082,3.208
		c0.941,1.896,1.682,3.91,2.193,5.993l4.465,0.609c0.336,1.712,0.535,3.453,0.594,5.219l-4.23,1.405
		C466.738,44.929,466.455,47.146,465.902,49.346 M440.406,33.419c-5.049-1.399-10.277,1.561-11.678,6.611
		c-1.398,5.053,1.561,10.283,6.609,11.683c5.055,1.4,10.283-1.56,11.684-6.613C448.421,40.05,445.462,34.821,440.406,33.419"/>
</g>
<g>
	<path fill="#FFDE03" d="M157.636,362.783c-5.038-20.566-7.727-42.057-7.727-64.178c0.001-112.938,69.612-209.598,168.26-249.472
		l-18.724-24.743C193.741,70.508,119.839,175.911,119.839,298.605c0,23.39,2.705,46.146,7.788,67.988L157.636,362.783z"/>
	<path fill="#FFDE03" d="M683.895,344.881l28.269,12.512c3.792-19.012,5.816-38.661,5.816-58.786
		c0-93.545-42.961-177.045-110.216-231.885c-6.79,6.79-13.58,13.58-20.369,20.369c-0.365,0.365-0.743,0.671-1.128,0.934
		c61.929,49.282,101.643,125.287,101.643,210.582C687.91,314.391,686.51,329.845,683.895,344.881z"/>
	<path fill="#FFDE03" d="M610.128,487.715c-48.752,49.308-116.396,79.891-191.218,79.891c-79.053,0-150.113-34.127-199.329-88.421
		l-26.862,15.042c54.838,63.353,135.825,103.448,226.191,103.448c84.577,0,160.924-35.129,215.315-91.57L610.128,487.715z"/>
</g>
</svg>
