<svg xmlns="http://www.w3.org/2000/svg"  width="841.89px" height="595.281px" viewBox="0 0 841.89 595.281">
<title>advantage-3-illustration</title>
<g>
	<g>
		<g>
			<path fill="#FFDE03" d="M401.601,557.763h-50.547c-5.693,0-10.732-2.037-14.573-5.891c-3.822-3.799-5.861-8.838-5.861-14.538
				v-47.382h-57.061c-5.692,0-10.729-2.031-14.566-5.873c-3.835-3.83-5.868-8.868-5.868-14.558v-38.746
				c0-5.691,2.036-10.728,5.888-14.564c3.824-3.83,8.862-5.865,14.546-5.865h57.061v-14.229h-57.061
				c-5.692,0-10.729-2.031-14.566-5.874c-3.835-3.83-5.868-8.867-5.868-14.558v-45.097c0-5.371,1.96-10.279,5.668-14.197
				c3.873-4.079,8.975-6.229,14.766-6.229h57.056V130.505c0-5.674,2.027-10.705,5.861-14.551c3.877-3.856,8.906-5.877,14.573-5.877
				h163.148c43.031,0,78.791,13.436,106.287,39.935c27.594,26.625,41.582,61.306,41.582,103.085
				c0,41.807-13.99,76.489-41.582,103.083c-27.473,26.499-63.234,39.938-106.287,39.938h-92.172v14.229h142.121
				c5.689,0,10.729,2.036,14.572,5.891c3.822,3.799,5.859,8.839,5.859,14.54v38.746c0,5.688-2.031,10.727-5.875,14.564
				c-3.834,3.836-8.869,5.864-14.559,5.864H422.029v47.382c0,5.807-2.159,10.913-6.244,14.769
				C411.894,555.797,406.979,557.763,401.601,557.763z M352.108,536.274h48.431v-67.812h162.55v-36.627H400.536v-57.208h113.661
				c37.82,0,67.711-11.095,91.373-33.917c23.557-22.708,35.006-51.365,35.006-87.615c0-36.226-11.451-64.885-35.008-87.617
				c-23.68-22.819-53.568-33.914-91.371-33.914H352.104v200.086h-77.49v42.976h77.495v57.208h-77.495v36.628h77.495L352.108,536.274
				L352.108,536.274z M508.142,331.656H400.536V174.558h107.606c24.143,0,44.051,7.313,59.176,21.733
				c15.266,14.564,23.004,33.677,23.004,56.811c0,23.15-7.74,42.265-23.008,56.814C552.201,324.339,532.289,331.656,508.142,331.656
				z M422.025,310.167h86.117c18.693,0,33.199-5.17,44.342-15.805c11.004-10.484,16.348-23.979,16.348-41.261
				c0-17.27-5.346-30.766-16.346-41.26c-11.146-10.627-25.65-15.794-44.344-15.794h-86.117V310.167L422.025,310.167z"/>
		</g>
	</g>
</g>
<g>
	<path fill="#FFDE03" d="M286.015,566.57l21.551-21.552c-9.01-4.093-17.89-8.702-26.591-13.881
		c-128.061-76.202-169.88-242.161-93.406-370.681c76.475-128.52,242.284-170.932,370.345-94.731
		c3.947,2.348,7.793,4.796,11.574,7.311l35.404-9.788c-10.139-7.99-20.902-15.418-32.295-22.197
		C430.957-43.23,247.567,3.68,162.983,145.827c-84.583,142.149-38.33,325.705,103.31,409.985
		C272.783,559.675,279.363,563.255,286.015,566.57z"/>
	<path fill="#FFDE03" d="M688.794,317.923c-3.021,40.575-15.238,81.111-37.475,118.483
		c-44.043,74.015-117.715,119.462-196.74,130.149l16.516,26.426c82.516-14.81,158.482-64.091,204.811-141.946
		c27.211-45.73,40.855-95.744,42.158-145.361L688.794,317.923z"/>
</g>
</svg>
