<svg xmlns="http://www.w3.org/2000/svg" width="841.89" height="595.281"><g fill="#FFDE03"><path d="M423.865 46.466l19.238 38.983 43.022 6.252-31.131 30.343 7.347 42.846-38.476-20.229-38.479 20.229 7.348-42.846-31.129-30.343 43.02-6.252z"/><path d="M619.423 386.912c33.326 0 60.439-27.114 60.439-60.441v-28.869h-38.305c-11.76 0-23.133 3.435-32.877 9.784a188.315 188.315 0 00-4.115-17.74l11.553-6.649c13.98-8.072 23.98-21.105 28.16-36.699 4.178-15.596 2.035-31.883-6.037-45.865l-14.436-25-33.172 19.152a60.021 60.021 0 00-23.57 24.916 188.502 188.502 0 00-13.287-14.079l5.559-9.63c8.074-13.981 10.217-30.27 6.039-45.863-4.178-15.596-14.18-28.629-28.162-36.7l-25-14.435-19.15 33.172c-16.664 28.861-6.738 65.9 22.121 82.563l10.867 6.274c35.396 30.028 55.666 73.806 55.666 120.316 0 32.199-9.715 62.556-26.666 87.892-.154.215-.32.421-.479.639l.037.024c-15.201 22.476-36.123 40.94-61.027 53.159-.24.104-.482.199-.721.307l.018.035a156.22 156.22 0 01-10.625 4.676v-52.844c31.359-19.56 52.271-54.364 52.271-93.966 0-61.023-49.646-110.67-110.668-110.67-61.024 0-110.67 49.646-110.67 110.67 0 39.607 20.92 74.417 52.287 93.974v52.831a156.677 156.677 0 01-10.621-4.676l.012-.029c-.199-.091-.403-.169-.604-.258-24.951-12.221-45.913-30.707-61.135-53.213l.028-.021c-.125-.175-.259-.341-.385-.515-17.005-25.36-26.752-55.766-26.752-88.017 0-46.511 20.271-90.287 55.667-120.316l10.865-6.273c13.981-8.071 23.982-21.105 28.161-36.699 4.179-15.596 2.034-31.883-6.038-45.864L335.52 98.794l-25.001 14.435c-28.862 16.664-38.786 53.702-22.123 82.564l5.56 9.629a188.007 188.007 0 00-13.291 14.084 60.039 60.039 0 00-23.573-24.92l-33.171-19.154-14.435 25c-8.072 13.982-10.217 30.271-6.038 45.865 4.179 15.594 14.18 28.627 28.18 36.71l11.541 6.642a188.012 188.012 0 00-4.117 17.74 60.131 60.131 0 00-32.883-9.787h-38.305v28.869c0 33.326 27.113 60.44 60.461 60.44l13.332-.02a187.281 187.281 0 005.286 17.449c-11.624-.641-23.189 2.063-33.368 7.939l-33.172 19.151 14.435 25.003c11.182 19.366 31.532 30.204 52.441 30.204a60.107 60.107 0 0030.142-8.094l11.49-6.655a188.752 188.752 0 0013.296 12.473 60.032 60.032 0 00-24.825 23.522L258.23 541.06l25.002 14.435c9.313 5.378 19.648 8.124 30.122 8.124 5.25 0 10.534-.69 15.741-2.085 15.39-4.124 28.275-13.926 36.381-27.637v46.592l58.393-20.188 58.387 20.188v-46.592c8.094 13.702 20.986 23.512 36.381 27.637a60.747 60.747 0 0015.742 2.085c10.473 0 20.813-2.747 30.123-8.124l25.002-14.435-19.152-33.174a60.037 60.037 0 00-24.814-23.52 186.955 186.955 0 0013.297-12.474l11.5 6.663a60.07 60.07 0 0030.117 8.085c20.904 0 41.264-10.841 52.445-30.207l14.436-25.004-33.172-19.148c-10.176-5.876-21.74-8.579-33.359-7.94a186.674 186.674 0 005.285-17.449l13.336.02zm-86.064-206.12l-4.146 7.175c-6.535-4.096-11.207-10.413-13.215-17.901-2.104-7.854-1.023-16.06 3.043-23.102l4.143-7.175c6.535 4.096 11.207 10.413 13.217 17.902 2.1 7.855 1.02 16.059-3.042 23.101zm-208.804-41.003l4.143 7.175c4.065 7.042 5.146 15.245 3.041 23.102-2.008 7.488-6.68 13.806-13.216 17.901l-4.144-7.175c-8.204-14.21-3.612-32.355 10.176-41.003zM641.56 327.601h8.285c-.598 16.266-14.014 29.313-30.4 29.313l-8.389-.013c.045-.554.08-1.107.123-1.661h.002c1.51-15.5 14.854-27.639 30.379-27.639zm-35.926-107.038l7.176-4.144c3.611 6.814 4.5 14.622 2.494 22.111-2.104 7.854-7.143 14.419-14.166 18.475l-7.234 4.164c-.236-.504-.475-1.008-.713-1.51l.012-.004c-6.448-14.175-.985-31.347 12.431-39.092zM343.188 341.041c0-44.48 36.188-80.67 80.671-80.67 44.48 0 80.67 36.188 80.67 80.67s-36.189 80.672-80.67 80.672c-44.483-.001-80.671-36.19-80.671-80.672zm-96.578-84.025c-7.042-4.065-12.079-10.63-14.185-18.483-2.007-7.49-1.118-15.298 2.494-22.111l7.176 4.143c13.416 7.746 18.877 24.917 12.434 39.092l.018.008c-.241.502-.479 1.007-.714 1.511l-7.223-4.16zm-18.304 99.897c-16.408 0-29.826-13.048-30.422-29.313h8.285c15.526 0 28.87 12.142 30.378 27.64l.009-.002c.041.555.075 1.11.123 1.664l-8.373.011zm34.097 95.665c-14.21 8.201-32.354 3.613-41.003-10.175l7.176-4.144c13.178-7.605 30.394-4.021 39.627 8.104.462.685.932 1.363 1.403 2.042l-7.203 4.173zm58.928 79.976c-7.489 2.009-15.296 1.119-22.112-2.493l4.143-7.175c7.6-13.162 24.27-18.66 38.284-12.778.763.368 1.526.737 2.294 1.099l-4.124 7.166c-4.066 7.04-10.63 12.077-18.485 14.181zm102.538-3.993l-28.396 9.814v-90.36a110.487 110.487 0 0028.386 3.695c9.813 0 19.33-1.291 28.395-3.699v90.363l-28.385-9.813zm120.502-5.675l4.143 7.175c-6.814 3.612-14.621 4.505-22.113 2.493-7.854-2.104-14.418-7.142-18.475-14.165l-4.131-7.179a170.72 170.72 0 002.398-1.15c13.992-5.804 30.598-.302 38.178 12.826zm74.785-84.625l7.174 4.144c-8.648 13.787-26.793 18.379-40.98 10.187l-7.215-4.181c.502-.721 1-1.443 1.49-2.172 9.253-12.025 26.4-15.559 39.531-7.978z"/><path d="M458.865 360.878h-20v-71.672h-45.001v29.998h15.001v41.674h-20v29.999h70v-29.999z"/></g><path fill="#FFDE03" d="M667.037 125.076C609.535 48.295 519.242 3.068 423.316 3c-168.314.119-304.662 136.66-304.543 304.972.064 91.335 41.071 177.563 111.271 235.241l17.417-19c-119.01-96.682-137.691-271.461-41.519-391.124C302.428 13.038 477.966-6.067 598.017 90.418c120.053 96.485 139.156 272.022 42.672 392.075a278.825 278.825 0 01-42.381 42.429l16.107 20.035c127.204-102.467 151.317-288.094 52.622-419.881z"/></svg>