<svg xmlns="http://www.w3.org/2000/svg" width="841.89" height="595.281"><g fill="#FFDE03"><path d="M643.099 432.491c-2.27-1.856-4.682-3.776-7.182-5.768-24.408-19.438-57.838-46.06-50.215-87.195 6.684-36.071 14.762-90.791 7.764-149.28-4.023-33.612-19.82-62.602-45.678-83.837-23.275-19.114-53.484-30.758-85.063-32.788l-.344-.022c-13.988-.899-22.43-1.441-31.141-1.441-5.92 0-11.862.246-19.871.824-46.694 3.367-88.336 20.332-123.767 50.424-30.622 26.007-56.321 62.11-74.318 104.407l-1.934 4.546 4.949.25c22.203 1.122 40.596 9.079 53.195 23.012 13.053 14.435 19.594 34.54 19.015 58.314-5.367-.527-10.188-1.065-14.878-1.591-12.008-1.341-22.379-2.499-34.423-2.499-4.939 0-9.931.19-15.258.58l-5.118.374 2.26 4.59c9.784 19.875 23.446 36.111 36.658 51.813 5.53 6.571 11.233 13.352 16.564 20.302-7.9 18.826-7.102 40.69 2.149 55.008 8.077 12.499 21.54 18.068 38.499 15.716 11.239 21.456 31.531 22.402 52.971 23.4 5.892.274 11.985.559 18.187 1.244 6.993.773 14.143 2.771 21.712 4.889 10.269 2.87 20.886 5.839 31.851 5.839 3.549 0 7.01-.319 10.303-.953 11.223 4.188 21.779 9.37 32 14.39 13.299 6.53 27.051 13.283 42.609 18.06l.498.153h.521c8.879 0 18.512-6.573 26.43-18.035 7.559-10.944 13.328-26.838 9.172-37.67-1.926-5.019-6.242-8.188-12.709-12.453 9.373-3.891 18.309-8.25 26.998-12.49 9.434-4.603 19.174-9.354 29.324-13.423 5.131 2.454 15.795 11.795 21.744 17.534l2.176 2.098 2.379-1.863c.371-.292 9.143-7.189 12.543-11.715l1.988-2.646-2.56-2.098zm-353.873-81.31c-1.972 5.333-5.099 9.689-7.213 12.251l-27.482-26.822c.711-2.3 1.994-6.229 3.407-9.535 11.708.734 25.087 3.016 33.287 4.412.079.014.156.025.232.039.021.637.059 1.299.098 1.992.235 4.158.558 9.853-2.329 17.663zm-14.118-120.764c-2.286-1.24-4.479-2.609-6.763-4.034-6.856-4.278-13.918-8.685-24.233-9.961 4.586-14.94 13.394-25.586 22.676-36.806 1.517-1.834 3.071-3.711 4.606-5.613 5.077 3.68 7.591 9.757 8.826 14.504 3.399 13.068 1.133 30.768-5.112 41.91zm152.909 235.628c1.939-1.495 3.768-2.907 6.781-4.909 4.129-2.742 8.184-5.755 12.107-8.668 15.242-11.321 31.004-23.029 56.23-23.029 3.139 0 6.402.183 9.754.544-17.752 18.874-45.918 39.168-84.945 39.168-1.314 0-2.643-.023-3.977-.07a127.643 127.643 0 004.05-3.036zm-65.665-25.101c16.996-10.079 36.258-21.503 49.218-29.834.383-.247.987-.299 1.427-.299 4.692 0 13.36 5.035 21.006 9.478 3.922 2.277 7.711 4.478 11.146 6.144-18.904 13.821-49.478 34.686-76.792 34.686-9.814-.001-18.566-2.762-26.083-8.217 5.96-3.585 12.858-7.676 20.078-11.958zm190.888-74.237c-9.441 28.834-27.609 41.136-60.752 41.136-5.709 0-11.98-.384-18.645-1.14-20.68-2.348-43.254-12.591-61.934-28.102-16.685-13.854-39.682-41.041-40.025-47.175 1.699-1.558 3.391-3.089 5.087-4.624 8.905-8.055 18.114-16.385 28.942-29.33 10.763-12.868 25.489-38.562 26.11-39.649l1.773-3.103-18.427-9.665-1.636 2.985c-.146.268-14.807 26.9-28.486 41.668-12.69 13.7-28.077 22.614-41.652 30.479a601.797 601.797 0 00-7.177 4.198c-.508.305-1.029.622-1.563.946-4.222 2.572-9.007 5.489-13.945 5.488-1.107 0-2.173-.145-3.228-.437-3.581-9.656-6.129-20.668-8.599-31.334-4.046-17.476-8.225-35.521-17.135-49.021 13.625-29.281 16.719-70.373-3.454-92.54 24.443-36.832 81.763-61.412 143.833-61.412 66.545 0 115.355 27.838 130.568 74.468 17.538 53.752 5.423 150.108-9.655 196.164zm-201.257-26.535c7.824 18.473 19.873 32.78 31.551 46.646 2.513 2.983 5.091 6.046 7.611 9.131a849.573 849.573 0 00-6.827 4.892c-19.939 14.38-44.752 32.274-69.757 32.274h-.006c-6.9-.001-13.534-1.419-19.743-4.218-10.442-45.336 26.382-69.466 57.171-88.725zm195.145 90.449c6.705-11.445 13.08-22.328 21.045-41.948 4.135 9.197 9.178 16.981 15.932 24.657-12.439 8.039-25.414 14.346-38.713 20.259.584-1.002 1.164-1.989 1.736-2.968zm-12.9 48.338c0 7.701-6.127 17.316-11.307 17.736-.197.017-.4.022-.605.022-5.707-.001-15.926-5.665-28.314-15.646 5.793-5.523 15.555-12.585 19.16-15.145 10.275 3.431 21.066 9.373 21.066 13.033z"/><path d="M517.339 373.33c.064-1.04.152-2.466.152-5.552v-3.453h-3.465c-35.959 0-66.637-14.816-80.061-38.666l-2.09-3.712-3.215 2.802c-1.648 1.437-2.285 1.884-3.166 2.502-1.104.772-2.473 1.733-5.97 4.684l-2.027 1.71 1.131 2.396c13.493 28.555 47.776 47.006 87.344 47.006 2.742 0 5.527-.092 8.277-.271l3.479-.228-.248-3.466c-.266-3.727-.223-4.403-.141-5.752zM401.48 132.335c-11.233 0-20.372 9.105-20.372 20.298 0 11.193 9.139 20.299 20.372 20.299 11.232 0 20.371-9.106 20.371-20.299s-9.139-20.298-20.371-20.298z"/></g><path fill="#FFDE03" d="M610.914 487.65c-49.002 48.822-116.695 79.021-191.469 79.021-149.552 0-270.788-120.803-270.788-269.82s121.236-269.82 270.788-269.82c149.553 0 270.787 120.803 270.787 269.82 0 42.192-9.727 82.118-27.055 117.685l29.654 4.347c16.775-37.255 26.113-78.555 26.113-122.031 0-164.819-134.092-298.43-299.501-298.43-165.41 0-299.5 133.611-299.5 298.43 0 164.818 134.09 298.43 299.5 298.43 78.604 0 150.12-30.188 203.55-79.542l-12.079-28.09z"/></svg>