<svg xmlns="http://www.w3.org/2000/svg" width="841.89" height="595.281"><path fill="#FFDE03" d="M401.601 557.763h-50.547c-5.693 0-10.732-2.037-14.573-5.891-3.822-3.799-5.861-8.838-5.861-14.538v-47.382h-57.061c-5.692 0-10.729-2.031-14.566-5.873-3.835-3.83-5.868-8.868-5.868-14.558v-38.746c0-5.691 2.036-10.728 5.888-14.564 3.824-3.83 8.862-5.865 14.546-5.865h57.061v-14.229h-57.061c-5.692 0-10.729-2.031-14.566-5.874-3.835-3.83-5.868-8.867-5.868-14.558v-45.097c0-5.371 1.96-10.279 5.668-14.197 3.873-4.079 8.975-6.229 14.766-6.229h57.056V130.505c0-5.674 2.027-10.705 5.861-14.551 3.877-3.856 8.906-5.877 14.573-5.877h163.148c43.031 0 78.791 13.436 106.287 39.935 27.594 26.625 41.582 61.306 41.582 103.085 0 41.807-13.99 76.489-41.582 103.083-27.473 26.499-63.234 39.938-106.287 39.938h-92.172v14.229h142.121c5.689 0 10.729 2.036 14.572 5.891 3.822 3.799 5.859 8.839 5.859 14.54v38.746c0 5.688-2.031 10.727-5.875 14.564-3.834 3.836-8.869 5.864-14.559 5.864H422.029v47.382c0 5.807-2.159 10.913-6.244 14.769-3.891 3.694-8.806 5.66-14.184 5.66zm-49.493-21.489h48.431v-67.812h162.55v-36.627H400.536v-57.208h113.661c37.82 0 67.711-11.095 91.373-33.917 23.557-22.708 35.006-51.365 35.006-87.615 0-36.226-11.451-64.885-35.008-87.617-23.68-22.819-53.568-33.914-91.371-33.914H352.104V331.65h-77.49v42.976h77.495v57.208h-77.495v36.628h77.495l-.001 67.812zm156.034-204.618H400.536V174.558h107.606c24.143 0 44.051 7.313 59.176 21.733 15.266 14.564 23.004 33.677 23.004 56.811 0 23.15-7.74 42.265-23.008 56.814-15.113 14.423-35.025 21.74-59.172 21.74zm-86.117-21.489h86.117c18.693 0 33.199-5.17 44.342-15.805 11.004-10.484 16.348-23.979 16.348-41.261 0-17.27-5.346-30.766-16.346-41.26-11.146-10.627-25.65-15.794-44.344-15.794h-86.117v114.12z"/><g fill="#FFDE03"><path d="M286.015 566.57l21.551-21.552a271.445 271.445 0 01-26.591-13.881c-128.061-76.202-169.88-242.161-93.406-370.681 76.475-128.52 242.284-170.932 370.345-94.731a271.833 271.833 0 0111.574 7.311l35.404-9.788a299.957 299.957 0 00-32.295-22.197C430.957-43.23 247.567 3.68 162.983 145.827c-84.583 142.149-38.33 325.705 103.31 409.985a301.233 301.233 0 0019.722 10.758zM688.794 317.923c-3.021 40.575-15.238 81.111-37.475 118.483-44.043 74.015-117.715 119.462-196.74 130.149l16.516 26.426c82.516-14.81 158.482-64.091 204.811-141.946 27.211-45.73 40.855-95.744 42.158-145.361l-29.27 12.249z"/></g></svg>