<?xml version="1.0" encoding="utf-8"?>
<!-- Generator: Adobe Illustrator 15.1.0, SVG Export Plug-In . SVG Version: 6.00 Build 0)  -->
<svg xmlns="http://www.w3.org/2000/svg"  width="841.89px" height="595.281px" viewBox="0 0 841.89 595.281">
<title>advantage-3-illustration</title>
<g>
	<g>
		<path fill="#FFDE03" d="M529.332,272.551h-182.95c-6.691,0-12.774-3.882-15.592-9.951l-42.947-92.5h-50.208
			c-9.493,0-17.19-7.697-17.19-17.191c0-9.493,7.697-17.19,17.19-17.19h61.18c6.691,0,12.774,3.882,15.591,9.951l42.947,92.5
			h171.979c9.494,0,17.189,7.696,17.189,17.19C546.521,264.854,538.826,272.551,529.332,272.551z"/>
	</g>
	<circle fill="#FFDE03" cx="388.576" cy="313.737" r="30.11"/>
	<circle fill="#FFDE03" cx="483.66" cy="313.737" r="30.11"/>
</g>
<path fill="#FFDE03" d="M426.173,155.811l6.412-2.133c-0.082-2.676-0.389-5.319-0.895-7.916l-6.771-0.924
	c-0.781-3.164-1.905-6.213-3.334-9.093l4.683-4.866c-1.322-2.386-2.836-4.648-4.521-6.792l-6.419,2.329
	c-2.059-2.35-4.361-4.478-6.913-6.367l1.914-6.513c-2.282-1.52-4.673-2.868-7.214-4.016l-4.603,5.033
	c-1.422-0.559-2.904-1.058-4.414-1.477c-1.515-0.422-3.026-0.752-4.531-1.004l-1.359-6.679c-2.763-0.33-5.526-0.404-8.25-0.27
	l-1.713,6.567c-3.156,0.303-6.239,0.937-9.198,1.9l-4.317-5.307c-2.554,0.968-5.017,2.13-7.377,3.496l1.521,6.588
	c-2.721,1.721-5.243,3.768-7.537,6.078l-6.292-2.698c-1.764,1.97-3.389,4.075-4.836,6.332l4.392,5.123
	c-1.657,2.863-3.019,5.968-4.019,9.258l-6.816,0.543c-0.642,2.546-1.073,5.105-1.315,7.642l6.262,2.491
	c-0.174,3.569,0.093,7.086,0.758,10.508l-5.767,3.641c0.613,2.449,1.403,4.849,2.365,7.169l6.707-0.709
	c1.544,3.297,3.488,6.404,5.805,9.229l-3.41,5.879c1.647,1.836,3.427,3.545,5.34,5.131l5.619-3.758
	c2.923,2.199,6.155,4.053,9.671,5.485l-0.29,6.777c1.155,0.405,2.31,0.79,3.498,1.119c1.2,0.336,2.393,0.603,3.592,0.84l3.241-5.95
	c3.736,0.569,7.461,0.649,11.112,0.271l2.883,6.112c2.456-0.373,4.86-0.92,7.217-1.647l0.104-6.797
	c3.439-1.23,6.706-2.894,9.72-4.93l5.399,4.067c2.012-1.495,3.928-3.147,5.715-4.932l-3.079-6.089
	c2.334-2.588,4.371-5.465,6.064-8.621l6.65,1.095c1.102-2.302,2.049-4.726,2.8-7.232l-5.559-3.973
	C425.701,162.482,426.134,159.119,426.173,155.811z M382.517,181.528c-14.667,0-26.554-11.888-26.554-26.559
	c0-14.671,11.888-26.557,26.554-26.557s26.562,11.887,26.562,26.557C409.079,169.639,397.183,181.528,382.517,181.528z"/>
<path fill="#FFDE03" d="M566.873,98.333l6.932,4.95c-0.941,3.123-2.119,6.14-3.496,9.005l-8.281-1.361
	c-2.105,3.928-4.646,7.517-7.553,10.739l3.832,7.584c-2.227,2.226-4.604,4.283-7.121,6.143l-6.711-5.059
	c-3.762,2.532-7.834,4.604-12.107,6.134l-0.131,8.469c-2.939,0.906-5.939,1.585-8.994,2.052l-3.588-7.613
	c-4.553,0.472-9.189,0.373-13.852-0.339l-4.037,7.415c-1.486-0.301-2.975-0.634-4.469-1.051c-1.477-0.408-2.922-0.886-4.354-1.395
	l0.354-8.438c-4.373-1.79-8.398-4.091-12.041-6.834l-6.994,4.682c-2.387-1.976-4.607-4.104-6.654-6.389l4.242-7.329
	c-2.879-3.516-5.301-7.386-7.225-11.493l-8.361,0.881c-1.195-2.89-2.176-5.875-2.938-8.93l7.184-4.531
	c-0.832-4.257-1.164-8.644-0.943-13.094l-7.807-3.099c0.303-3.163,0.842-6.353,1.641-9.518l8.492-0.673
	c1.244-4.103,2.945-7.973,5.006-11.536l-5.473-6.387c1.809-2.807,3.83-5.432,6.025-7.882l7.844,3.359
	c2.854-2.878,5.998-5.426,9.387-7.576l-1.896-8.205c2.938-1.698,6.006-3.142,9.186-4.353l5.377,6.609
	c3.689-1.193,7.529-1.987,11.459-2.366l2.146-8.178c3.387-0.17,6.824-0.074,10.27,0.333l1.691,8.32
	c1.877,0.317,3.76,0.729,5.641,1.252c1.893,0.521,3.73,1.142,5.506,1.835l5.732-6.26c3.162,1.423,6.145,3.106,8.973,4.999
	l-2.373,8.114c3.178,2.345,6.045,4.999,8.609,7.924l7.996-2.901c2.1,2.674,3.986,5.494,5.635,8.457l-5.834,6.064
	c1.783,3.586,3.18,7.39,4.152,11.329l8.436,1.152c0.631,3.235,1.014,6.523,1.121,9.862l-7.994,2.654
	C568.453,89.985,567.916,94.173,566.873,98.333 M525.599,43.265c-23.326-6.462-47.482,7.213-53.947,30.538
	c-6.469,23.339,7.203,47.5,30.529,53.964c23.342,6.47,47.5-7.207,53.971-30.546C562.617,73.894,548.943,49.736,525.599,43.265
	 M523.125,52.191c-18.396-5.097-37.451,5.689-42.549,24.088c-5.102,18.411,5.682,37.462,24.082,42.56
	c18.41,5.105,37.465-5.679,42.564-24.093C552.326,76.349,541.539,57.295,523.125,52.191"/>
<path fill="#FFDE03" d="M485.869,209.122l3.729,2.659c-0.507,1.681-1.139,3.302-1.879,4.843l-4.453-0.734
	c-1.129,2.112-2.491,4.041-4.057,5.77l2.058,4.074c-1.193,1.197-2.471,2.302-3.824,3.304l-3.607-2.722
	c-2.021,1.362-4.212,2.476-6.507,3.298l-0.074,4.549c-1.572,0.489-3.188,0.853-4.833,1.105l-1.931-4.092
	c-2.441,0.253-4.935,0.202-7.437-0.18l-2.177,3.984c-0.794-0.162-1.595-0.342-2.396-0.567c-0.795-0.217-1.57-0.474-2.338-0.746
	l0.186-4.534c-2.349-0.962-4.51-2.2-6.473-3.673l-3.759,2.515c-1.279-1.059-2.473-2.205-3.576-3.434l2.283-3.938
	c-1.548-1.891-2.852-3.971-3.881-6.177l-4.491,0.474c-0.644-1.55-1.176-3.156-1.584-4.796l3.862-2.434
	c-0.449-2.29-0.625-4.647-0.506-7.039l-4.193-1.665c0.16-1.698,0.451-3.414,0.883-5.114l4.561-0.363
	c0.673-2.206,1.582-4.282,2.694-6.199l-2.946-3.433c0.973-1.508,2.062-2.915,3.239-4.232l4.212,1.804
	c1.532-1.543,3.222-2.914,5.045-4.07l-1.02-4.409c1.579-0.914,3.23-1.688,4.934-2.338l2.893,3.553
	c1.977-0.641,4.045-1.07,6.154-1.272l1.148-4.395c1.818-0.089,3.671-0.042,5.519,0.178l0.909,4.474
	c1.009,0.168,2.02,0.388,3.032,0.672c1.013,0.28,2.003,0.613,2.958,0.984l3.077-3.362c1.708,0.765,3.305,1.667,4.828,2.687
	l-1.277,4.357c1.71,1.262,3.251,2.688,4.625,4.26l4.303-1.559c1.13,1.437,2.141,2.949,3.025,4.541l-3.141,3.261
	c0.961,1.925,1.71,3.972,2.238,6.087l4.529,0.62c0.344,1.735,0.547,3.505,0.601,5.299l-4.293,1.423
	C486.721,204.635,486.43,206.888,485.869,209.122 M463.689,179.53c-12.53-3.471-25.51,3.877-28.981,16.412
	c-3.479,12.542,3.864,25.522,16.403,28.997c12.537,3.476,25.521-3.872,28.998-16.414C483.585,195.99,476.235,183.008,463.689,179.53
	 M462.367,184.329c-9.889-2.737-20.124,3.058-22.863,12.943c-2.743,9.891,3.055,20.127,12.941,22.869
	c9.891,2.742,20.126-3.052,22.865-12.946C478.053,197.31,472.255,187.069,462.367,184.329"/>
<path fill="#FFDE03" d="M571.335,185.41l4.31-1.432c-0.053-1.798-0.256-3.577-0.604-5.324l-4.554-0.62
	c-0.525-2.13-1.276-4.177-2.243-6.11l3.153-3.275c-0.89-1.603-1.904-3.126-3.043-4.562l-4.311,1.566
	c-1.385-1.584-2.932-3.006-4.646-4.28l1.279-4.375c-1.533-1.027-3.142-1.934-4.845-2.701l-3.095,3.378
	c-0.957-0.375-1.952-0.712-2.965-0.991c-1.018-0.281-2.035-0.507-3.048-0.677l-0.915-4.493c-1.854-0.216-3.719-0.264-5.549-0.177
	l-1.15,4.417c-2.124,0.198-4.194,0.623-6.183,1.272l-2.91-3.563c-1.713,0.648-3.364,1.434-4.955,2.351l1.022,4.427
	c-1.83,1.158-3.522,2.529-5.068,4.083l-4.228-1.811c-1.181,1.325-2.276,2.738-3.25,4.257l2.958,3.446
	c-1.118,1.921-2.035,4.009-2.706,6.217l-4.586,0.368c-0.433,1.71-0.724,3.433-0.885,5.139l4.209,1.674
	c-0.112,2.398,0.063,4.76,0.513,7.066l-3.882,2.442c0.411,1.645,0.939,3.262,1.583,4.824l4.516-0.478
	c1.036,2.216,2.338,4.306,3.897,6.203l-2.294,3.95c1.105,1.239,2.307,2.382,3.591,3.45l3.777-2.524
	c1.965,1.476,4.146,2.718,6.507,3.686l-0.192,4.56c0.777,0.269,1.548,0.522,2.351,0.748c0.81,0.229,1.607,0.404,2.415,0.567
	l2.179-3.993c2.511,0.375,5.011,0.427,7.469,0.177l1.94,4.109c1.652-0.253,3.271-0.624,4.852-1.113l0.063-4.573
	c2.319-0.823,4.516-1.935,6.544-3.302l3.619,2.722c1.359-0.998,2.646-2.112,3.845-3.307l-2.068-4.099
	c1.57-1.735,2.936-3.669,4.074-5.792l4.475,0.741c0.739-1.554,1.378-3.188,1.885-4.865l-3.742-2.675
	C571.015,189.895,571.307,187.64,571.335,185.41z M541.988,202.704c-9.858,0-17.853-7.997-17.853-17.856
	c0-9.864,7.994-17.851,17.853-17.851c9.861,0,17.853,7.987,17.853,17.851C559.84,194.708,551.849,202.704,541.988,202.704z"/>
<path fill="#FFDE03" d="M430.125,60.3l4.946,3.531c-0.672,2.231-1.515,4.38-2.494,6.426l-5.91-0.971
	c-1.499,2.804-3.313,5.366-5.386,7.662l2.733,5.413c-1.588,1.585-3.289,3.051-5.086,4.382l-4.788-3.611
	c-2.686,1.806-5.589,3.285-8.644,4.377l-0.09,6.041c-2.096,0.645-4.234,1.131-6.415,1.462l-2.558-5.43
	c-3.247,0.336-6.558,0.264-9.879-0.244l-2.881,5.294c-1.064-0.22-2.123-0.455-3.187-0.751c-1.056-0.292-2.088-0.632-3.113-0.996
	l0.252-6.021c-3.118-1.275-5.989-2.919-8.59-4.874l-4.989,3.339c-1.704-1.407-3.289-2.927-4.752-4.557l3.031-5.227
	c-2.056-2.509-3.785-5.27-5.157-8.202l-5.963,0.632c-0.854-2.064-1.554-4.196-2.098-6.373l5.126-3.233
	c-0.594-3.038-0.832-6.167-0.674-9.341l-5.568-2.211c0.212-2.256,0.599-4.533,1.168-6.791l6.058-0.483
	c0.89-2.926,2.1-5.688,3.575-8.229l-3.905-4.557c1.291-2.004,2.735-3.876,4.299-5.625l5.593,2.398
	c2.039-2.051,4.279-3.871,6.7-5.405l-1.351-5.854c2.096-1.211,4.284-2.241,6.549-3.107l3.843,4.716
	c2.628-0.852,5.367-1.417,8.172-1.686l1.533-5.834c2.418-0.122,4.864-0.058,7.327,0.237l1.206,5.935
	c1.338,0.228,2.684,0.52,4.027,0.894c1.346,0.371,2.657,0.814,3.924,1.309l4.09-4.466c2.255,1.015,4.386,2.217,6.405,3.568
	l-1.696,5.789c2.266,1.673,4.31,3.566,6.14,5.651l5.705-2.07c1.495,1.908,2.847,3.918,4.019,6.037l-4.156,4.326
	c1.27,2.557,2.268,5.272,2.958,8.082l6.021,0.821c0.453,2.309,0.722,4.656,0.801,7.037l-5.705,1.895
	C431.252,54.344,430.871,57.333,430.125,60.3 M395.745,38.823c-6.808-1.886-13.858,2.105-15.747,8.915
	c-1.886,6.813,2.104,13.866,8.913,15.753c6.815,1.888,13.866-2.104,15.755-8.917C406.554,47.764,402.564,40.713,395.745,38.823"/>
<g>
	<path fill="#FFDE03" d="M157.636,362.783c-5.038-20.566-7.727-42.059-7.727-64.178c0.001-112.938,69.612-209.6,168.26-249.474
		L299.445,24.39C193.741,70.508,119.839,175.911,119.839,298.605c0,23.39,2.705,46.146,7.788,67.986L157.636,362.783z"/>
	<path fill="#FFDE03" d="M683.894,344.881l28.27,12.512c3.793-19.012,5.816-38.659,5.816-58.784
		c0-93.545-42.961-177.045-110.217-231.885c-6.789,6.79-13.58,13.58-20.369,20.369c-0.363,0.365-0.742,0.671-1.127,0.934
		c61.93,49.282,101.643,125.287,101.643,210.583C687.91,314.391,686.509,329.845,683.894,344.881z"/>
	<path fill="#FFDE03" d="M610.128,487.715c-48.752,49.31-116.396,79.893-191.218,79.893c-79.053,0-150.113-34.129-199.329-88.423
		l-26.862,15.042c54.838,63.354,135.825,103.448,226.191,103.448c84.578,0,160.923-35.129,215.314-91.568L610.128,487.715z"/>
</g>
<g>
	<path fill="#FFDE03" d="M148.907,473.814v-89.711h19.099v72.898h37.929v16.813H148.907L148.907,473.814z"/>
	<path fill="#FFDE03" d="M211.314,429.027c0-27.034,19.771-46.401,46.805-46.401c27.168,0,46.939,19.367,46.939,46.401
		c0,27.033-19.771,46.4-46.939,46.4C231.085,475.429,211.314,456.063,211.314,429.027z M285.422,429.027
		c0-16.813-10.76-29.455-27.303-29.455s-27.168,12.643-27.168,29.455c0,16.677,10.625,29.455,27.168,29.455
		C274.663,458.482,285.422,445.704,285.422,429.027z"/>
	<path fill="#FFDE03" d="M338.146,473.814v-36.719l-34.565-52.992h21.788l22.327,36.047l22.058-36.047h21.789l-34.297,52.992v36.719
		H338.146z"/>
	<path fill="#FFDE03" d="M452.738,473.814l-5.514-15.198h-38.466l-5.649,15.198H381.32l34.701-89.711h23.939l34.566,89.711H452.738z
		 M427.992,403.204l-13.988,38.601h27.976L427.992,403.204z"/>
	<path fill="#FFDE03" d="M482.865,473.814v-89.711h19.1v72.898h37.928v16.813H482.865L482.865,473.814z"/>
	<path fill="#FFDE03" d="M560.47,473.814v-72.897h-26.229v-16.813h71.553v16.813h-26.092v72.897H560.47z"/>
	<path fill="#FFDE03" d="M643.048,473.814v-36.719l-34.564-52.992h21.789l22.326,36.047l22.059-36.047h21.787l-34.297,52.992v36.719
		H643.048z"/>
</g>
</svg>
