<svg xmlns="http://www.w3.org/2000/svg" width="44.125" height="39.042"><path fill="#252525" d="M40.506 39.417H7.007a4.295 4.295 0 0 1-4.288-4.449l-.003-.112V6.85A6.474 6.474 0 0 1 9.182.384h26.103c3.564 0 6.465 2.9 6.465 6.466v22.622a3.869 3.869 0 0 1-2.788 3.705 2.161 2.161 0 0 0-1.185 1.846c-.037.775.314 1.48.943 1.905h1.784c.687 0 1.245.559 1.245 1.245a1.243 1.243 0 0 1-1.243 1.244zM3.467 34.481h.03l-.021.403a3.544 3.544 0 0 0 3.532 3.783h33.499a.495.495 0 0 0 0-.989h-2l-.09-.055a2.89 2.89 0 0 1-1.388-2.636 2.893 2.893 0 0 1 1.641-2.494l.087-.037a3.116 3.116 0 0 0 2.245-2.984V6.85a5.721 5.721 0 0 0-5.715-5.716H9.183A5.722 5.722 0 0 0 3.467 6.85v27.631zm33.426 3.197H7.007c-1.406 0-2.55-1.144-2.55-2.55s1.144-2.55 2.55-2.55h29.885l-.327.563a4.016 4.016 0 0 0 0 3.973l.328.564zM7.007 33.329c-.993 0-1.8.808-1.8 1.8s.808 1.8 1.8 1.8h28.631a4.716 4.716 0 0 1 0-3.6H7.007zm-2.55-.756V6.85a4.732 4.732 0 0 1 4.726-4.726h26.103a4.731 4.731 0 0 1 4.725 4.726v22.622a2.118 2.118 0 0 1-2.116 2.115H7.007a3.53 3.53 0 0 0-1.967.596l-.583.39zM9.183 2.875a3.98 3.98 0 0 0-3.976 3.976v24.382a4.276 4.276 0 0 1 1.8-.395h30.887c.753 0 1.366-.612 1.366-1.365V6.85a3.98 3.98 0 0 0-3.975-3.976H9.183z"/><path d="M26.269 29.906c-.38 0-.716-.143-1-.424a1.381 1.381 0 0 1-.427-1.005c0-.41.146-.755.433-1.026.281-.266.616-.4.994-.4 1.305 0 2.415-.267 3.301-.791.833-.493 1.238-1.03 1.238-1.643 0-.409-.298-.84-.885-1.278-.644-.48-1.536-.86-2.653-1.13l-.65-.156 2.282-2.281.215.065c1.535.464 2.686 1.122 3.418 1.954.75.851 1.13 1.802 1.13 2.827 0 1.702-.782 3.033-2.324 3.955-1.481.884-3.187 1.333-5.072 1.333zm1.812-8.255c.928.278 1.696.643 2.291 1.086.787.589 1.186 1.221 1.186 1.88 0 .888-.54 1.657-1.606 2.288-1.002.594-2.241.896-3.683.896a.666.666 0 0 0-.479.195.616.616 0 0 0-.198.481c0 .183.065.333.206.473a.635.635 0 0 0 .471.206c1.748 0 3.325-.413 4.687-1.228 1.318-.789 1.959-1.872 1.959-3.312 0-.85-.309-1.611-.942-2.331-.606-.688-1.567-1.248-2.859-1.665l-1.033 1.031zm-11.203 8.255h-5.023v-5.023l14.589-14.589 5.022 5.023-14.588 14.589zm-4.273-.75h3.962l13.838-13.839-3.962-3.962-13.838 13.838v3.963zm3.36-1.356h-2.003v-2.004l12.483-12.484 2.005 2.004L15.965 27.8zm-1.254-.75h.943l11.734-11.734-.944-.944-11.733 11.735v.943zm.447-7.427l-.2-.044c-1.565-.342-2.717-.899-3.422-1.655-.72-.771-1.084-1.588-1.084-2.432 0-.912.34-1.742 1.012-2.466.657-.708 2.083-1.451 4.36-2.273 1.865-.679 2.595-1.087 2.879-1.311.352-.279.523-.584.523-.934 0-.471-.208-.87-.634-1.219-.445-.363-1.168-.547-2.149-.547-.583 0-1.082.075-1.484.223a2.925 2.925 0 0 0-1.059.685 1.548 1.548 0 0 1-.94.441 1.404 1.404 0 0 1-1.068-.309 1.252 1.252 0 0 1-.543-.979 1.37 1.37 0 0 1 .357-1.001c.418-.542 1.07-1.013 1.923-1.377.84-.357 1.787-.539 2.815-.539 1.672 0 3.038.411 4.059 1.222 1.049.832 1.582 1.975 1.582 3.399 0 1.059-.374 1.969-1.112 2.705-.711.711-2.035 1.423-4.046 2.174-1.533.572-2.551 1.024-3.028 1.346-.391.265-.589.521-.589.76 0 .217.267.48.751.741.601.322 1.527.635 2.753.931l.65.157-2.306 2.302zm1.284-13.631c1.159 0 2.042.241 2.624.716.604.494.91 1.099.91 1.799 0 .585-.272 1.098-.808 1.522-.483.381-1.494.848-3.088 1.428-2.133.77-3.5 1.469-4.066 2.079-.546.589-.812 1.229-.812 1.956 0 .656.289 1.284.882 1.92.571.612 1.525 1.079 2.835 1.389l1.072-1.072c-.984-.265-1.737-.54-2.289-.835-.771-.415-1.146-.873-1.146-1.401 0-.503.31-.968.919-1.381.534-.359 1.575-.826 3.186-1.427 1.882-.703 3.153-1.376 3.778-2.002.6-.599.892-1.31.892-2.174 0-1.2-.424-2.12-1.298-2.812-.885-.703-2.094-1.06-3.592-1.06-.927 0-1.775.161-2.521.479-.733.313-1.285.706-1.64 1.165a.658.658 0 0 0-.186.492c.004.104.035.259.25.414a.67.67 0 0 0 .433.166c.3-.03.463-.104.59-.231a3.67 3.67 0 0 1 1.331-.859c.487-.181 1.073-.271 1.744-.271zm16.004 8.345l-5.023-5.022 1.846-1.844c.981-.985 2.357-.984 3.339 0l1.684 1.684c.492.493.741 1.054.741 1.669s-.25 1.176-.742 1.669l-1.845 1.844zm-3.963-5.022l3.963 3.961 1.313-1.314c.352-.352.522-.724.522-1.139s-.171-.787-.522-1.139L32.075 8c-.7-.702-1.575-.703-2.277 0l-1.315 1.315z"/></svg>