<svg xmlns="http://www.w3.org/2000/svg" width="44.125" height="39.042"><path fill="#252525" d="M38.609 38.294H4.745a3.983 3.983 0 0 1-3.978-3.979L.78 6.832a3.152 3.152 0 0 1-.013-.256c0-2.392 1.958-4.338 4.366-4.338h33.45c2.208 0 4.004 1.785 4.004 3.978v5.764c-.003.1-.017.19-.04.274.024.173.04.308.04.446v4.669h.345a1.1 1.1 0 0 1 1.098 1.094v10.089c0 .604-.491 1.096-1.096 1.096h-.346v4.668a3.983 3.983 0 0 1-3.979 3.978zM5.133 2.988c-1.994 0-3.616 1.61-3.616 3.588 0 .074.006.147.012.219l.003.04-.024.172.009 27.309a3.232 3.232 0 0 0 3.228 3.229h33.864a3.233 3.233 0 0 0 3.229-3.229v-5.418h1.096c.19 0 .346-.155.346-.346V18.465a.35.35 0 0 0-.348-.346h-1.095V12.7c0-.124-.019-.244-.036-.364l-.015-.099.028-.156a.318.318 0 0 0 .022-.115v-5.75c0-1.78-1.46-3.228-3.254-3.228H5.133zm33.476 33.865H4.744a2.54 2.54 0 0 1-2.537-2.537V8.823l.614.509a3.626 3.626 0 0 0 2.307.832h33.481a2.54 2.54 0 0 1 2.535 2.536v5.419h-5.418a4.674 4.674 0 0 0-4.67 4.669v1.439a4.675 4.675 0 0 0 4.67 4.67h5.418v5.418a2.538 2.538 0 0 1-2.535 2.538zM2.957 10.335v23.98a1.79 1.79 0 0 0 1.787 1.787h33.865c.984 0 1.785-.802 1.785-1.787v-4.668h-4.668a5.427 5.427 0 0 1-5.42-5.42v-1.439a5.426 5.426 0 0 1 5.42-5.419h4.668V12.7c0-.985-.801-1.786-1.785-1.786H5.133a4.378 4.378 0 0 1-2.176-.579zM27.081 33.25h-7.206a1.097 1.097 0 0 1-1.096-1.095c0-.604.492-1.096 1.096-1.096h7.206a1.096 1.096 0 0 1 0 2.191zm-7.206-1.441a.346.346 0 0 0 0 .691h7.206a.345.345 0 0 0 0-.691h-7.206zm-2.882 1.441H6.186a1.096 1.096 0 0 1 0-2.191h10.808a1.096 1.096 0 0 1-.001 2.191zM6.186 31.809a.346.346 0 0 0 0 .691h10.807a.346.346 0 0 0 .001-.691H6.186zm10.086-2.16h-3.604a1.097 1.097 0 0 1 0-2.193h3.604a1.097 1.097 0 0 1 0 2.193zm-3.604-1.442a.346.346 0 0 0 0 .693h3.604a.346.346 0 0 0 0-.693h-3.604zm-2.881 1.442H6.186a1.096 1.096 0 0 1 0-2.193h3.601a1.097 1.097 0 0 1 0 2.193zm-3.601-1.442a.346.346 0 0 0 0 .693h3.601a.347.347 0 1 0 0-.693H6.186zm23.777 1.441h-3.604a1.097 1.097 0 0 1 0-2.192h3.604a1.095 1.095 0 0 1 0 2.192zm-3.604-1.441a.347.347 0 0 0 0 .692h3.604a.346.346 0 0 0 0-.692h-3.604zm-3.601 1.441h-3.604a1.097 1.097 0 0 1 0-2.192h3.604a1.097 1.097 0 0 1 0 2.192zm-3.604-1.441a.347.347 0 0 0 0 .692h3.604a.347.347 0 0 0 0-.692h-3.604zm23.433 0h-6.86a3.983 3.983 0 0 1-3.977-3.979v-1.439a3.983 3.983 0 0 1 3.977-3.979h6.86v9.397zm-6.86-8.647a3.232 3.232 0 0 0-3.227 3.229v1.439a3.232 3.232 0 0 0 3.227 3.229h6.11V19.56h-6.11zm.72 7.205a3.261 3.261 0 0 1-3.256-3.258c0-1.795 1.461-3.256 3.256-3.256s3.256 1.461 3.256 3.256a3.261 3.261 0 0 1-3.256 3.258zm0-5.764a2.509 2.509 0 0 0-2.506 2.506c0 1.383 1.124 2.508 2.506 2.508s2.506-1.125 2.506-2.508a2.509 2.509 0 0 0-2.506-2.506zm0 4.323a1.817 1.817 0 0 1-1.816-1.816 1.816 1.816 0 1 1 1.816 1.816zm0-2.882a1.067 1.067 0 0 0 0 2.131c.285 0 .553-.111.754-.313a1.066 1.066 0 0 0-.754-1.818zm4.698-11.852l-.602-.455a3.207 3.207 0 0 0-.848-.459l-.146-.097a.338.338 0 0 0-.246-.106h-1.068V6.216a.347.347 0 0 0-.346-.346H5.466a.347.347 0 0 0-.347.346v3.28l-.431-.066c-1.438-.22-2.48-1.42-2.48-2.854 0-1.597 1.313-2.897 2.926-2.897h33.45c1.412 0 2.562 1.138 2.562 2.537v4.374zm-1.117-1.591c.125.048.247.103.366.163V6.216c0-.985-.813-1.787-1.812-1.787H5.133c-1.2 0-2.176.963-2.176 2.147 0 .912.573 1.696 1.412 2.002V6.216c0-.604.492-1.096 1.097-1.096h32.423c.604 0 1.096.492 1.096 1.096v2.506h.32c.268.002.526.101.723.277zm-2.486.474H5.811V6.561h31.731v2.912zm-30.981-.75h30.231V7.311H6.561v1.412z"/><path fill="#252525" d="M11.541 25.683l-.094-.001c-1.253-.024-2.422-.537-3.293-1.443s-1.336-2.095-1.312-3.348a4.623 4.623 0 0 1 .786-2.506 4.638 4.638 0 0 1-.687-2.536c.05-2.54 2.158-4.605 4.699-4.605 2.682.053 4.746 2.202 4.695 4.791a4.623 4.623 0 0 1-.784 2.507 4.63 4.63 0 0 1 .685 2.537c-.05 2.539-2.156 4.604-4.695 4.604zm.175-13.688c-2.213 0-3.983 1.736-4.025 3.869a3.892 3.892 0 0 0 .698 2.316l.155.223-.164.217a3.887 3.887 0 0 0-.789 2.286 3.92 3.92 0 0 0 1.103 2.813 3.92 3.92 0 0 0 2.767 1.213l.079.376v-.375c2.133 0 3.903-1.736 3.945-3.87a3.886 3.886 0 0 0-.696-2.316l-.154-.223.163-.216a3.888 3.888 0 0 0 .787-2.286 3.952 3.952 0 0 0-3.867-4.026l-.002-.001zm-.177 12.248c-1.857-.036-3.29-1.526-3.255-3.321a3.22 3.22 0 0 1 .98-2.261.345.345 0 0 0 .01-.483 3.214 3.214 0 0 1-.89-2.299 3.273 3.273 0 0 1 3.255-3.192h.065a3.261 3.261 0 0 1 3.191 3.321 3.229 3.229 0 0 1-.979 2.261.348.348 0 0 0-.01.485c.592.622.908 1.438.89 2.297a3.274 3.274 0 0 1-3.257 3.192zm.1-11.182v.375a2.519 2.519 0 0 0-2.505 2.458 2.469 2.469 0 0 0 .684 1.767 1.1 1.1 0 0 1-.031 1.537 2.468 2.468 0 0 0-.753 1.737 2.512 2.512 0 0 0 2.457 2.557h.001c1.404 0 2.528-1.102 2.555-2.456a2.499 2.499 0 0 0-.685-1.767 1.101 1.101 0 0 1 .031-1.538c.473-.462.741-1.08.753-1.738a2.51 2.51 0 0 0-2.456-2.557l-.051-.375z"/></svg>