<svg xmlns="http://www.w3.org/2000/svg" width="44.125" height="39.042"><path fill="none" stroke="#000" stroke-width=".75" stroke-miterlimit="10" d="M22.771 39.042c-2.678 0-5.179-.502-7.506-1.506s-4.352-2.365-6.073-4.088c-1.721-1.721-3.075-3.754-4.063-6.096s-1.482-4.854-1.482-7.53c0-2.679.494-5.172 1.482-7.483s2.343-4.327 4.063-6.048c1.722-1.721 3.746-3.069 6.073-4.04 2.327-.973 4.828-1.458 7.506-1.458s5.179.485 7.506 1.458c2.327.971 4.352 2.319 6.073 4.04s3.075 3.737 4.063 6.048c.988 2.312 1.482 4.805 1.482 7.483 0 2.676-.494 5.188-1.482 7.53s-2.343 4.375-4.063 6.096c-1.722 1.723-3.746 3.084-6.073 4.088s-4.828 1.506-7.506 1.506zm0-2.773a15.895 15.895 0 0 0 2.797-3.943c.75-1.482 1.362-3.242 1.841-5.283h-9.228c.445 1.912 1.043 3.633 1.793 5.164a16.317 16.317 0 0 0 2.797 4.062zm-4.064-.572a22.942 22.942 0 0 1-2.056-3.92c-.573-1.404-1.052-2.982-1.435-4.734H8.045c1.212 2.262 2.615 4.039 4.208 5.332 1.593 1.289 3.744 2.396 6.454 3.322zm8.176-.049a19.1 19.1 0 0 0 6.192-3.299 17.1 17.1 0 0 0 4.423-5.307h-7.124c-.415 1.721-.901 3.283-1.459 4.686s-1.235 2.709-2.032 3.92zM7.089 24.173h7.603a27.17 27.17 0 0 1-.168-2.318 87.085 87.085 0 0 1-.023-2.032c0-.798.017-1.507.048-2.129.032-.621.096-1.314.19-2.08h-7.65c-.223.765-.374 1.45-.454 2.057-.08.605-.119 1.322-.119 2.152 0 .829.039 1.569.119 2.223.08.653.231 1.364.454 2.127zm10.567 0h10.279a33.16 33.16 0 0 0 .239-2.414c.031-.621.048-1.268.048-1.936 0-.638-.017-1.252-.048-1.842a34.08 34.08 0 0 0-.239-2.366H17.656a32.879 32.879 0 0 0-.239 2.366c-.032.59-.049 1.204-.049 1.842 0 .668.017 1.315.049 1.936.031.621.111 1.426.239 2.414zm13.149 0h7.649c.223-.764.374-1.475.454-2.127.08-.654.119-1.395.119-2.223 0-.83-.039-1.547-.119-2.152a13.996 13.996 0 0 0-.454-2.057h-7.603c.096 1.115.16 1.969.191 2.558.032.589.048 1.14.048 1.65 0 .7-.024 1.362-.071 1.983-.047.624-.12 1.413-.214 2.368zm-.479-11.427h7.172c-1.053-2.199-2.495-4.032-4.327-5.499-1.832-1.466-3.944-2.502-6.335-3.108a20.787 20.787 0 0 1 2.031 3.825c.559 1.372 1.045 2.965 1.459 4.782zm-12.144 0h9.275a18.629 18.629 0 0 0-1.77-4.901 19.57 19.57 0 0 0-2.916-4.184c-1.02.861-1.881 1.993-2.582 3.395-.701 1.403-1.37 3.299-2.007 5.69zm-10.137 0h7.221c.35-1.721.796-3.259 1.338-4.614a22.783 22.783 0 0 1 2.057-3.944c-2.391.606-4.479 1.626-6.264 3.06-1.786 1.434-3.236 3.266-4.352 5.498z"/></svg>