<?xml version="1.0" encoding="utf-8"?>
<!-- Generator: Adobe Illustrator 15.1.0, SVG Export Plug-In . SVG Version: 6.00 Build 0)  -->
<!DOCTYPE svg PUBLIC "-//W3C//DTD SVG 1.1//EN" "http://www.w3.org/Graphics/SVG/1.1/DTD/svg11.dtd">
<svg version="1.1" id="Layer_1" xmlns="http://www.w3.org/2000/svg" xmlns:xlink="http://www.w3.org/1999/xlink" x="0px" y="0px"
	 width="63px" height="75.084px" viewBox="0 0 63 75.084" enable-background="new 0 0 63 75.084" xml:space="preserve">
<g>
	<path fill="#0336ff" d="M0.083,71.896c0,1.758,1.43,3.188,3.188,3.188h56.626c1.758,0,3.188-1.43,3.188-3.188v-5.21H0.083V71.896z
		 M59.897,72.754H3.271c-0.474,0-0.858-0.385-0.858-0.857v-2.882h58.343v2.882C60.756,72.369,60.371,72.754,59.897,72.754z"/>
	<path fill="#0336ff" d="M59.897,9.549h-2.023c-1.757,0-3.186,1.43-3.186,3.188v1.868h-20.93v-0.857
		c0-1.758-1.429-3.188-3.186-3.188H28.55c-1.395,0-2.616,0.93-3.034,2.214c-0.417-1.285-1.638-2.214-3.033-2.214h-2.022
		c-1.396,0-2.617,0.929-3.034,2.213c-0.418-1.284-1.639-2.213-3.034-2.213H12.37c-1.756,0-3.185,1.43-3.185,3.188v0.857H8.48v-1.868
		c0-1.758-1.43-3.188-3.187-3.188H3.271c-1.758,0-3.188,1.43-3.188,3.188V62.02H8.48v-9.924h2.725v0.855
		c0,1.758,1.43,3.188,3.188,3.188h2.022c1.396,0,2.617-0.93,3.035-2.215c0.417,1.285,1.637,2.215,3.033,2.215h2.022
		c1.758,0,3.188-1.431,3.188-3.188v-0.855h26.996v9.924h8.396V12.737C63.085,10.979,61.655,9.549,59.897,9.549z M25.363,49.766
		v3.186c0,0.474-0.385,0.859-0.858,0.859h-2.022c-0.473,0-0.857-0.386-0.857-0.859v-3.186h-4.353v3.186
		c0,0.474-0.385,0.859-0.858,0.859h-2.022c-0.473,0-0.859-0.386-0.859-0.859v-3.186H6.151v9.924H2.413V12.737
		c0-0.473,0.385-0.858,0.858-0.858h2.022c0.473,0,0.858,0.385,0.858,0.858v4.198h5.364v-3.187c0-0.474,0.383-0.858,0.855-0.858
		h2.023c0.473,0,0.858,0.385,0.858,0.858v3.187h4.352v-3.187c0-0.474,0.385-0.858,0.858-0.858h2.022
		c0.473,0,0.857,0.385,0.857,0.858v3.187h4.352v-3.187c0-0.474,0.384-0.858,0.857-0.858h2.022c0.473,0,0.857,0.385,0.857,0.858
		v3.187h25.587v-4.198c0-0.473,0.384-0.858,0.856-0.858h2.023c0.474,0,0.858,0.385,0.858,0.858v46.953h-3.738v-9.924H25.363z"/>
	<path fill="#0336ff" d="M37.802,28.828c0-0.472,0.388-0.856,0.861-0.856h2.022c0.472,0,0.855,0.385,0.855,0.856v3.188h4.352v-3.188
		c0-0.472,0.386-0.856,0.859-0.856h2.022c0.473,0,0.857,0.385,0.857,0.856v3.188h7.386V18.601H31.43v3.188
		c0,0.472-0.384,0.856-0.857,0.856H28.55c-0.473,0-0.857-0.384-0.857-0.856v-3.188h-4.352v3.188c0,0.472-0.385,0.856-0.857,0.856
		h-2.022c-0.473,0-0.858-0.384-0.858-0.856v-3.188h-4.352v3.188c0,0.472-0.385,0.856-0.858,0.856H12.37
		c-0.472,0-0.855-0.384-0.855-0.856v-3.188H6.151v13.415h31.65V28.828z M35.473,28.828v0.858H8.48v-8.756h0.705v0.858
		c0,1.757,1.429,3.186,3.185,3.186h2.023c1.395,0,2.616-0.929,3.034-2.212c0.417,1.284,1.639,2.212,3.034,2.212h2.022
		c1.396,0,2.616-0.929,3.033-2.213c0.417,1.284,1.639,2.213,3.034,2.213h2.022c1.757,0,3.186-1.429,3.186-3.186v-0.858h20.93v8.756
		h-2.728v-0.858c0-1.756-1.429-3.186-3.187-3.186h-2.022c-1.395,0-2.616,0.928-3.034,2.21c-0.418-1.283-1.638-2.21-3.032-2.21
		h-2.022C36.904,25.643,35.473,27.072,35.473,28.828z"/>
	<path fill="#0336ff" d="M57.018,33.682h-7.386v3.188c0,0.473-0.385,0.857-0.857,0.857h-2.022c-0.474,0-0.859-0.385-0.859-0.857
		v-3.188h-4.352v3.188c0,0.473-0.384,0.857-0.855,0.857h-2.022c-0.474,0-0.861-0.385-0.861-0.857v-3.188H6.151v14.416h7.383V44.91
		c0-0.474,0.386-0.859,0.859-0.859h2.022c0.473,0,0.858,0.386,0.858,0.859v3.188h4.353V44.91c0-0.474,0.384-0.859,0.857-0.859h2.022
		c0.473,0,0.858,0.386,0.858,0.859v3.188h31.654V33.682z M19.451,43.937c-0.417-1.286-1.638-2.215-3.035-2.215h-2.022
		c-1.758,0-3.188,1.43-3.188,3.188v0.858H8.48v-9.757h26.992v0.859c0,1.757,1.432,3.187,3.19,3.187h2.022
		c1.395,0,2.614-0.928,3.032-2.211c0.418,1.283,1.64,2.211,3.034,2.211h2.022c1.758,0,3.187-1.43,3.187-3.187v-0.859h2.728v9.757
		H27.693V44.91c0-1.759-1.43-3.188-3.188-3.188h-2.022C21.087,41.722,19.867,42.65,19.451,43.937z"/>
</g>
</svg>
