<?xml version="1.0" encoding="utf-8"?>
<!-- Generator: Adobe Illustrator 15.1.0, SVG Export Plug-In . SVG Version: 6.00 Build 0)  -->
<!DOCTYPE svg PUBLIC "-//W3C//DTD SVG 1.1//EN" "http://www.w3.org/Graphics/SVG/1.1/DTD/svg11.dtd">
<svg version="1.1" id="Layer_1" xmlns="http://www.w3.org/2000/svg" xmlns:xlink="http://www.w3.org/1999/xlink" x="0px" y="0px"
	 width="63px" height="75.084px" viewBox="0 0 63 75.084" enable-background="new 0 0 63 75.084" xml:space="preserve">
<g>
	<path fill="#355EFF" d="M0.083,71.896c0.001,1.761,1.428,3.188,3.188,3.188h56.625c1.761-0.001,3.188-1.428,3.188-3.188v-5.209
		H0.083V71.896z M59.896,72.754H3.271c-0.474,0-0.857-0.384-0.858-0.856v-2.883h58.343v2.883
		C60.754,72.37,60.371,72.753,59.896,72.754z M59.896,9.549h-2.022c-1.759,0.002-3.185,1.429-3.187,3.188v1.868h-20.93v-0.857
		c-0.001-1.76-1.426-3.186-3.186-3.188H28.55c-1.395,0-2.616,0.93-3.034,2.214c-0.43-1.313-1.651-2.205-3.033-2.214h-2.022
		c-1.382,0.009-2.604,0.9-3.034,2.213c-0.418-1.284-1.639-2.213-3.034-2.213H12.37c-1.759,0.002-3.184,1.429-3.185,3.188v0.857H8.48
		v-1.868c-0.001-1.759-1.427-3.186-3.187-3.188H3.271c-1.76,0.002-3.187,1.428-3.188,3.188v49.284H8.48v-9.924h2.725v0.854
		c0.001,1.76,1.428,3.187,3.188,3.188h2.022c1.396,0,2.617-0.931,3.035-2.216c0.417,1.285,1.637,2.216,3.033,2.216h2.022
		c1.76-0.003,3.186-1.429,3.188-3.188v-0.854h26.997v9.924h8.396V12.737C63.084,10.977,61.657,9.551,59.896,9.549z M25.363,49.767
		v3.186c0,0.474-0.384,0.857-0.858,0.859h-2.022c-0.473-0.002-0.856-0.387-0.857-0.859v-3.186h-4.353v3.186
		c0,0.474-0.384,0.857-0.858,0.859h-2.022c-0.474-0.001-0.858-0.385-0.859-0.859v-3.186H6.151v9.924H2.413V12.737
		c0.001-0.473,0.384-0.857,0.858-0.858h2.022c0.474,0.001,0.857,0.385,0.858,0.858v4.198h5.364v-3.187
		c0-0.474,0.383-0.858,0.855-0.858h2.023c0.473,0.001,0.857,0.384,0.858,0.858v3.187h4.352v-3.187c0-0.474,0.385-0.858,0.858-0.858
		h2.022c0.473,0,0.857,0.385,0.857,0.858v3.187h4.352v-3.187c0-0.474,0.384-0.858,0.857-0.858h2.022
		c0.473,0,0.857,0.385,0.857,0.858v3.187h25.587v-4.198c0-0.473,0.383-0.858,0.855-0.858h2.023c0.474,0,0.857,0.385,0.857,0.858
		V59.69h-3.738v-9.924H25.363z"/>
	<path fill="#355EFF" d="M37.802,28.828c0.003-0.474,0.388-0.856,0.861-0.856h2.022c0.472,0,0.854,0.385,0.854,0.856v3.188h4.353
		v-3.188c0-0.472,0.385-0.856,0.858-0.856h2.022c0.473,0,0.856,0.385,0.856,0.856v3.188h7.386V18.601H31.43v3.188
		c0,0.473-0.384,0.856-0.857,0.856H28.55c-0.473,0-0.856-0.383-0.857-0.856v-3.188h-4.352v3.188
		c-0.001,0.473-0.384,0.855-0.857,0.856h-2.022c-0.473,0-0.857-0.383-0.858-0.856v-3.188h-4.352v3.188
		c-0.001,0.473-0.385,0.856-0.858,0.856H12.37c-0.473,0-0.855-0.384-0.855-0.856v-3.188H6.151v13.415h31.65L37.802,28.828
		L37.802,28.828z M35.473,28.828v0.858H8.48V20.93h0.705v0.858c0.002,1.758,1.427,3.183,3.185,3.186h2.023
		c1.395,0,2.616-0.929,3.034-2.212c0.431,1.313,1.653,2.203,3.034,2.212h2.022c1.382-0.009,2.603-0.9,3.033-2.213
		c0.431,1.313,1.652,2.204,3.034,2.213h2.022c1.758-0.002,3.184-1.427,3.186-3.186V20.93h20.93v8.756H51.96v-0.858
		c-0.002-1.759-1.428-3.185-3.187-3.186h-2.022c-1.381,0.009-2.603,0.898-3.034,2.21c-0.432-1.312-1.651-2.201-3.031-2.21h-2.022
		C36.903,25.644,35.477,27.068,35.473,28.828z M57.018,33.682h-7.386v3.188c-0.001,0.473-0.384,0.856-0.856,0.857h-2.022
		c-0.474,0-0.857-0.384-0.858-0.857v-3.188h-4.353v3.188c0,0.473-0.382,0.856-0.854,0.857h-2.022c-0.474,0-0.859-0.383-0.86-0.857
		v-3.188H6.151v14.417h7.383V44.91c0-0.475,0.385-0.858,0.859-0.859h2.022c0.474,0.001,0.857,0.386,0.858,0.859v3.188h4.353V44.91
		c0-0.474,0.384-0.859,0.857-0.859h2.022c0.474,0.001,0.857,0.386,0.858,0.859v3.188h31.655V33.682L57.018,33.682z M19.451,43.937
		c-0.43-1.314-1.652-2.206-3.035-2.215h-2.022c-1.76,0.002-3.187,1.428-3.188,3.188v0.858H8.48v-9.758h26.993v0.859
		c0.002,1.76,1.43,3.186,3.189,3.188h2.021c1.381-0.01,2.602-0.899,3.032-2.211c0.433,1.311,1.653,2.202,3.034,2.211h2.021
		c1.76-0.002,3.186-1.428,3.188-3.188v-0.859h2.729v9.758H27.693V44.91c-0.001-1.761-1.428-3.187-3.188-3.188h-2.022
		C21.101,41.73,19.879,42.622,19.451,43.937z"/>
</g>
</svg>
