<?xml version="1.0" encoding="utf-8"?>
<!-- Generator: Adobe Illustrator 15.1.0, SVG Export Plug-In . SVG Version: 6.00 Build 0)  -->
<!DOCTYPE svg PUBLIC "-//W3C//DTD SVG 1.1//EN" "http://www.w3.org/Graphics/SVG/1.1/DTD/svg11.dtd">
<svg version="1.1" id="Layer_1" xmlns="http://www.w3.org/2000/svg" xmlns:xlink="http://www.w3.org/1999/xlink" x="0px" y="0px"
	 width="76.166px" height="68.959px" viewBox="0 0 76.166 68.959" enable-background="new 0 0 76.166 68.959" xml:space="preserve">
<path fill="#355EFF" d="M33.851,68.959l-0.995-0.149c-1.686-0.254-3.351-0.634-4.98-1.136l-0.937-0.289l-0.072-4.563
	c-1.758-0.693-3.448-1.549-5.047-2.556l-3.62,2.73l-0.812-0.604c-1.394-1.033-2.709-2.169-3.936-3.396l-0.691-0.691l2.067-4.093
	c-1.17-1.38-2.213-2.861-3.118-4.428l-4.466,0.735l-0.438-0.914c-0.771-1.609-1.417-3.275-1.933-4.983l-0.279-0.929l3.737-2.666
	c-0.366-1.67-0.589-3.368-0.667-5.076l-4.309-1.431l0.031-1.006c0.057-1.808,0.265-3.646,0.62-5.463l0.186-0.948l4.55-0.621
	c0.433-1.557,0.989-3.076,1.663-4.545L7.259,18.67l0.483-0.873c0.913-1.639,1.954-3.203,3.114-4.678l0.604-0.769l4.32,1.566
	c1.056-1.134,2.198-2.186,3.414-3.146l-1.282-4.376l0.824-0.551c1.578-1.059,3.24-1.984,4.971-2.768l0.891-0.4l3.091,3.377
	c1.437-0.515,2.909-0.922,4.406-1.22l0.912-4.489l0.97-0.115c1.888-0.219,3.79-0.281,5.688-0.185l0.986,0.049l1.156,4.411
	c1.537,0.195,3.058,0.509,4.547,0.939l2.903-3.567l0.912,0.348c1.755,0.667,3.452,1.472,5.078,2.409l0.862,0.5l-1.02,4.42
	c1.334,0.913,2.593,1.93,3.764,3.043l4.231-1.813l0.647,0.723c1.223,1.365,2.336,2.823,3.33,4.362l0.545,0.845l-2.953,3.446
	c0.811,1.505,1.49,3.076,2.035,4.696l4.58,0.363l0.235,0.94c0.433,1.717,0.738,3.488,0.906,5.266l0.096,1.008l-4.21,1.671
	c0.031,1.809-0.101,3.616-0.393,5.401l3.881,2.445l-0.238,0.947c-0.421,1.685-0.965,3.336-1.627,4.941l-0.387,0.932l-4.508-0.478
	c-0.854,1.686-1.861,3.288-3.012,4.787l2.289,3.948l-0.656,0.73c-1.139,1.27-2.371,2.452-3.687,3.537l-0.774,0.641l-3.771-2.523
	c-1.587,1.115-3.278,2.073-5.05,2.863l0.193,4.557l-0.944,0.332c-0.646,0.227-1.503,0.518-2.405,0.768
	c-0.815,0.224-1.639,0.418-2.468,0.582l-0.978,0.199l-2.182-4.004c-1.93,0.234-3.871,0.282-5.8,0.145L33.851,68.959z M29.609,65.366
	c0.875,0.238,1.764,0.441,2.663,0.607l1.881-3.99l0.953,0.1c2.319,0.24,4.693,0.184,7.018-0.173l0.938-0.142l2.119,3.891
	c0.877-0.199,1.744-0.439,2.598-0.723l-0.188-4.426l0.877-0.359c2.175-0.889,4.227-2.052,6.104-3.463l0.768-0.576l3.667,2.451
	c0.685-0.6,1.343-1.23,1.972-1.891l-2.229-3.845l0.594-0.724c1.459-1.783,2.689-3.74,3.662-5.828l0.407-0.871l4.385,0.464
	c0.331-0.876,0.626-1.775,0.884-2.688l-3.767-2.373l0.177-0.908c0.43-2.185,0.59-4.413,0.48-6.636L65.524,32.3l4.092-1.625
	c-0.124-0.98-0.293-1.955-0.504-2.92l-4.454-0.354L64.39,26.52c-0.618-2.041-1.47-4.004-2.537-5.85l-0.479-0.829l2.867-3.346
	c-0.589-0.85-1.219-1.671-1.886-2.461l-4.109,1.76l-0.645-0.65c-1.439-1.453-3.035-2.741-4.76-3.84l-0.807-0.513l0.994-4.304
	c-0.948-0.507-1.922-0.968-2.916-1.381L47.291,8.57l-0.879-0.285c-1.886-0.608-3.831-1.01-5.804-1.198l-0.94-0.09l-1.121-4.29
	C37.45,2.686,36.353,2.72,35.26,2.812l-0.885,4.359l-0.914,0.155c-0.966,0.162-1.923,0.374-2.867,0.635
	C29.663,8.22,28.723,8.534,27.8,8.895l-0.863,0.337l-3.002-3.28c-0.984,0.484-1.941,1.018-2.87,1.601l1.246,4.254l-0.758,0.561
	c-1.595,1.179-3.058,2.526-4.364,4.018l-0.608,0.695l-4.19-1.52c-0.641,0.865-1.238,1.761-1.791,2.685l3.06,3.18l-0.424,0.852
	c-0.91,1.832-1.617,3.758-2.106,5.744l-0.219,0.891l-4.423,0.604c-0.168,1.021-0.287,2.049-0.354,3.082l4.192,1.392l0.011,0.962
	c0.025,2.106,0.303,4.233,0.826,6.321l0.223,0.893L7.752,44.76c0.313,0.935,0.671,1.858,1.07,2.763l4.343-0.713l0.456,0.853
	c1.05,1.963,2.335,3.791,3.827,5.442l0.62,0.688l-2.006,3.974c0.686,0.646,1.399,1.264,2.139,1.85l3.519-2.655l0.799,0.538
	c1.91,1.289,3.973,2.335,6.141,3.113l0.88,0.314L29.609,65.366z M38.013,55.526c-9.278,0-17.492-6.254-19.974-15.207
	c-1.484-5.299-0.786-10.97,1.939-15.75c2.698-4.796,7.203-8.314,12.511-9.768c1.807-0.501,3.672-0.757,5.547-0.758
	c9.277,0,17.488,6.25,19.969,15.199c3.055,11.021-3.424,22.471-14.439,25.523C41.757,55.27,39.89,55.524,38.013,55.526z
	 M38.036,16.745c-1.631,0.001-3.254,0.223-4.826,0.66c-4.616,1.265-8.535,4.324-10.882,8.496c-2.369,4.157-2.977,9.089-1.687,13.698
	c2.159,7.787,9.302,13.227,17.371,13.227c1.624,0,3.249-0.223,4.831-0.66c9.58-2.654,15.215-12.613,12.559-22.2
	C53.245,22.181,46.104,16.745,38.036,16.745z"/>
</svg>
