<?xml version="1.0" encoding="utf-8"?>
<!-- Generator: Adobe Illustrator 15.1.0, SVG Export Plug-In . SVG Version: 6.00 Build 0)  -->
<!DOCTYPE svg PUBLIC "-//W3C//DTD SVG 1.1//EN" "http://www.w3.org/Graphics/SVG/1.1/DTD/svg11.dtd">
<svg version="1.1" id="Layer_1" xmlns="http://www.w3.org/2000/svg" xmlns:xlink="http://www.w3.org/1999/xlink" x="0px" y="0px"
	 width="74.695px" height="72.346px" viewBox="0 0 74.695 72.346" enable-background="new 0 0 74.695 72.346" xml:space="preserve">
<g>
	<path fill="#0336ff" d="M28.575,23.283c2.303,1.998,5.361,3.098,8.61,3.098c5.375,0,10.232-2.824,12.373-7.193
		c2.163-4.415,2.056-8.929-0.302-12.711c-2.508-4.021-7.199-6.619-11.951-6.619c-0.478,0-0.964,0.028-1.446,0.085
		c-5.282,0.625-9.561,4.259-11.167,9.481C23.121,14.532,24.61,19.843,28.575,23.283z M37.305,2.172c3.911,0,7.925,2.223,9.988,5.53
		c1.358,2.179,2.493,5.764,0.188,10.468c-1.729,3.528-5.867,5.898-10.296,5.898c-2.694,0-5.213-0.899-7.094-2.532
		c-3.264-2.832-4.485-7.212-3.188-11.433c1.333-4.334,4.869-7.347,9.229-7.863C36.513,2.195,36.908,2.172,37.305,2.172z"/>
	<path fill="#0336ff" d="M30.021,37.925c2.322,0.969,4.723,1.972,7.167,2.889l0.427,0.16l0.422-0.174
		c1.367-0.566,2.725-1.141,4.083-1.715c4.233-1.79,8.611-3.641,13.167-5.187l1.212-0.412l-0.531-1.166
		c-1.169-2.559-4.516-4.305-8.952-4.67c-3.774-0.309-7.078-0.459-10.101-0.459c-9.887,0-15.736,1.631-17.882,4.987l-0.802,1.252
		l1.412,0.468C23.224,35.089,26.665,36.525,30.021,37.925z M36.915,29.506c2.96,0,6.202,0.148,9.911,0.453
		c2.677,0.219,4.988,1.059,6.25,2.259c-4.13,1.466-8.057,3.129-11.856,4.737L40.638,37.2c-1.02,0.431-2.04,0.861-3.064,1.287
		c-2.268-0.862-4.502-1.795-6.674-2.703c-2.841-1.186-5.776-2.411-8.829-3.495C23.811,30.984,27.795,29.506,36.915,29.506z"/>
	<path fill="#0336ff" d="M54.175,50.575c-0.002-3.147,1.669-6.64,5.343-6.87l1.085-0.069V32.94l-1.531,0.523
		c-3.85,1.315-7.538,2.823-11.105,4.282l-0.113,0.046c-3.395,1.386-6.903,2.818-10.508,4.065c-3.088-1.155-6.122-2.391-9.056-3.586
		c-4.007-1.633-8.152-3.321-12.433-4.805l-1.536-0.534v10.707l1.086,0.067c3.673,0.223,5.345,3.708,5.345,6.853
		c0,3.237-1.653,6.604-5.344,6.829l-1.087,0.064v6.181l0.785,0.267c3.002,1.018,5.882,2.199,8.931,3.45l1.931,0.789
		c0.685,0.279,1.584,0.7,2.628,1.188c3.174,1.482,6.772,3.162,8.954,3.162h0.002l0.059-0.002c1.216-0.016,2.6-0.707,3.938-1.375
		l-0.063-0.126l0.098,0.109c0.629-0.313,1.223-0.609,1.761-0.817c1.803-0.701,3.529-1.38,5.219-2.043l0.192-0.076
		c3.556-1.399,7.232-2.847,11.091-4.271l0.757-0.278v-6.158l-1.086-0.064C55.831,57.16,54.177,53.802,54.175,50.575z M23.065,50.56
		c0-3.887-1.989-8.163-6.432-9.026v-5.339c3.746,1.351,7.481,2.873,10.783,4.219c3.084,1.256,6.274,2.555,9.51,3.756l0.386,0.143
		l0.39-0.134c3.861-1.317,7.562-2.829,11.14-4.292c3.049-1.246,6.2-2.534,9.447-3.698v5.346c-4.444,0.869-6.431,5.153-6.427,9.043
		c0.002,3.865,1.991,8.121,6.427,8.981v2.439c-3.483,1.294-6.766,2.585-10.239,3.95l-0.142,0.056
		c-1.747,0.688-3.534,1.391-5.403,2.117c-0.644,0.25-1.323,0.589-1.982,0.917c-1.056,0.528-2.251,1.126-2.944,1.136h-0.029
		c-1.674,0-5.317-1.703-7.978-2.945c-1.068-0.5-1.991-0.932-2.732-1.231l-1.868-0.766c-2.701-1.109-5.494-2.256-8.338-3.253v-2.42
		C21.074,58.698,23.065,54.434,23.065,50.56z"/>
	<path fill="#0336ff" d="M65.595,40.114l-1.952-1.854v5.089c-4.753,0.603-6.392,3.999-6.348,6.743
		c0.06,3.622,2.852,7.499,6.913,7.499c1.778,0,3.567-0.724,5.318-2.151c1.576-1.285,2.409-2.846,2.477-4.64
		C72.153,46.815,68.418,42.792,65.595,40.114z M68.064,53.646c-1.325,1.083-2.622,1.632-3.855,1.632c-2.699,0-4.558-2.701-4.6-5.224
		c-0.044-2.698,1.91-4.373,5.229-4.481l1.117-0.038v-1.785c2.516,2.722,3.806,5.125,3.736,6.966
		C69.651,51.829,69.118,52.787,68.064,53.646z"/>
	<path fill="#0336ff" d="M17.399,50.091c0.045-2.744-1.593-6.141-6.347-6.743v-5.089l-1.953,1.854
		c-2.823,2.679-6.558,6.701-6.408,10.686c0.067,1.794,0.9,3.355,2.477,4.64c1.75,1.428,3.54,2.151,5.319,2.151
		C14.547,57.59,17.339,53.713,17.399,50.091z M10.487,55.278c-1.233,0-2.531-0.549-3.857-1.633c-1.053-0.857-1.585-1.815-1.627-2.93
		c-0.07-1.867,1.186-4.209,3.736-6.966v1.785l1.119,0.038c3.318,0.108,5.273,1.783,5.229,4.481
		C15.044,52.576,13.186,55.278,10.487,55.278z"/>
</g>
</svg>
