<?xml version="1.0" encoding="utf-8"?>
<!-- Generator: Adobe Illustrator 15.1.0, SVG Export Plug-In . SVG Version: 6.00 Build 0)  -->
<!DOCTYPE svg PUBLIC "-//W3C//DTD SVG 1.1//EN" "http://www.w3.org/Graphics/SVG/1.1/DTD/svg11.dtd">
<svg version="1.1" id="Layer_1" xmlns="http://www.w3.org/2000/svg" xmlns:xlink="http://www.w3.org/1999/xlink" x="0px" y="0px"
	 width="74.695px" height="72.346px" viewBox="0 0 74.695 72.346" enable-background="new 0 0 74.695 72.346" xml:space="preserve">
<g>
	<path fill="#355EFF" d="M28.575,23.283c2.303,1.998,5.361,3.098,8.61,3.098c5.375,0,10.231-2.824,12.373-7.193
		c2.163-4.415,2.056-8.929-0.303-12.711c-2.508-4.021-7.198-6.619-11.95-6.619c-0.479,0-0.965,0.028-1.446,0.085
		c-5.282,0.625-9.562,4.26-11.167,9.481C23.121,14.532,24.61,19.843,28.575,23.283z M37.305,2.172c3.91,0,7.925,2.223,9.987,5.53
		c1.358,2.179,2.493,5.764,0.188,10.468c-1.729,3.528-5.867,5.897-10.296,5.897c-2.694,0-5.213-0.898-7.095-2.531
		c-3.264-2.832-4.484-7.212-3.188-11.434c1.333-4.334,4.869-7.347,9.229-7.862C36.513,2.195,36.908,2.172,37.305,2.172z
		 M30.021,37.925c2.321,0.969,4.723,1.972,7.167,2.889l0.427,0.16l0.422-0.174c1.367-0.566,2.726-1.141,4.083-1.715
		c4.233-1.79,8.611-3.642,13.167-5.188l1.212-0.412l-0.531-1.166c-1.169-2.559-4.516-4.305-8.951-4.67
		c-3.774-0.309-7.078-0.459-10.102-0.459c-9.887,0-15.735,1.632-17.882,4.987l-0.802,1.252l1.412,0.468
		C23.224,35.089,26.665,36.525,30.021,37.925z M36.915,29.506c2.96,0,6.202,0.147,9.911,0.453c2.677,0.219,4.988,1.059,6.25,2.259
		c-4.13,1.466-8.057,3.129-11.855,4.737L40.638,37.2c-1.021,0.431-2.04,0.86-3.064,1.286c-2.268-0.861-4.502-1.795-6.674-2.702
		c-2.841-1.187-5.776-2.411-8.829-3.495C23.811,30.984,27.795,29.506,36.915,29.506z"/>
	<path fill="#355EFF" d="M54.175,50.575c-0.002-3.147,1.67-6.641,5.344-6.87l1.085-0.069V32.94l-1.531,0.523
		c-3.85,1.314-7.538,2.823-11.105,4.282l-0.112,0.046c-3.396,1.386-6.903,2.817-10.508,4.064c-3.089-1.154-6.122-2.391-9.057-3.586
		c-4.007-1.633-8.151-3.32-12.433-4.805l-1.536-0.534v10.707l1.086,0.067c3.673,0.223,5.345,3.708,5.345,6.853
		c0,3.237-1.652,6.604-5.344,6.829l-1.087,0.064v6.181l0.785,0.267c3.002,1.019,5.882,2.199,8.931,3.45l1.931,0.789
		c0.686,0.279,1.584,0.7,2.629,1.188c3.174,1.481,6.771,3.162,8.953,3.162h0.003l0.059-0.003c1.216-0.016,2.6-0.707,3.938-1.375
		l-0.063-0.126l0.098,0.109c0.629-0.313,1.224-0.609,1.762-0.817c1.803-0.7,3.528-1.38,5.219-2.043l0.191-0.075
		c3.557-1.399,7.232-2.848,11.092-4.271l0.757-0.278v-6.157l-1.086-0.064C55.831,57.16,54.177,53.802,54.175,50.575z M23.065,50.56
		c0-3.887-1.989-8.163-6.433-9.025v-5.34c3.746,1.352,7.481,2.873,10.783,4.22c3.084,1.256,6.274,2.555,9.51,3.756l0.387,0.143
		l0.39-0.134c3.861-1.317,7.563-2.829,11.14-4.292c3.05-1.246,6.2-2.534,9.447-3.698v5.347c-4.443,0.868-6.431,5.152-6.427,9.043
		c0.002,3.864,1.991,8.121,6.427,8.98v2.439c-3.482,1.294-6.766,2.585-10.239,3.95l-0.142,0.056
		c-1.747,0.688-3.534,1.391-5.403,2.117c-0.644,0.25-1.322,0.589-1.981,0.917c-1.057,0.527-2.251,1.126-2.944,1.136H37.55
		c-1.674,0-5.316-1.703-7.978-2.945c-1.068-0.5-1.991-0.932-2.732-1.23l-1.867-0.767c-2.701-1.108-5.494-2.256-8.339-3.253v-2.42
		C21.074,58.698,23.065,54.434,23.065,50.56z"/>
	<path fill="#355EFF" d="M65.595,40.115l-1.952-1.854v5.089c-4.753,0.604-6.393,3.999-6.349,6.743
		c0.061,3.622,2.853,7.499,6.913,7.499c1.778,0,3.567-0.724,5.318-2.151c1.576-1.284,2.409-2.846,2.477-4.64
		C72.153,46.815,68.418,42.792,65.595,40.115z M68.064,53.646c-1.325,1.083-2.622,1.632-3.855,1.632c-2.699,0-4.558-2.7-4.6-5.224
		c-0.044-2.698,1.91-4.373,5.229-4.48l1.117-0.038V43.75c2.517,2.722,3.807,5.125,3.736,6.966
		C69.651,51.829,69.118,52.787,68.064,53.646z M17.399,50.091c0.045-2.744-1.593-6.141-6.347-6.743v-5.089l-1.953,1.854
		c-2.823,2.68-6.559,6.701-6.408,10.687c0.066,1.794,0.899,3.354,2.477,4.64c1.75,1.429,3.54,2.151,5.319,2.151
		C14.547,57.59,17.339,53.713,17.399,50.091z M10.487,55.278c-1.233,0-2.531-0.549-3.857-1.633c-1.053-0.856-1.585-1.814-1.627-2.93
		c-0.069-1.867,1.187-4.209,3.736-6.966v1.785l1.119,0.038c3.317,0.107,5.272,1.782,5.229,4.48
		C15.044,52.576,13.186,55.278,10.487,55.278z"/>
</g>
</svg>
