<?xml version="1.0" encoding="utf-8"?>
<!-- Generator: Adobe Illustrator 15.1.0, SVG Export Plug-In . SVG Version: 6.00 Build 0)  -->
<!DOCTYPE svg PUBLIC "-//W3C//DTD SVG 1.1//EN" "http://www.w3.org/Graphics/SVG/1.1/DTD/svg11.dtd">
<svg version="1.1" id="Layer_1" xmlns="http://www.w3.org/2000/svg" xmlns:xlink="http://www.w3.org/1999/xlink" x="0px" y="0px"
	 width="76.166px" height="68.959px" viewBox="0 0 76.166 68.959" enable-background="new 0 0 76.166 68.959" xml:space="preserve">
<g>
	<path fill="#0336ff" d="M33.851,68.959l-0.995-0.149c-1.69-0.255-3.366-0.638-4.98-1.136l-0.937-0.289l-0.072-4.563
		c-1.75-0.689-3.441-1.545-5.047-2.555l-3.62,2.73l-0.812-0.603c-1.387-1.027-2.711-2.172-3.936-3.397l-0.691-0.691l2.067-4.093
		c-1.169-1.378-2.213-2.861-3.118-4.428L7.244,50.52l-0.438-0.914c-0.77-1.61-1.421-3.286-1.933-4.983l-0.279-0.928l3.737-2.666
		c-0.368-1.682-0.591-3.381-0.667-5.077l-4.309-1.431l0.031-1.006c0.057-1.808,0.265-3.646,0.62-5.463l0.186-0.948l4.55-0.621
		c0.435-1.562,0.992-3.084,1.663-4.545l-3.146-3.268l0.483-0.873c0.891-1.606,1.938-3.18,3.114-4.678l0.604-0.769l4.32,1.566
		c1.054-1.133,2.198-2.186,3.414-3.146l-1.282-4.376l0.824-0.551c1.619-1.082,3.292-2.013,4.971-2.768l0.891-0.4l3.091,3.377
		c0.726-0.26,1.457-0.492,2.184-0.693c0.724-0.201,1.468-0.378,2.222-0.527l0.912-4.489l0.97-0.115
		c1.854-0.219,3.791-0.28,5.688-0.185l0.987,0.049l1.156,4.411c1.546,0.196,3.067,0.512,4.546,0.939l2.904-3.567l0.912,0.348
		c1.778,0.678,3.486,1.488,5.078,2.409l0.863,0.5l-1.02,4.42c1.32,0.901,2.58,1.92,3.764,3.043l4.231-1.813l0.647,0.723
		c1.242,1.389,2.361,2.856,3.331,4.362l0.545,0.845l-2.953,3.446c0.808,1.5,1.488,3.074,2.035,4.696l4.58,0.363l0.235,0.94
		c0.433,1.717,0.738,3.488,0.906,5.266l0.096,1.008l-4.21,1.671c0.031,1.808-0.101,3.617-0.393,5.401l3.881,2.445l-0.238,0.947
		c-0.425,1.697-0.972,3.359-1.627,4.942l-0.387,0.932l-4.508-0.478c-0.857,1.692-1.867,3.296-3.011,4.787l2.288,3.949l-0.655,0.73
		c-1.128,1.259-2.368,2.449-3.687,3.537l-0.774,0.64l-3.771-2.523c-1.581,1.111-3.272,2.07-5.05,2.863l0.194,4.557l-0.945,0.332
		c-0.646,0.227-1.502,0.518-2.405,0.768c-0.738,0.204-1.521,0.39-2.468,0.581l-0.978,0.2l-2.181-4.004
		c-1.93,0.234-3.871,0.282-5.8,0.144L33.851,68.959z M29.609,65.366c0.875,0.239,1.764,0.442,2.663,0.607l1.881-3.989l0.953,0.099
		c2.319,0.24,4.693,0.184,7.018-0.173l0.938-0.142l2.118,3.891c0.473-0.108,0.901-0.216,1.313-0.33
		c0.444-0.123,0.882-0.259,1.285-0.392l-0.187-4.426l0.877-0.36c2.187-0.895,4.24-2.059,6.104-3.463l0.767-0.576l3.667,2.452
		c0.687-0.604,1.346-1.234,1.971-1.891l-2.228-3.845l0.594-0.724c1.45-1.768,2.682-3.729,3.662-5.828l0.407-0.871l4.385,0.464
		c0.331-0.876,0.626-1.775,0.883-2.688l-3.766-2.374l0.177-0.908c0.429-2.183,0.59-4.415,0.48-6.636L65.524,32.3l4.092-1.625
		c-0.125-0.982-0.292-1.958-0.504-2.92l-4.454-0.354l-0.268-0.881c-0.62-2.046-1.475-4.014-2.538-5.85l-0.479-0.829l2.867-3.346
		c-0.58-0.838-1.211-1.662-1.886-2.461l-4.109,1.76L57.6,15.144c-1.461-1.471-3.062-2.763-4.759-3.84l-0.807-0.513l0.995-4.304
		c-0.937-0.502-1.913-0.964-2.917-1.381L47.291,8.57l-0.879-0.285c-1.864-0.604-3.816-1.007-5.804-1.198l-0.94-0.09l-1.121-4.29
		c-1.096-0.021-2.205,0.013-3.287,0.105l-0.885,4.359l-0.914,0.155c-0.976,0.165-1.94,0.378-2.867,0.635
		C29.663,8.22,28.723,8.534,27.8,8.895l-0.863,0.337l-3.002-3.28c-0.965,0.473-1.924,1.009-2.87,1.601l1.246,4.254l-0.758,0.561
		c-1.593,1.178-3.061,2.529-4.364,4.018l-0.608,0.695l-4.19-1.52c-0.647,0.875-1.246,1.773-1.791,2.685l3.06,3.18l-0.424,0.852
		c-0.905,1.816-1.613,3.749-2.106,5.744l-0.219,0.891l-4.423,0.604c-0.169,1.028-0.288,2.058-0.354,3.082l4.192,1.392l0.011,0.962
		c0.025,2.107,0.303,4.233,0.826,6.322l0.223,0.892l-3.634,2.593c0.313,0.935,0.671,1.858,1.07,2.763l4.343-0.714l0.456,0.853
		c1.05,1.964,2.338,3.795,3.827,5.443l0.62,0.688l-2.006,3.973c0.686,0.647,1.401,1.267,2.139,1.85l3.519-2.655l0.799,0.538
		c1.921,1.295,3.987,2.342,6.141,3.113l0.88,0.315L29.609,65.366z M38.013,55.526L38.013,55.526
		c-9.278,0-17.492-6.253-19.974-15.207c-1.479-5.337-0.79-10.93,1.939-15.749c2.729-4.821,7.173-8.29,12.511-9.768
		c1.814-0.503,3.681-0.758,5.547-0.758c9.277,0,17.488,6.25,19.969,15.199c3.055,11.021-3.424,22.471-14.44,25.524
		C41.749,55.271,39.881,55.526,38.013,55.526z M38.036,16.745c-1.622,0-3.246,0.222-4.826,0.66
		c-4.644,1.287-8.508,4.304-10.882,8.496c-2.373,4.191-2.973,9.056-1.687,13.697c2.159,7.788,9.302,13.227,17.371,13.227
		c1.624,0,3.249-0.222,4.831-0.66c9.58-2.654,15.214-12.613,12.559-22.2C53.245,22.181,46.104,16.745,38.036,16.745z"/>
</g>
</svg>
