<?xml version="1.0" encoding="utf-8"?>
<!-- Generator: Adobe Illustrator 15.1.0, SVG Export Plug-In . SVG Version: 6.00 Build 0)  -->
<!DOCTYPE svg PUBLIC "-//W3C//DTD SVG 1.1//EN" "http://www.w3.org/Graphics/SVG/1.1/DTD/svg11.dtd">
<svg version="1.1" id="Layer_1" xmlns="http://www.w3.org/2000/svg" xmlns:xlink="http://www.w3.org/1999/xlink" x="0px" y="0px"
	 width="187px" height="122px" viewBox="-0.178 -12.788 187 122" enable-background="new -0.178 -12.788 187 122"
	 xml:space="preserve">
<g>
	<path fill="#00BCD4" d="M178.221-11.417c-1.261,0.18-2.492,0.196-3.653,0H5.101C3.506-6.051,2.372-0.485,1.772,5.241v9.881h0.02
		c-0.001,0.188-0.02,0.37-0.02,0.559c0,28.486,12.969,53.941,33.321,70.791c15.964,13.111,36.392,20.985,58.661,20.985
		c11.12,0,21.783-1.966,31.656-5.563c35.079-12.933,60.089-46.65,60.089-86.213c0-0.077,0.14-4.504,0.304-9.758
		c-0.581-5.965-1.734-11.762-3.392-17.34H178.221z"/>
	<path fill="#00BCD4" d="M178.221-11.417h-3.653C175.729-11.221,176.96-11.237,178.221-11.417z"/>
	<g>
		<g>
			<g>
				<g>
					<g>
						<g>
							<defs>
								<path id="SVGID_1_" d="M4.743-5.921C3.02,1.119,2.08,8.467,2.08,16.035c0,50.734,41.128,91.862,91.86,91.862
									c50.742,0,91.866-41.128,91.866-91.862c0-7.566-0.939-14.915-2.665-21.956H4.743z"/>
							</defs>
							<clipPath id="SVGID_2_">
								<use xlink:href="#SVGID_1_"  overflow="visible"/>
							</clipPath>
							<path clip-path="url(#SVGID_2_)" fill="#E1F5FE" d="M22.568,84.935c-4.884-6.324-6.853-13.977-6.114-21.344
								c-1.814-0.581-3.478-1.692-4.732-3.313c-3.292-4.258-2.508-10.376,1.75-13.669c1.551-1.202,3.353-1.85,5.17-1.998
								c-1.346-4.445,0.079-9.45,3.97-12.462c3.129-2.417,7.103-2.971,10.601-1.843c0.475-0.749,1.08-1.435,1.819-2.006
								c3.403-2.633,8.305-2.006,10.935,1.4c0.076,0.091,0.134,0.186,0.196,0.284c0.129-0.111,0.25-0.227,0.386-0.331
								c3.764-2.904,9.167-2.212,12.073,1.545c1.658,2.146,2.139,4.82,1.559,7.269c2.649-0.07,5.294,1.072,7.042,3.329
								c0.17,0.223,0.326,0.448,0.473,0.679c2.97-2.104,7.089-1.517,9.339,1.396c1.627,2.11,1.825,4.874,0.736,7.127
								c3.043-0.389,6.208,0.791,8.215,3.389C89,58.291,88.285,63.9,84.379,66.914c-1.344,1.045-2.902,1.63-4.477,1.805
								c1.25,0.671,2.384,1.598,3.31,2.792c3.508,4.551,2.675,11.074-1.87,14.591c-2.872,2.222-6.538,2.689-9.733,1.6
								c0.089,3.017-1.199,6.033-3.769,8.018c-3.791,2.931-9.05,2.618-12.484-0.488C43.693,98.893,30.486,95.174,22.568,84.935z"/>
						</g>
					</g>
				</g>
			</g>
		</g>
	</g>
	<path fill="#FFFFFF" d="M103.399,44.659c5.121,4.578,7.992,10.739,8.524,17.088c1.627,0.208,3.212,0.887,4.524,2.06
		c3.454,3.084,3.75,8.382,0.668,11.838c-1.124,1.259-2.547,2.089-4.061,2.501c1.837,3.547,1.42,8.003-1.398,11.164
		c-2.266,2.537-5.537,3.629-8.675,3.223c-0.283,0.709-0.688,1.384-1.222,1.981c-2.465,2.761-6.709,3.003-9.467,0.536
		c-0.077-0.067-0.144-0.136-0.211-0.208c-0.093,0.113-0.175,0.231-0.272,0.338c-2.728,3.049-7.406,3.312-10.455,0.591
		c-1.741-1.554-2.567-3.739-2.461-5.903c-2.229,0.478-4.648-0.072-6.477-1.711c-0.181-0.159-0.347-0.326-0.509-0.497
		c-2.18,2.245-5.755,2.396-8.115,0.286c-1.71-1.526-2.31-3.835-1.743-5.913c-2.512,0.809-5.372,0.306-7.482-1.572
		c-3.163-2.828-3.439-7.687-0.609-10.849c0.974-1.095,2.199-1.834,3.505-2.229c-1.16-0.372-2.267-0.978-3.234-1.84
		c-3.682-3.297-4.004-8.945-0.714-12.636c2.08-2.328,5.106-3.301,7.979-2.882c-0.548-2.539,0.07-5.292,1.93-7.372
		c2.742-3.073,7.238-3.635,10.631-1.548C83.341,36.175,95.094,37.245,103.399,44.659z"/>
	<g>
		<path fill="#FF7043" d="M87.426,22.892c-8.927-2.617-21.735-0.171-26.718,2.972c-4.343,2.744-8.37,5.824-11.188,12.17
			c5.298-0.384,7.041-1.642,15.02-0.82c5.547,0.574,9.156,1.996,11.853,3.874C78.042,34.589,85.432,26.295,87.426,22.892z"/>
		<path fill="#EC1C24" d="M112.073,51.882c1.189,9.224-3.856,20.86-7.735,25.294c-3.394,3.858-7.071,7.355-13.769,9.148
			c1.208-5.173,2.724-6.698,3.157-14.716c0.304-5.568-0.542-9.351-1.976-12.314C105.269,56.22,108.081,53.988,112.073,51.882z"/>
		<path fill="#EC1C24" d="M72.465,45.006c-0.947,0.766-1.315,1.877-0.823,2.49L82.478,60.94c0.495,0.61,1.665,0.489,2.609-0.278l0,0
			c0.951-0.763,1.317-1.879,0.824-2.496L75.071,44.72C74.578,44.118,73.412,44.241,72.465,45.006L72.465,45.006z"/>
		<path fill="#FAFAFA" d="M101.489,8.225c26.024-19.298,54.358-15.301,54.358-15.301c-0.016,0.427-2.765,29.72-27.869,49.81
			c-16.49,13.127-18.403,13.025-25.489,15.752c-11.279,4.348-15.95,2.123-21.535-4.86c-0.361-0.455-0.712-0.9-1.049-1.34
			l0.065-0.051c-0.334-0.42-0.669-0.864-1.009-1.32c-5.322-7.179-6.396-12.199,0.683-22.005
			C84.086,22.763,84.589,20.819,101.489,8.225z"/>
		<path fill="#D9E0E3" d="M79.614,51.954l76.25-58.716c-0.167,1.865-3.492,30.14-27.994,49.637
			c-16.521,13.078-18.447,12.979-25.526,15.692c-11.3,4.315-15.96,2.071-21.525-4.918c-0.364-0.453-0.71-0.901-1.043-1.347
			l0.059-0.051C79.768,52.155,79.69,52.048,79.614,51.954z"/>
		<path fill="#FFA270" d="M133.175,10.146c-4.142-5.055-9.393-9.052-15.045-11.357c19.272-8.013,37.704-5.805,37.704-5.805
			c-0.022,0.323-3.076,20.428-14.39,35.639C140.45,22.149,137.619,15.578,133.175,10.146z"/>
		<path fill="#FF7043" d="M135.522,8.167c-3.956-4.82-8.735-8.342-14.09-10.668c18.865-6.897,34.566-4.71,34.566-4.71
			c-0.008,0.314-1.57,16.432-12.489,32.892C142.418,19.466,139.803,13.387,135.522,8.167z"/>
		<path fill="#80DEEA" d="M119.51,13.94c4.435,0,8.032,3.599,8.032,8.036c0,4.436-3.598,8.034-8.032,8.034
			c-4.439,0-8.035-3.598-8.035-8.034C111.475,17.538,115.071,13.94,119.51,13.94z"/>
		<path fill="#F05A22" d="M155.925-6.92c-0.016,0.323-3.096,20.434-14.438,35.621c-0.971-6.372-3.732-12.839-8.048-18.231
			L155.925-6.92z"/>
		<path fill="#EC1C24" d="M156.027-7.193c-0.014,0.314-1.527,16.512-12.479,32.952c-1.056-6.073-3.647-12.093-7.749-17.241
			L156.027-7.193z"/>
		<path fill="#B4FFFF" d="M112.803,26.688c-0.84-1.272-1.325-2.791-1.325-4.428c0-4.438,3.597-8.036,8.032-8.036
			c2.383,0,4.521,1.039,5.992,2.684L112.803,26.688z"/>
		<path fill="#F05A22" d="M119.513,14.798c1.928,0,3.783,0.775,5.169,2.164c1.393,1.39,2.169,3.238,2.169,5.173
			c0,1.925-0.776,3.783-2.169,5.17c-1.386,1.39-3.236,2.162-5.169,2.162c-1.923,0-3.782-0.772-5.175-2.162
			c-1.385-1.389-2.158-3.244-2.158-5.17c0-1.931,0.773-3.784,2.158-5.173C115.733,15.57,117.586,14.798,119.513,14.798
			 M119.513,12.482c-2.466,0-4.94,0.926-6.788,2.856c-3.785,3.783-3.785,9.88,0,13.656c1.848,1.855,4.322,2.856,6.788,2.856
			c2.469,0,4.941-0.923,6.792-2.856c3.78-3.78,3.78-9.878,0-13.656C124.454,13.41,121.982,12.482,119.513,12.482L119.513,12.482z"/>
		<path fill="#F6921E" d="M124.847,17.127c-0.06-0.057-0.111-0.118-0.167-0.166c-1.387-1.391-3.237-2.166-5.17-2.166
			c-1.925,0-3.781,0.775-5.174,2.166c-1.385,1.39-2.158,3.239-2.158,5.173c0,1.379,0.391,2.717,1.124,3.879l-1.848,1.432
			c-2.451-3.745-2.033-8.807,1.267-12.1c1.848-1.931,4.322-2.856,6.788-2.856c2.47,0,4.941,0.926,6.792,2.856
			c0.128,0.123,0.252,0.253,0.369,0.384L124.847,17.127z"/>
		<g>
			<path fill="#FFC107" d="M78.288,53.364c-5.658-7.695-10.385-6.039-15.935-3.025c-13.991,7.609-21.297,32.336-21.297,32.336l0,0
				L78.288,53.364L78.288,53.364z"/>
			<path fill="#FFC107" d="M78.288,53.364L78.288,53.364l-37.23,29.311v0.002c0,0,25.75-1.296,36.428-13.108
				C81.728,64.877,84.437,60.669,78.288,53.364z"/>
		</g>
		<g>
			<path fill="#FFF280" d="M78.288,53.36c-4.241-5.771-7.786-4.534-11.948-2.267c-10.497,5.706-15.974,24.254-15.974,24.254l0,0
				L78.288,53.36L78.288,53.36z"/>
			<path fill="#FFF280" d="M78.291,53.36L50.369,75.343l-0.002,0.004c0,0,19.317-0.971,27.325-9.83
				C80.867,61.997,82.904,58.84,78.291,53.36z"/>
		</g>
		<path fill="#EC1C24" d="M68.871,60.723c1.409,0.161,10.627,0.809,21.247-8.319c10.542-9.139,13.756-18.184,14.24-19.699
			L68.871,60.723z"/>
		<path fill="#FF7043" d="M68.865,60.713c0.167-1.409,1.675-10.524,13.016-18.737c11.333-8.141,20.872-9.162,22.47-9.286
			L68.865,60.713z"/>
	</g>
	<path fill="none" stroke="#FFF280" stroke-width="1.4173" stroke-miterlimit="10" d="M6.942-13.893"/>
	<path fill="#00BCD4" d="M180.694-11.061c2.402,8.254,3.628,16.774,3.628,25.386c0,50.108-40.765,90.874-90.875,90.874
		c-50.107,0-90.873-40.766-90.873-90.874c0-8.615,1.23-17.14,3.627-25.386H3.456C1.128-2.805-0.053,5.718-0.053,14.325
		c0,51.557,41.945,93.5,93.5,93.5c51.556,0,93.5-41.943,93.5-93.5c0-8.607-1.197-17.122-3.532-25.386H180.694z"/>
</g>
</svg>
