<?xml version="1.0" encoding="utf-8"?>
<!-- Generator: Adobe Illustrator 15.1.0, SVG Export Plug-In . SVG Version: 6.00 Build 0)  -->
<!DOCTYPE svg PUBLIC "-//W3C//DTD SVG 1.1//EN" "http://www.w3.org/Graphics/SVG/1.1/DTD/svg11.dtd">
<svg version="1.1" id="Layer_1" xmlns="http://www.w3.org/2000/svg" xmlns:xlink="http://www.w3.org/1999/xlink" x="0px" y="0px"
	 width="132px" height="83px" viewBox="-15.166 0.492 132 83" enable-background="new -15.166 0.492 132 83" xml:space="preserve">
<g>
	<path fill="#00BCD4" d="M-13.425,0.278c-0.803,3.113-1.398,6.309-1.741,9.583v7.088h0.013c0,0.134-0.013,0.264-0.013,0.401
		c0,20.431,9.304,38.689,23.9,50.779c11.453,9.402,26.105,15.049,42.078,15.049c7.978,0,15.623-1.409,22.707-3.988
		c25.162-9.278,43.099-33.46,43.099-61.838c0-0.056,0.1-3.229,0.217-6.999c-0.333-3.444-0.947-6.805-1.79-10.074H-13.425z"/>
	<g>
		<g>
			<g>
				<g>
					<g>
						<g>
							<defs>
								<path id="SVGID_1_" d="M-13.034,1.854c-1.238,5.049-1.911,10.32-1.911,15.749c0,36.391,29.5,65.889,65.888,65.889
									c36.396,0,65.893-29.497,65.893-65.889c0-5.427-0.676-10.698-1.912-15.749H-13.034z"/>
							</defs>
							<clipPath id="SVGID_2_">
								<use xlink:href="#SVGID_1_"  overflow="visible"/>
							</clipPath>
							<path clip-path="url(#SVGID_2_)" fill="#E1F5FE" d="M-0.25,67.023c-3.503-4.535-4.916-10.024-4.387-15.307
								c-1.3-0.418-2.495-1.218-3.395-2.378c-2.361-3.056-1.799-7.445,1.254-9.805c1.113-0.862,2.405-1.328,3.709-1.436
								C-4.033,34.91-3.012,31.32-0.22,29.16c2.244-1.734,5.094-2.131,7.603-1.323c0.342-0.537,0.774-1.03,1.304-1.438
								c2.44-1.889,5.958-1.436,7.842,1.004c0.053,0.066,0.097,0.133,0.141,0.201c0.093-0.08,0.179-0.162,0.277-0.236
								c2.699-2.083,6.575-1.588,8.661,1.111c1.188,1.538,1.535,3.455,1.118,5.214c1.898-0.052,3.796,0.768,5.05,2.387
								c0.123,0.16,0.234,0.321,0.34,0.486c2.129-1.508,5.084-1.086,6.696,1.002c1.169,1.513,1.311,3.496,0.528,5.116
								c2.184-0.279,4.454,0.568,5.894,2.432c2.162,2.795,1.65,6.822-1.151,8.983c-0.965,0.746-2.083,1.168-3.211,1.292
								c0.894,0.482,1.707,1.147,2.373,2.003c2.517,3.266,1.917,7.94-1.339,10.467c-2.061,1.592-4.689,1.925-6.982,1.147
								c0.063,2.163-0.861,4.326-2.703,5.751c-2.719,2.1-6.491,1.876-8.955-0.353C14.902,77.034,5.431,74.368-0.25,67.023z"/>
						</g>
					</g>
				</g>
			</g>
		</g>
	</g>
	<path fill="#BEF0FC" d="M21.797,70.227c1.512,0.686,3.331,0.63,4.841-0.319c2.391-1.514,3.106-4.67,1.602-7.062
		c-0.396-0.627-0.909-1.135-1.488-1.523c0.78-0.01,1.57-0.226,2.279-0.676c2.055-1.289,2.67-4.004,1.378-6.058
		c-0.865-1.366-2.357-2.095-3.866-2.047c0.64-1.055,0.674-2.416-0.025-3.525c-0.965-1.535-2.954-2.014-4.507-1.123
		c-0.061-0.121-0.128-0.239-0.202-0.354c-0.746-1.187-1.99-1.872-3.29-1.963c0.401-1.171,0.292-2.505-0.42-3.635
		c-1.246-1.977-3.858-2.569-5.84-1.325c-0.072,0.039-0.137,0.094-0.205,0.141c-0.027-0.052-0.051-0.102-0.083-0.145
		c-1.127-1.795-3.499-2.331-5.291-1.205c-0.388,0.245-0.715,0.553-0.983,0.897c-1.661-0.72-3.634-0.635-5.282,0.4
		c-2.047,1.296-2.979,3.679-2.529,5.923c-0.898-0.016-1.81,0.218-2.627,0.732c-0.913,0.576-1.548,1.411-1.906,2.35
		c0.514,0.966,1.047,1.921,1.606,2.857c0.342,0.178,0.693,0.328,1.056,0.447c-0.039,0.383-0.044,0.771-0.062,1.156
		c2.258,3.556,4.847,6.878,7.725,9.929c1.412,1.402,2.873,2.755,4.408,4.026c2.977,2.446,6.174,4.63,9.548,6.531
		c0.669-0.084,1.331-0.297,1.94-0.678C20.923,73.129,21.696,71.715,21.797,70.227z"/>
	<path fill="#FFFFFF" d="M57.728,38.134c3.675,3.282,5.731,7.704,6.115,12.258c1.164,0.146,2.302,0.636,3.245,1.477
		c2.478,2.212,2.691,6.012,0.479,8.491c-0.808,0.904-1.825,1.498-2.912,1.793c1.317,2.547,1.018,5.741-1.003,8.011
		c-1.627,1.818-3.977,2.603-6.228,2.311c-0.199,0.511-0.491,0.993-0.875,1.422c-1.767,1.98-4.813,2.153-6.791,0.384
		c-0.057-0.046-0.101-0.097-0.151-0.15c-0.065,0.083-0.125,0.168-0.195,0.245c-1.958,2.187-5.312,2.377-7.499,0.424
		c-1.248-1.114-1.842-2.684-1.764-4.235c-1.598,0.343-3.333-0.051-4.646-1.226c-0.13-0.114-0.248-0.234-0.365-0.358
		c-1.565,1.609-4.128,1.719-5.822,0.206c-1.228-1.095-1.658-2.75-1.251-4.24c-1.803,0.578-3.853,0.218-5.366-1.128
		c-2.268-2.031-2.466-5.512-0.437-7.782c0.7-0.784,1.577-1.317,2.515-1.597c-0.833-0.267-1.625-0.701-2.321-1.323
		c-2.641-2.358-2.872-6.415-0.512-9.062c1.491-1.67,3.663-2.367,5.723-2.066c-0.395-1.822,0.051-3.796,1.384-5.288
		c1.966-2.203,5.192-2.607,7.625-1.109C43.339,32.049,51.771,32.817,57.728,38.134z"/>
	<g>
		<path fill="#FF7043" d="M45.325,23.815c-6.222-1.821-15.147-0.12-18.619,2.073c-3.028,1.911-5.834,4.059-7.797,8.478
			c3.692-0.268,4.905-1.141,10.465-0.568c3.866,0.4,6.38,1.389,8.26,2.7C38.784,31.968,43.935,26.189,45.325,23.815z"/>
		<path fill="#EC1C24" d="M62.499,44.017c0.829,6.429-2.687,14.538-5.391,17.627c-2.361,2.687-4.928,5.129-9.596,6.377
			c0.844-3.604,1.901-4.67,2.202-10.257c0.21-3.878-0.378-6.517-1.375-8.582C57.759,47.042,59.719,45.486,62.499,44.017z"/>
		<path fill="#EC1C24" d="M34.899,39.225c-0.66,0.535-0.917,1.309-0.573,1.735l7.553,9.369c0.345,0.426,1.158,0.341,1.819-0.193l0,0
			c0.662-0.531,0.916-1.31,0.573-1.742l-7.554-9.367C36.372,38.609,35.561,38.692,34.899,39.225L34.899,39.225z"/>
		<path fill="#FAFAFA" d="M55.125,13.596C73.26,0.148,93.005,2.932,93.005,2.932c-0.01,0.297-1.926,20.71-19.42,34.712
			c-11.492,9.147-12.823,9.075-17.761,10.973c-7.86,3.031-11.116,1.482-15.008-3.385c-0.252-0.315-0.495-0.628-0.729-0.933
			l0.044-0.034c-0.231-0.292-0.466-0.602-0.703-0.922c-3.709-5-4.458-8.5,0.476-15.333C42.998,23.727,43.348,22.371,55.125,13.596z"
			/>
		<path fill="#D9E0E3" d="M39.881,44.066L93.017,3.152c-0.117,1.3-2.433,21.003-19.509,34.59
			c-11.512,9.114-12.854,9.045-17.788,10.933c-7.876,3.009-11.122,1.444-15-3.428c-0.255-0.315-0.496-0.626-0.729-0.937l0.042-0.037
			C39.989,44.209,39.934,44.136,39.881,44.066z"/>
		<path fill="#FFA270" d="M77.206,14.935C74.32,11.41,70.66,8.625,66.725,7.017c13.429-5.583,26.272-4.043,26.272-4.043
			C92.98,3.198,90.855,17.207,82.97,27.807C82.274,23.298,80.301,18.719,77.206,14.935z"/>
		<path fill="#FF7043" d="M78.841,13.553c-2.758-3.359-6.09-5.812-9.818-7.435C82.167,1.313,93.11,2.837,93.11,2.837
			c-0.005,0.218-1.093,11.454-8.704,22.92C83.647,21.428,81.824,17.191,78.841,13.553z"/>
		<circle fill="#80DEEA" cx="67.682" cy="23.177" r="5.599"/>
		<path fill="#F05A22" d="M93.06,3.041c-0.01,0.225-2.158,14.239-10.063,24.823c-0.677-4.442-2.6-8.948-5.606-12.703L93.06,3.041z"
			/>
		<path fill="#EC1C24" d="M93.131,2.849c-0.009,0.218-1.066,11.508-8.695,22.963c-0.732-4.231-2.542-8.425-5.4-12.012L93.131,2.849z
			"/>
		<path fill="#B4FFFF" d="M63.01,26.459c-0.584-0.883-0.922-1.943-0.922-3.085c0-3.09,2.504-5.599,5.597-5.599
			c1.66,0,3.15,0.724,4.174,1.869L63.01,26.459z"/>
		<path fill="#F05A22" d="M67.685,18.174c1.343,0,2.635,0.542,3.602,1.511c0.97,0.969,1.513,2.256,1.513,3.604
			c0,1.342-0.543,2.636-1.513,3.602c-0.964,0.97-2.254,1.507-3.602,1.507c-1.339,0-2.634-0.539-3.604-1.507
			c-0.964-0.966-1.502-2.257-1.502-3.602c0-1.346,0.538-2.635,1.502-3.604C65.051,18.714,66.344,18.174,67.685,18.174
			 M67.685,16.562c-1.717,0-3.443,0.644-4.73,1.987c-2.639,2.635-2.639,6.886,0,9.518c1.284,1.294,3.011,1.991,4.73,1.991
			c1.721,0,3.441-0.644,4.735-1.991c2.633-2.634,2.633-6.883,0-9.518C71.128,17.21,69.405,16.562,67.685,16.562L67.685,16.562z"/>
		<path fill="#F6921E" d="M71.404,19.799c-0.041-0.037-0.079-0.082-0.118-0.117c-0.964-0.969-2.254-1.51-3.602-1.51
			c-1.339,0-2.634,0.541-3.604,1.51c-0.964,0.97-1.502,2.257-1.502,3.605c0,0.959,0.269,1.895,0.783,2.703l-1.289,0.998
			c-1.706-2.61-1.416-6.137,0.887-8.433c1.285-1.343,3.012-1.988,4.73-1.988c1.722,0,3.442,0.645,4.735,1.988
			c0.086,0.085,0.175,0.179,0.256,0.268L71.404,19.799z"/>
		<g>
			<path fill="#FFC107" d="M38.957,45.052c-3.942-5.361-7.236-4.208-11.105-2.108C18.1,48.243,13.01,65.477,13.01,65.477l0,0
				L38.957,45.052L38.957,45.052z"/>
			<path fill="#FFC107" d="M38.957,45.052L38.957,45.052L13.014,65.477v0.002c0,0,17.943-0.903,25.386-9.136
				C41.354,53.075,43.242,50.143,38.957,45.052z"/>
		</g>
		<g>
			<path fill="#FFF280" d="M38.957,45.049c-2.956-4.021-5.427-3.161-8.327-1.579c-7.313,3.979-11.13,16.9-11.13,16.9l0,0
				L38.957,45.049L38.957,45.049z"/>
			<path fill="#FFF280" d="M38.96,45.049L19.501,60.366L19.5,60.368c0,0,13.46-0.675,19.042-6.85
				C40.755,51.065,42.173,48.869,38.96,45.049z"/>
		</g>
		<path fill="#EC1C24" d="M32.395,50.177c0.982,0.113,7.405,0.567,14.806-5.798c7.345-6.367,9.588-12.671,9.923-13.728
			L32.395,50.177z"/>
		<path fill="#FF7043" d="M32.39,50.172c0.116-0.981,1.167-7.333,9.07-13.056c7.896-5.675,14.546-6.386,15.659-6.472L32.39,50.172z"
			/>
	</g>
</g>
</svg>
