<svg xmlns="http://www.w3.org/2000/svg" width="44.125" height="39.042"><path fill="#252525" d="M17.27 20.902l-.183-.015a7.572 7.572 0 0 1-1.273-.206l-.175-.044-.076-1.038a6.912 6.912 0 0 1-1.025-.431l-.796.673-.154-.095a7.76 7.76 0 0 1-1.039-.766l-.138-.121.417-.951a6.68 6.68 0 0 1-.727-.864l-1.023.227-.092-.155a8.392 8.392 0 0 1-.565-1.14l-.069-.172.807-.647a6.67 6.67 0 0 1-.259-1.145l-1.015-.272-.011-.18a7.66 7.66 0 0 1 .021-1.244l.018-.185 1.013-.2c.069-.405.176-.805.317-1.195l-.766-.711.073-.164c.166-.37.36-.728.578-1.064l.102-.157.988.296c.26-.347.555-.67.88-.963l-.348-.984.143-.111c.308-.238.639-.457.984-.65l.163-.091.738.721c.41-.193.839-.346 1.281-.455l.148-1.028.179-.031a7.594 7.594 0 0 1 1.152-.112l.186-.004.319.983c.464.023.926.094 1.377.211l.607-.84.175.059a7.553 7.553 0 0 1 1.058.445l.164.083-.175 1.021c.4.241.774.521 1.115.837l.923-.461.128.136c.266.284.511.587.729.901l.104.149-.633.826c.229.388.421.802.571 1.233l1.032.023.049.18c.101.371.176.76.223 1.157l.021.18-.947.44c.019.436-.006.873-.071 1.303l.901.499-.04.182a7.742 7.742 0 0 1-.356 1.159l-.065.167-1.045-.05c-.18.375-.392.731-.632 1.063l.569.865-.12.143c-.26.308-.555.605-.877.883l-.136.117-.9-.531a7.051 7.051 0 0 1-1.002.616l.102 1.027-.171.071a7.97 7.97 0 0 1-1.211.394l-.176.042-.55-.888a7.045 7.045 0 0 1-1.097.086h-.029l-.388.963zm-1.159-.663c.267.06.542.104.833.134l.379-.94.363.008c.395 0 .79-.036 1.175-.107l.168-.031.538.867c.269-.071.534-.156.79-.256l-.1-1.005.159-.075c.426-.201.831-.45 1.205-.739l.134-.104.879.518c.202-.183.392-.373.565-.568l-.557-.845.108-.141c.295-.386.548-.812.752-1.264l.069-.155 1.022.049a7.14 7.14 0 0 0 .227-.736l-.883-.489.031-.176a6.272 6.272 0 0 0 .085-1.531l-.012-.171.926-.429a7.697 7.697 0 0 0-.139-.726l-1.01-.022-.055-.169a6.486 6.486 0 0 0-.666-1.44l-.092-.147.618-.808a7.462 7.462 0 0 0-.452-.559l-.902.451-.127-.124a6.386 6.386 0 0 0-1.295-.972l-.152-.086.171-1a5.96 5.96 0 0 0-.654-.274l-.592.819-.168-.048a6.378 6.378 0 0 0-1.599-.245l-.177-.004-.312-.961c-.24.011-.479.035-.713.069l-.145 1.006-.168.038a6.433 6.433 0 0 0-1.495.532l-.159.081-.724-.707c-.213.126-.42.263-.617.408l.34.961-.13.112A6.26 6.26 0 0 0 12.52 9.37l-.104.146-.967-.29a7.604 7.604 0 0 0-.367.677l.75.696-.062.158a6.39 6.39 0 0 0-.376 1.42l-.025.175-.991.196c-.019.26-.022.528-.012.801l.99.267.019.169c.053.472.158.934.312 1.374l.059.167-.789.633c.11.254.233.503.369.745l.999-.222.095.143c.25.375.546.726.88 1.045l.126.121-.408.931c.218.182.446.35.68.502l.778-.658.15.082a6.815 6.815 0 0 0 1.248.524l.164.05.073 1.017zm1.606-1.635a5.534 5.534 0 0 1-2.158-.437 5.536 5.536 0 0 1-3.001-3.032 5.535 5.535 0 0 1 .022-4.266 5.565 5.565 0 0 1 7.298-2.98 5.582 5.582 0 0 1 2.98 7.299 5.565 5.565 0 0 1-5.141 3.416zm.004-10.651a5.066 5.066 0 0 0-4.68 3.11 5.037 5.037 0 0 0-.021 3.883 5.04 5.04 0 0 0 2.732 2.76 5.065 5.065 0 0 0 6.643-2.71 5.08 5.08 0 0 0-4.674-7.043zm-.004 9.526c-.001 0 0 0 0 0a4.454 4.454 0 0 1-4.1-6.174 4.441 4.441 0 0 1 5.824-2.378 4.418 4.418 0 0 1 2.396 2.42 4.42 4.42 0 0 1-.018 3.406 4.438 4.438 0 0 1-4.102 2.726zm.003-8.401c-1.594 0-3.024.95-3.642 2.42a3.953 3.953 0 0 0 3.638 5.48 3.94 3.94 0 0 0 3.641-2.418 3.924 3.924 0 0 0 .016-3.024 3.919 3.919 0 0 0-2.126-2.148 3.907 3.907 0 0 0-1.527-.31zm11.12 18.805l-.184-.016a5.924 5.924 0 0 1-.966-.155l-.176-.043-.058-.785a5.453 5.453 0 0 1-.7-.294l-.599.505-.154-.093a5.738 5.738 0 0 1-.79-.582l-.138-.121.314-.716a5.059 5.059 0 0 1-.498-.591l-.77.171-.093-.154a6.067 6.067 0 0 1-.429-.867l-.068-.172.608-.485a5.042 5.042 0 0 1-.179-.787l-.76-.204-.012-.18a5.932 5.932 0 0 1 .016-.944l.019-.185.764-.151c.049-.274.122-.551.219-.823l-.577-.535.072-.163c.121-.274.269-.546.438-.809l.102-.157.745.222c.183-.238.387-.462.61-.668l-.261-.743.144-.11c.24-.185.491-.351.744-.493l.163-.091.557.543c.29-.133.589-.239.893-.317l.111-.773.178-.032c.282-.05.576-.079.874-.086l.187-.004.239.742c.325.019.646.068.961.147l.458-.635.176.061a5.739 5.739 0 0 1 .801.338l.163.083-.131.769c.278.171.539.367.777.583l.696-.346.128.136c.201.215.387.445.55.684l.103.149-.475.622c.157.271.291.559.398.858l.777.018.049.181c.077.28.134.576.17.878l.021.18-.714.332a5.05 5.05 0 0 1-.049.903l.681.375-.043.185c-.071.31-.162.605-.271.877l-.066.166-.785-.037a5.05 5.05 0 0 1-.437.735l.426.65-.119.143a5.98 5.98 0 0 1-.663.67l-.137.118-.679-.401c-.22.159-.45.302-.688.424l.076.773-.17.071a5.981 5.981 0 0 1-.919.3l-.176.042-.415-.669a5.373 5.373 0 0 1-.77.059l-.289.724zm-.853-.615c.17.036.345.063.527.084l.282-.704.329.009c.285 0 .572-.026.854-.079l.168-.031.401.647c.169-.046.336-.1.498-.162l-.073-.749.158-.075c.312-.147.611-.332.891-.549l.135-.104.656.388c.125-.115.243-.233.354-.355l-.414-.631.108-.141c.218-.283.405-.598.556-.935l.07-.155.763.036c.053-.146.1-.299.141-.457l-.659-.363.032-.176a4.62 4.62 0 0 0 .063-1.133l-.012-.171.69-.321a5.882 5.882 0 0 0-.086-.447l-.754-.017-.055-.17a4.729 4.729 0 0 0-.493-1.064l-.092-.147.461-.604a5.206 5.206 0 0 0-.273-.34l-.675.335-.127-.124a4.723 4.723 0 0 0-.959-.719l-.151-.087.127-.746a4.418 4.418 0 0 0-.399-.167l-.443.616-.169-.049a4.595 4.595 0 0 0-1.184-.182l-.178-.004-.231-.719a5.618 5.618 0 0 0-.435.043l-.108.752-.169.037c-.38.083-.752.215-1.107.394l-.159.08-.539-.526a6.055 6.055 0 0 0-.379.251l.251.716-.128.111c-.29.251-.547.534-.766.839l-.104.146-.722-.215a5.545 5.545 0 0 0-.228.42l.559.518-.06.158a4.724 4.724 0 0 0-.278 1.051l-.024.176-.74.146c-.01.165-.013.333-.008.501l.737.198.02.168c.042.359.12.702.232 1.018l.06.168-.592.473c.069.157.147.314.233.468l.746-.165.095.143c.185.276.403.536.65.772l.127.121-.306.694c.142.116.284.222.43.317l.58-.489.149.081a5.088 5.088 0 0 0 .923.386l.166.049.057.762zm1.122-2.03a3.233 3.233 0 0 1-2.02-.702 3.269 3.269 0 0 1-.539-4.583 3.246 3.246 0 0 1 2.563-1.241c.739 0 1.438.243 2.021.702a3.236 3.236 0 0 1 1.219 2.177 3.238 3.238 0 0 1-.68 2.406 3.247 3.247 0 0 1-2.564 1.241zm.004-6.027c-.852 0-1.643.383-2.17 1.051a2.767 2.767 0 0 0 .457 3.881 2.73 2.73 0 0 0 1.709.595c.853 0 1.644-.383 2.171-1.052a2.742 2.742 0 0 0 .576-2.037 2.742 2.742 0 0 0-1.032-1.843 2.738 2.738 0 0 0-1.711-.595zm2.052-3.275l-.184-.015a5.2 5.2 0 0 1-.863-.14l-.175-.044-.052-.698a4.692 4.692 0 0 1-.304-.114 4.787 4.787 0 0 1-.29-.135l-.537.452-.153-.095a5.206 5.206 0 0 1-.702-.519l-.137-.12.277-.639a4.449 4.449 0 0 1-.421-.501l-.688.153-.093-.155a5.352 5.352 0 0 1-.382-.775l-.067-.171.539-.434a4.901 4.901 0 0 1-.152-.669l-.678-.184-.012-.179a5.248 5.248 0 0 1 .013-.844l.019-.185.681-.133c.044-.242.107-.478.187-.704l-.516-.478.074-.164c.115-.254.247-.497.393-.721l.103-.157.662.199c.157-.204.332-.395.522-.57l-.233-.661.143-.111a5.38 5.38 0 0 1 .667-.441l.163-.091.495.485c.245-.112.501-.203.764-.271l.099-.691.18-.031a5.57 5.57 0 0 1 .781-.075l.187-.004.214.661c.277.017.553.06.822.126l.407-.564.175.059c.124.042.243.086.363.136.122.052.238.108.354.166l.165.083-.117.688c.235.146.459.313.665.5l.623-.311.128.137c.185.2.351.405.491.61l.103.149-.424.554c.133.232.247.479.341.735l.693.014.049.181c.069.256.12.521.15.786l.021.18-.636.294c.008.261-.007.52-.042.773l.606.334-.041.184c-.06.264-.142.528-.242.784l-.065.167-.701-.034a4.517 4.517 0 0 1-.372.625l.381.58-.118.143a5.188 5.188 0 0 1-.595.601l-.136.116-.605-.356a4.825 4.825 0 0 1-.584.36l.067.69-.17.071a5.517 5.517 0 0 1-.821.268l-.176.042-.369-.598a4.677 4.677 0 0 1-.654.049l-.26.647zm-.75-.599c.137.028.278.051.424.068l.249-.624.309.008c.252 0 .508-.023.762-.07l.168-.03.354.574c.137-.038.271-.082.399-.13l-.064-.666.158-.075c.276-.13.541-.293.787-.484l.134-.104.584.344c.1-.092.193-.187.282-.284l-.368-.56.108-.141c.194-.253.36-.531.493-.825l.069-.155.676.033c.043-.12.08-.242.112-.363l-.586-.323.032-.177c.06-.326.079-.663.057-1.001l-.012-.171.612-.284a4.697 4.697 0 0 0-.067-.354l-.667-.016-.055-.169a4.172 4.172 0 0 0-.437-.942l-.092-.147.409-.536a4.71 4.71 0 0 0-.216-.269l-.599.299-.127-.125a4.07 4.07 0 0 0-.845-.634l-.153-.086.113-.664a4.362 4.362 0 0 0-.156-.07l-.157-.062-.394.545-.169-.049a4.094 4.094 0 0 0-1.045-.16l-.178-.004-.206-.636c-.115.007-.23.018-.344.033l-.096.667-.169.037c-.341.075-.67.192-.978.348l-.16.081-.479-.469a5.372 5.372 0 0 0-.3.199l.226.636-.13.112a4.089 4.089 0 0 0-.677.74l-.104.146-.64-.192a5.35 5.35 0 0 0-.182.334l.498.461-.063.159a4.202 4.202 0 0 0-.247.93l-.025.175-.655.128c-.007.13-.009.265-.005.401l.652.176.02.167c.038.317.107.62.206.899l.06.167-.523.42c.056.127.118.253.187.377l.663-.147.095.143c.163.246.356.476.573.682l.126.121-.268.618c.111.091.227.176.345.255l.517-.435.149.082c.128.069.261.135.396.192.14.058.28.107.421.15l.163.05.05.676zm.994-3.038a1.703 1.703 0 0 1-1.569-2.364 1.697 1.697 0 0 1 2.229-.91 1.707 1.707 0 0 1 .91 2.23 1.698 1.698 0 0 1-1.57 1.044zm0-2.907c-.485 0-.921.29-1.108.738a1.191 1.191 0 0 0-.005.921c.121.297.351.53.646.654a1.225 1.225 0 0 0 1.576-.643 1.206 1.206 0 0 0-1.109-1.67z"/><path d="M18.58 26.229a1.8 1.8 0 0 1-1.301-.519 1.803 1.803 0 0 1-.554-1.313c-.006-.526.168-.974.519-1.332.352-.36.794-.546 1.315-.553h.001c.538 0 .974.174 1.327.517.361.352.548.795.555 1.316a1.8 1.8 0 0 1-.517 1.328 1.8 1.8 0 0 1-1.315.556h-.03zm.008-3.117c-.383.005-.675.127-.916.373a1.21 1.21 0 0 0-.348.904c.006.361.127.653.373.891.242.235.53.35.883.35v.3l.022-.3c.361-.005.653-.127.892-.374.24-.247.354-.542.348-.901a1.213 1.213 0 0 0-.374-.896 1.2 1.2 0 0 0-.88-.347zm-4.683 3.181c-.511 0-.949-.175-1.301-.519a1.795 1.795 0 0 1-.554-1.314 1.8 1.8 0 0 1 .518-1.33 1.807 1.807 0 0 1 1.315-.554h.001c.539 0 .975.174 1.328.517.36.352.547.794.555 1.315a1.8 1.8 0 0 1-.518 1.329 1.8 1.8 0 0 1-1.314.556h-.03zm.008-3.117c-.383.005-.675.127-.916.373-.238.244-.352.54-.347.903s.127.654.373.892c.241.235.529.35.883.35v.3l.022-.3c.361-.005.653-.127.892-.374.239-.245.353-.54.348-.902a1.222 1.222 0 0 0-.374-.895 1.209 1.209 0 0 0-.881-.347zm-4.684 3.182c-.51 0-.948-.175-1.3-.519a1.795 1.795 0 0 1-.554-1.314c-.008-.521.166-.97.518-1.33a1.805 1.805 0 0 1 1.314-.554h.001c.539 0 .976.175 1.33.519.359.348.546.79.554 1.313.006.525-.169.973-.519 1.33-.348.36-.791.548-1.314.555h-.03zm.008-3.117c-.382.005-.674.127-.915.373a1.202 1.202 0 0 0-.347.902c.005.364.127.655.373.893.241.235.529.35.882.35v.3l.022-.3c.362-.005.654-.127.892-.373.24-.245.354-.54.35-.904a1.207 1.207 0 0 0-.373-.891 1.21 1.21 0 0 0-.884-.35z"/><path d="M3.015 39.417a.376.376 0 0 1-.375-.375V3.893c0-.827.324-1.578.962-2.233.64-.658 1.401-.992 2.263-.992h32.301c.828 0 1.581.333 2.236.988.655.655.988 1.408.988 2.237v24.7c0 .827-.333 1.58-.988 2.236-.655.655-1.407.988-2.236.988H10.77l-7.49 7.49a.375.375 0 0 1-.265.11zM5.864 1.418c-.661 0-1.225.25-1.725.765-.504.518-.749 1.077-.749 1.71v34.244l6.959-6.96a.375.375 0 0 1 .265-.109h27.551c.631 0 1.188-.252 1.705-.769.518-.518.77-1.076.77-1.706v-24.7c0-.631-.252-1.189-.769-1.707-.518-.517-1.075-.769-1.706-.769H5.864zm0 31.113a.376.376 0 0 1-.375-.375V3.893c0-.207.168-.375.375-.375h32.301c.207 0 .375.168.375.375v24.7a.375.375 0 0 1-.375.375H9.582l-3.453 3.453a.371.371 0 0 1-.265.11zm.375-28.263V31.25l2.922-2.923a.375.375 0 0 1 .265-.109H37.79V4.268H6.239z"/></svg>