<?xml version="1.0" encoding="utf-8"?>
<!-- Generator: Adobe Illustrator 15.1.0, SVG Export Plug-In . SVG Version: 6.00 Build 0)  -->
<!DOCTYPE svg PUBLIC "-//W3C//DTD SVG 1.1//EN" "http://www.w3.org/Graphics/SVG/1.1/DTD/svg11.dtd">
<svg version="1.1" id="Layer_1" xmlns="http://www.w3.org/2000/svg" xmlns:xlink="http://www.w3.org/1999/xlink" x="0px" y="0px"
	 width="134px" height="82px" viewBox="0 0 134 82" enable-background="new 0 0 134 82" xml:space="preserve">
<g>
	<path fill="#24B7CF" d="M3.732,0.395C2.493,5.453,1.819,10.731,1.819,16.168c0,36.452,29.55,66.001,65.997,66.001
		c36.457,0,66.003-29.55,66.003-66.001c0-5.437-0.676-10.714-1.915-15.774H3.732z"/>
	<g>
		<g>
			<g>
				<g>
					<defs>
						<path id="SVGID_1_" d="M3.733,0.395c-1.24,5.058-1.914,10.337-1.914,15.774c0,36.452,29.55,66.001,65.997,66.001
							c36.457,0,66.003-29.55,66.003-66.001c0-5.437-0.676-10.714-1.915-15.774H3.733z"/>
					</defs>
					<clipPath id="SVGID_2_">
						<use xlink:href="#SVGID_1_"  overflow="visible"/>
					</clipPath>
					<path clip-path="url(#SVGID_2_)" fill="#E3F3FB" d="M16.54,65.671c-3.51-4.542-4.924-10.04-4.394-15.334
						c-1.303-0.416-2.499-1.217-3.4-2.38c-2.365-3.06-1.802-7.455,1.258-9.821c1.115-0.863,2.409-1.33,3.716-1.436
						c-0.968-3.193,0.055-6.791,2.852-8.954c2.248-1.737,5.103-2.134,7.615-1.325c0.342-0.539,0.775-1.031,1.307-1.441
						c2.445-1.892,5.967-1.441,7.856,1.006c0.053,0.066,0.096,0.134,0.142,0.204c0.093-0.08,0.178-0.162,0.276-0.237
						c2.705-2.086,6.586-1.59,8.674,1.111c1.191,1.542,1.539,3.462,1.12,5.223c1.902-0.051,3.804,0.769,5.06,2.392
						c0.123,0.16,0.234,0.324,0.34,0.489c2.133-1.512,5.092-1.09,6.707,1.002c1.171,1.517,1.311,3.502,0.528,5.123
						c2.188-0.281,4.462,0.568,5.906,2.434c2.166,2.803,1.652,6.833-1.155,9c-0.966,0.75-2.084,1.17-3.216,1.294
						c0.894,0.484,1.71,1.148,2.376,2.008c2.521,3.268,1.921,7.955-1.342,10.48c-2.063,1.597-4.698,1.931-6.994,1.15
						c0.064,2.167-0.861,4.332-2.708,5.76c-2.723,2.104-6.502,1.883-8.968-0.35C31.717,75.698,22.227,73.028,16.54,65.671z"/>
				</g>
			</g>
		</g>
	</g>
	<g>
		<path fill="#EB6F48" d="M60.459,24.759c-5.9-1.73-14.36-0.115-17.654,1.963c-2.869,1.813-5.531,3.849-7.392,8.042
			c3.5-0.254,4.652-1.086,9.923-0.542c3.665,0.378,6.048,1.319,7.83,2.56C54.258,32.488,59.141,27.007,60.459,24.759z"/>
		<path fill="#E42528" d="M76.743,43.912c0.785,6.095-2.55,13.784-5.111,16.711c-2.241,2.551-4.672,4.864-9.098,6.048
			c0.798-3.419,1.802-4.428,2.084-9.724c0.201-3.68-0.356-6.18-1.301-8.136C72.246,46.779,74.105,45.305,76.743,43.912z"/>
		<path fill="#E42528" d="M50.574,39.37c-0.625,0.505-0.868,1.242-0.543,1.644l7.161,8.884c0.327,0.403,1.099,0.321,1.726-0.186l0,0
			c0.625-0.504,0.869-1.24,0.543-1.648l-7.163-8.882C51.97,38.782,51.201,38.865,50.574,39.37L50.574,39.37z"/>
		<path fill="#FBFAFA" d="M69.751,15.069c17.196-12.751,35.915-10.11,35.915-10.11c-0.01,0.282-1.829,19.637-18.413,32.909
			c-10.896,8.674-12.159,8.608-16.84,10.41c-7.453,2.873-10.538,1.401-14.229-3.21c-0.239-0.302-0.471-0.596-0.691-0.885
			l0.041-0.035c-0.218-0.278-0.442-0.57-0.666-0.874c-3.517-4.743-4.227-8.059,0.452-14.538
			C58.253,24.674,58.586,23.389,69.751,15.069z"/>
		<path fill="#D9E0E3" d="M55.298,43.959l50.38-38.792c-0.113,1.231-2.309,19.913-18.496,32.795
			c-10.916,8.642-12.189,8.576-16.866,10.367C62.848,51.182,59.77,49.7,56.093,45.08c-0.242-0.301-0.47-0.597-0.689-0.888
			l0.039-0.033C55.399,44.093,55.349,44.024,55.298,43.959z"/>
		<path fill="#F3A072" d="M90.686,16.337c-2.735-3.34-6.204-5.981-9.939-7.505c12.73-5.294,24.91-3.836,24.91-3.836
			c-0.014,0.213-2.031,13.497-9.508,23.547C95.494,24.269,93.623,19.926,90.686,16.337z"/>
		<path fill="#EB6F48" d="M92.235,15.029c-2.613-3.184-5.771-5.512-9.308-7.049c12.462-4.556,22.837-3.112,22.837-3.112
			c-0.005,0.207-1.036,10.857-8.25,21.732C96.794,22.496,95.066,18.479,92.235,15.029z"/>
		<circle fill="#8BCFDE" cx="81.657" cy="24.153" r="5.309"/>
		<path fill="#E95C28" d="M105.717,5.062c-0.01,0.213-2.044,13.5-9.541,23.536c-0.643-4.21-2.464-8.482-5.317-12.045L105.717,5.062z
			"/>
		<path fill="#E42528" d="M105.782,4.881c-0.008,0.208-1.011,10.909-8.244,21.772c-0.695-4.012-2.41-7.99-5.119-11.391
			L105.782,4.881z"/>
		<path fill="#BFE3EC" d="M77.227,27.267c-0.554-0.84-0.877-1.844-0.877-2.926c0-2.931,2.376-5.31,5.308-5.31
			c1.574,0,2.986,0.687,3.958,1.774L77.227,27.267z"/>
		<path fill="#E95C28" d="M81.659,19.411c1.272,0,2.499,0.513,3.415,1.431c0.921,0.918,1.434,2.139,1.434,3.417
			c0,1.272-0.513,2.499-1.434,3.417c-0.916,0.918-2.139,1.427-3.415,1.427c-1.271,0-2.499-0.51-3.416-1.427
			c-0.918-0.917-1.428-2.143-1.428-3.417c0-1.275,0.51-2.5,1.428-3.417C79.16,19.922,80.386,19.411,81.659,19.411 M81.659,17.881
			c-1.63,0-3.265,0.612-4.485,1.887c-2.499,2.499-2.499,6.527,0,9.023c1.221,1.226,2.855,1.887,4.485,1.887
			c1.631,0,3.263-0.611,4.488-1.887c2.499-2.498,2.499-6.527,0-9.023C84.922,18.493,83.29,17.881,81.659,17.881L81.659,17.881z"/>
		<path fill="#F29223" d="M85.185,20.951c-0.039-0.038-0.074-0.078-0.11-0.11c-0.916-0.919-2.139-1.431-3.415-1.431
			c-1.271,0-2.499,0.513-3.416,1.431c-0.918,0.918-1.428,2.14-1.428,3.418c0,0.911,0.259,1.795,0.744,2.562l-1.222,0.946
			c-1.622-2.475-1.346-5.818,0.836-7.995c1.221-1.274,2.855-1.886,4.485-1.886c1.631,0,3.263,0.612,4.488,1.886
			c0.083,0.081,0.163,0.168,0.243,0.254L85.185,20.951z"/>
		<g>
			<path fill="#FBC013" d="M54.421,44.892c-3.738-5.083-6.861-3.992-10.529-1.998C34.648,47.921,29.82,64.258,29.82,64.258l0,0
				L54.421,44.892L54.421,44.892z"/>
			<path fill="#FBC013" d="M54.421,44.892L54.421,44.892L29.823,64.258v0.003c0,0,17.014-0.857,24.071-8.663
				C56.694,52.5,58.484,49.72,54.421,44.892z"/>
		</g>
		<g>
			<path fill="#FEF183" d="M54.421,44.891c-2.802-3.814-5.145-2.997-7.895-1.498c-6.935,3.769-10.554,16.023-10.554,16.023l0,0
				L54.421,44.891L54.421,44.891z"/>
			<path fill="#FEF183" d="M54.423,44.891L35.975,59.415l-0.001,0.002c0,0,12.761-0.643,18.054-6.496
				C56.126,50.595,57.472,48.511,54.423,44.891z"/>
		</g>
		<path fill="#E42528" d="M48.2,49.756c0.932,0.107,7.022,0.533,14.038-5.498c6.965-6.038,9.09-12.013,9.41-13.017L48.2,49.756z"/>
		<path fill="#EB6F48" d="M48.196,49.748c0.111-0.931,1.107-6.952,8.6-12.38c7.487-5.378,13.79-6.053,14.846-6.135L48.196,49.748z"
			/>
	</g>
</g>
</svg>
