<svg xmlns="http://www.w3.org/2000/svg" width="44.125" height="39.042"><path fill="#252525" d="M14.039 22.748c-1.214 0-2.426-.552-3.411-1.553a1.247 1.247 0 0 1 .008-1.751c.471-.477 1.298-.484 1.775-.015.899.912 2.058 1.046 2.592.373.278-.351.358-.859.225-1.431-.153-.71.279-1.38.956-1.525.663-.146 1.349.302 1.492.963.31 1.336.067 2.597-.684 3.543-.705.887-1.781 1.396-2.953 1.396zm-2.508-2.958a.527.527 0 0 0-.382.16.53.53 0 0 0-.005.745c.846.859 1.875 1.334 2.895 1.334.952 0 1.822-.411 2.39-1.124.612-.771.806-1.814.545-2.938a.544.544 0 0 0-.639-.416.536.536 0 0 0-.41.636c.188.813.059 1.537-.358 2.063-.798 1.005-2.464.908-3.665-.311a.53.53 0 0 0-.371-.149z"/><path fill="#252525" d="M19.573 38.789c-1.28 0-2.533-.536-3.551-1.511-2.357.586-4.188-.484-5.157-2.993-1.144-.185-2.085-.728-2.729-1.578-.776-1.024-1.092-2.456-.901-4.061-.962-.381-1.774-1.188-2.256-2.254-.59-1.308-.598-2.771-.021-4.016.282-.607 1.059-.894 1.668-.609.627.292.901 1.039.61 1.667-.313.677-.24 1.544.187 2.212.298.467.702.732 1.11.732l1.885-.156-.49 1.746c-.384 1.367-.314 2.491.197 3.165.357.471.918.71 1.668.71h.951l.259.918c.539 1.916 1.26 2.162 1.829 2.162.315 0 .68-.084 1.112-.254l.869-.343.579.732c.616.781 1.398 1.229 2.148 1.229 1.069 0 1.76-.895 1.76-2.276v-3.898c-1.714.493-3.55-.021-4.615-1.295-.822-.983-1.133-2.306-.877-3.725.141-.71.795-1.157 1.483-1.025.68.136 1.122.798.987 1.478-.118.658.007 1.254.357 1.672.573.684 1.685.766 2.665.173V14.488c-1.49.631-3.283.088-4.621-1.437a1.258 1.258 0 0 1 .117-1.772c.502-.439 1.333-.385 1.772.117.471.538.977.833 1.427.833.78 0 1.304-.898 1.304-2.233V4.824c0-1.481-.64-2.303-1.718-2.213-1.109.087-1.917 1.019-1.92 2.216l-.001.348c.095.215.127.422.101.63-.313 2.59-1.583 3.717-4.108 3.553a1.249 1.249 0 0 1-.864-.422 1.257 1.257 0 0 1 .941-2.087c.186.009.287.013.38.013.659 0 .922-.11 1.077-.836l-.109.028.071-.215c-1.021-.052-2.029.417-2.75 1.274-.807.959-1.122 2.227-.888 3.569a1.255 1.255 0 0 1-.994 1.426 1.14 1.14 0 0 1-.368.011c-1.239.275-2.233.999-2.732 1.99-.461.916-.454 1.986.02 3.015.159.372.161.714.034 1.025a1.24 1.24 0 0 1-.675.682c-.616.262-1.38-.046-1.645-.667-.764-1.662-.793-3.437-.077-4.992.717-1.556 2.113-2.755 3.857-3.324-.005-1.773.64-3.42 1.833-4.664 1.229-1.283 2.917-1.971 4.61-1.851.563-1.8 2.139-3.082 4.011-3.227 1.292-.098 2.432.349 3.237 1.249.807-.9 1.959-1.346 3.239-1.249 1.854.144 3.424 1.409 4 3.189 2.448-.318 4.782.852 6.1 3.005 1.161 1.897 1.339 4.154.501 6.127 2.683.649 4.583 3.203 4.583 6.254a1.257 1.257 0 0 1-2.512 0c0-2.229-1.487-3.909-3.457-3.909-.342 0-.695.049-1.049.146a1.25 1.25 0 0 1-1.581-.911 1.258 1.258 0 0 1 .928-1.514c.055-.015.119-.028.184-.04.999-1.296 1.185-2.952.503-4.4-.869-1.846-2.85-2.727-4.804-2.046l-1.664.583-.004-1.763c-.003-1.198-.811-2.129-1.921-2.215-1.081-.09-1.718.73-1.718 2.212v29.188c0 .725.186 1.323.537 1.727.793.91 2.354.608 3.372-.682l.578-.731.868.344c.433.17.796.254 1.113.254.568 0 1.289-.246 1.827-2.162l.259-.918h.952c.749 0 1.311-.239 1.668-.71.511-.675.579-1.799.194-3.165l-.484-1.746 1.801.152h.011c.406 0 .744-.184 1.023-.516.426-.504.618-1.234.503-1.905a1.258 1.258 0 0 1 1.038-1.459 1.243 1.243 0 0 1 1.438 1.039c.37 2.16-.8 4.381-2.637 5.11.192 1.604-.124 3.036-.899 4.061-.646.851-1.585 1.394-2.729 1.578-.968 2.509-2.8 3.58-5.154 2.995-1.021.975-2.275 1.51-3.555 1.51-1.196 0-2.284-.48-3.052-1.333-.765.852-1.853 1.334-3.049 1.334zm-3.338-2.318l.15.154c.908.93 2.04 1.442 3.188 1.442 1.122 0 2.127-.509 2.758-1.396l.292-.415.294.415c.632.887 1.637 1.396 2.758 1.396 1.148 0 2.28-.512 3.188-1.441l.15-.154.208.06c.427.121.836.184 1.218.184 1.914 0 2.875-1.565 3.343-2.88l.074-.209.224-.027c1.058-.126 1.887-.573 2.459-1.329.705-.93.961-2.284.722-3.813l-.049-.311.3-.09c1.668-.5 2.757-2.475 2.427-4.404a.532.532 0 0 0-.529-.453c-.227.028-.35.106-.433.222a.518.518 0 0 0-.094.397c.152.901-.096 1.832-.663 2.505-.455.541-1.034.819-1.645.771l-.77-.065.209.746c.445 1.587.335 2.936-.317 3.794-.492.651-1.268.996-2.24.996h-.407l-.11.393c-.324 1.153-.938 2.687-2.521 2.687-.41 0-.859-.1-1.378-.304l-.371-.146-.246.311c-.753.955-1.743 1.504-2.714 1.504-.693 0-1.32-.282-1.765-.796-.469-.536-.716-1.298-.716-2.199V4.825c0-2.303 1.292-3.025 2.495-2.931 1.494.116 2.581 1.349 2.585 2.932l.002.752.71-.248c2.297-.802 4.669.245 5.691 2.419a4.871 4.871 0 0 1-.654 5.224l-.078.103-.273.085a2.2 2.2 0 0 0-.15.033.54.54 0 0 0-.409.648.54.54 0 0 0 .647.396 4.79 4.79 0 0 1 1.282-.184c2.38 0 4.178 1.99 4.178 4.629a.536.536 0 0 0 1.07 0c0-2.868-1.866-5.238-4.438-5.634l-.491-.076.227-.443c.941-1.844.839-4.031-.274-5.852-1.222-1.998-3.421-3.026-5.682-2.623l-.331.06-.081-.327C28.847 2.144 27.461.955 25.808.827c-1.188-.1-2.229.38-2.89 1.315l-.294.415-.292-.415c-.661-.933-1.691-1.416-2.889-1.315-1.664.128-3.051 1.326-3.451 2.982l-.076.313-.32-.042c-1.566-.201-3.16.405-4.311 1.604C10.166 6.85 9.588 8.418 9.658 10.1l.012.284-.274.078c-1.666.472-3.001 1.571-3.667 3.014-.627 1.36-.598 2.922.081 4.398.118.278.439.41.706.295a.532.532 0 0 0 .287-.702c-.587-1.272-.59-2.565-.028-3.68.606-1.206 1.805-2.075 3.287-2.385l.064-.013.064.01c.038.005.077.01.116.01.351-.063.538-.328.495-.611-.266-1.525.115-3.04 1.047-4.149.97-1.153 2.419-1.724 3.787-1.478l.414-.104-.022.18.075.015-.119.354c-.172 1.376-.541 2.065-2.218 1.953h-.002c-.314 0-.547.221-.565.501a.534.534 0 0 0 .5.568c2.103.14 3.083-.722 3.35-2.923a.515.515 0 0 0-.069-.299l-.039-.164.001-.43c.004-1.582 1.091-2.815 2.584-2.933 1.208-.091 2.494.63 2.494 2.932v5.172c0 2.04-1.016 2.953-2.023 2.953-.669 0-1.352-.373-1.97-1.079a.548.548 0 0 0-.755-.049.536.536 0 0 0-.05.756c1.276 1.453 2.979 1.842 4.241 1.01l.558-.368v14.56l-.156.106c-1.328.906-2.942.799-3.78-.203-.488-.585-.67-1.391-.512-2.27a.535.535 0 1 0-1.049-.216c-.222 1.231.033 2.346.715 3.16.973 1.163 2.721 1.546 4.289.919l.494-.199v4.937c0 2.069-1.245 2.996-2.479 2.996-.971 0-1.96-.548-2.713-1.503l-.247-.312-.371.146c-.517.204-.968.304-1.376.304-1.585 0-2.199-1.533-2.522-2.687l-.11-.393h-.406c-.973 0-1.749-.345-2.242-.995-.651-.858-.763-2.207-.316-3.796l.208-.745-.769.065c-.7.063-1.395-.334-1.857-1.06-.564-.883-.655-1.995-.234-2.902a.538.538 0 0 0-.26-.712.556.556 0 0 0-.715.264c-.489 1.056-.48 2.3.024 3.415.444.982 1.209 1.698 2.099 1.963l.303.089-.048.311c-.239 1.529.017 2.885.722 3.813.572.755 1.399 1.203 2.459 1.329l.221.027.075.209c.47 1.313 1.432 2.879 3.345 2.879.382 0 .792-.063 1.218-.185l.205-.059z"/><path fill="#252525" d="M29.051 13.782a2.242 2.242 0 0 1 0-4.482c1.236 0 2.242 1.005 2.242 2.241s-1.006 2.241-2.242 2.241zm0-3.762c-.837 0-1.519.683-1.519 1.521s.682 1.521 1.519 1.521a1.522 1.522 0 0 0 0-3.042zm.45 20.509a1.783 1.783 0 0 1-1.792-1.74 1.777 1.777 0 0 1 .485-1.283 1.78 1.78 0 0 1 1.252-.563h.001c1.029 0 1.816.764 1.845 1.74.03.985-.75 1.813-1.736 1.846h-.055zm.001-2.867c-.319.01-.587.129-.783.338s-.298.481-.291.769c.018.584.488 1.04 1.073 1.04v.359l.032-.36a1.073 1.073 0 0 0 1.038-1.105 1.064 1.064 0 0 0-1.069-1.041zm4.834-4.389c-.988 0-1.792-.804-1.792-1.792s.804-1.793 1.792-1.793 1.793.805 1.793 1.793-.805 1.792-1.793 1.792zm0-2.864a1.072 1.072 0 1 0 .003 2.145 1.072 1.072 0 0 0-.003-2.145z"/><path fill="#252525" d="M32.724 21.841h-9.313a.36.36 0 1 1 0-.719h9.313a.359.359 0 1 1 0 .719z"/><path fill="#252525" d="M28.691 13.421h.721v7.88h-.721zm-.801 15.673h-4.301a.36.36 0 0 1 0-.72h4.301a.36.36 0 0 1 0 .72zm-1.435-2.417a.361.361 0 0 1-.361-.361v-4.835a.36.36 0 0 1 .72 0v4.835a.36.36 0 0 1-.359.361zm2.686 6.985a.36.36 0 0 1-.359-.36v-3.224a.36.36 0 0 1 .72 0v3.224c0 .198-.162.36-.361.36zm5.195-13.253a.36.36 0 0 1-.359-.361V15.93a.36.36 0 0 1 .72 0v4.118a.361.361 0 0 1-.361.361zm-8.775-1.792a.36.36 0 0 1-.361-.36V4.825a.36.36 0 0 1 .72 0v13.433c0 .198-.16.359-.359.359z"/></svg>