<svg xmlns="http://www.w3.org/2000/svg" width="44.125" height="39.042"><path fill="#252525" d="M7.475 23.205a.885.885 0 0 1-.884-.884 2.92 2.92 0 0 0-2.916-2.917.884.884 0 0 1 0-1.766 2.92 2.92 0 0 0 2.916-2.917.885.885 0 0 1 1.768 0 2.92 2.92 0 0 0 2.917 2.917.884.884 0 0 1 0 1.766 2.92 2.92 0 0 0-2.917 2.917.886.886 0 0 1-.884.884zm0-8.868a.385.385 0 0 0-.384.384 3.42 3.42 0 0 1-3.416 3.417.384.384 0 0 0 0 .766 3.42 3.42 0 0 1 3.416 3.417.384.384 0 0 0 .768 0 3.421 3.421 0 0 1 3.417-3.417.384.384 0 0 0 0-.766 3.421 3.421 0 0 1-3.417-3.417.385.385 0 0 0-.384-.384zm0 6.186l-.214-.355a4.216 4.216 0 0 0-1.434-1.432l-.356-.214.356-.215a4.216 4.216 0 0 0 1.433-1.433l.214-.355.214.355a4.225 4.225 0 0 0 1.433 1.433l.355.214-.355.214a4.255 4.255 0 0 0-1.434 1.433l-.212.355zM6.41 18.521a4.72 4.72 0 0 1 1.065 1.065 4.72 4.72 0 0 1 1.065-1.065 4.72 4.72 0 0 1-1.065-1.065c-.296.409-.657.77-1.065 1.065z"/><path fill="#252525" d="M37.844 39.095H-.375v-3.049h1.497l10.977-13.388c.144-.175.321-.313.519-.409l1.568-7.314-.007-2.533c-2.731-.188-4.852-2.426-4.852-5.15V2.401c0-.84.684-1.524 1.524-1.524h2.425c.841 0 1.525.684 1.525 1.524v.732A4.558 4.558 0 0 1 18.734.877c1.668 0 3.129.901 3.923 2.242l.01-.723c0-.835.684-1.519 1.524-1.519h2.426c.841 0 1.524.684 1.524 1.524v4.851a5.086 5.086 0 0 1-1.337 3.458c.355.464.633.924.842 1.289l.242.426c.397.704.772 1.368 1.246 1.825.32.311.918.639 1.307.506.767-.263 1.668.172 1.934.951a1.526 1.526 0 0 1-.95 1.935c-.343.117-1.031 1.074-1.401 1.587-.412.573-.79 1.1-1.22 1.512-1.091 1.052-2.304 1.559-3.807 1.588.139.086.264.195.37.323l10.98 13.393h1.496v3.05zm-37.469-.75h36.719v-1.549h-1.102L24.788 23.13a.767.767 0 0 0-.37-.246l-.212-.064-.277-1.285.497.033c.15.01.293.014.432.014 1.361 0 2.45-.438 3.427-1.379.381-.366.739-.865 1.118-1.394.691-.959 1.253-1.695 1.78-1.875a.775.775 0 0 0 .482-.983.779.779 0 0 0-.981-.482c-.721.243-1.604-.224-2.069-.677-.553-.532-.954-1.243-1.378-1.995l-.241-.424a10.054 10.054 0 0 0-.978-1.445l-.224-.268.252-.243a4.35 4.35 0 0 0 1.346-3.164V2.401a.775.775 0 0 0-.774-.774h-2.426a.775.775 0 0 0-.774.774l-.068 5.29h-1.497l.277-.545c.27-.53.412-1.123.412-1.713a3.81 3.81 0 0 0-3.806-3.806 3.81 3.81 0 0 0-3.807 3.806c0 .577.136 1.156.392 1.676l.279.566-1.547-.062V2.401a.775.775 0 0 0-.775-.774h-2.425a.775.775 0 0 0-.774.774v4.851a4.418 4.418 0 0 0 4.413 4.413h.375l.063.375v2.974l-1.665 7.806-.211.064a.77.77 0 0 0-.374.251L1.476 36.796H.375v1.549zm33.615-1.549H3.479l6.304-7.689 2.34 2.34a.787.787 0 0 0 1.093.002l2.487-2.485 2.484 2.485a.793.793 0 0 0 1.094-.001l2.484-2.484 2.485 2.483a.787.787 0 0 0 1.094 0l2.341-2.34 6.305 7.689zm-28.926-.75h27.342l-4.775-5.824-1.755 1.756c-.578.577-1.579.577-2.155-.001l-1.955-1.953-1.954 1.954c-.574.576-1.578.578-2.155.001l-1.954-1.955-1.956 1.954c-.571.575-1.58.578-2.155-.001l-1.755-1.755-4.773 5.824zm13.67-6.241l-2.485-2.483a.789.789 0 0 0-1.094 0l-2.485 2.483-1.903-1.9 2.875-3.507h10.183l2.875 3.507-1.903 1.9-2.485-2.483a.79.79 0 0 0-1.093-.001l-2.485 2.484zm3.032-3.461c.407 0 .79.158 1.078.446l1.954 1.954.892-.891-2.219-2.706h-9.473l-2.219 2.706.892.891 1.955-1.954c.575-.574 1.574-.578 2.154 0l1.955 1.954 1.955-1.954a1.509 1.509 0 0 1 1.076-.446zm.862-3.495h-1.469l-1.674-6.688a.773.773 0 0 0-1.501-.001l-1.672 6.688h-1.47l1.619-7.547a.822.822 0 0 0 .017-.167V10.89a.774.774 0 0 0-.773-.774H14.49a2.867 2.867 0 0 1-2.864-2.864V3.176h.876v4.076a1.99 1.99 0 0 0 1.988 1.987h8.488a1.989 1.989 0 0 0 1.988-1.987V3.176h.876v4.076a2.867 2.867 0 0 1-2.864 2.864h-1.213a.774.774 0 0 0-.773.774v4.245c0 .056.006.112.016.158l1.62 7.556zm-3.894-8.026c.701 0 1.309.476 1.478 1.156l1.227 4.902-1.163-5.427a1.53 1.53 0 0 1-.034-.319V10.89c0-.337.11-.649.296-.901h-3.607c.186.252.296.564.296.901v4.245c0 .11-.011.219-.034.324l-1.16 5.408 1.222-4.888a1.524 1.524 0 0 1 1.479-1.156zm6.12 5.202c-.296 0-.627-.026-1.013-.08l-.26-.036-1.033-4.817-.008-3.428h.438a4.34 4.34 0 0 0 1.187-.167l.209-.059.155.152c.468.456.83 1.041 1.123 1.553l.235.413c.458.815.93 1.656 1.65 2.35.295.285.643.539 1.006.734l.387.208-.266.35c-.183.24-.358.483-.523.713-.334.465-.648.904-.933 1.177-.681.657-1.386.937-2.354.937zm-.651-.79c1.21.134 1.806-.034 2.486-.688.234-.225.544-.656.843-1.073l.284-.394a5.322 5.322 0 0 1-.8-.634c-.799-.771-1.298-1.66-1.781-2.521l-.233-.41c-.235-.41-.516-.868-.853-1.239a5.12 5.12 0 0 1-.859.128v2.609l.913 4.222zM18.734 7.691a2.26 2.26 0 0 1-2.258-2.258c0-1.245 1.013-2.257 2.258-2.257s2.258 1.012 2.258 2.257a2.26 2.26 0 0 1-2.258 2.258zm0-3.765c-.832 0-1.508.676-1.508 1.507a1.51 1.51 0 0 0 3.016 0c0-.831-.676-1.507-1.508-1.507z"/><path fill="#252525" d="M15.108 35.556a1.167 1.167 0 1 1 .003-2.335 1.167 1.167 0 0 1-.003 2.335zm0-1.834a.667.667 0 1 0 .003 1.335.667.667 0 0 0-.003-1.335zm3.625 1.834a1.167 1.167 0 1 1 .003-2.335 1.167 1.167 0 0 1-.003 2.335zm0-1.834a.667.667 0 1 0 .003 1.335.667.667 0 0 0-.003-1.335zm3.625 1.834a1.167 1.167 0 1 1 .003-2.335 1.167 1.167 0 0 1-.003 2.335zm0-1.834a.667.667 0 1 0 .003 1.335.667.667 0 0 0-.003-1.335z"/><path d="M36.812 13.297h-3.843a3.128 3.128 0 0 1-2.295-.949c-.627-.63-.944-1.402-.944-2.295s.317-1.664.944-2.29a3.14 3.14 0 0 1 2.295-.943 3 3 0 0 1 1.661.491c.502.327.876.773 1.109 1.327l.317.723h.775c.548 0 1.013.199 1.382.591.368.386.555.855.555 1.394 0 .541-.192 1.006-.57 1.383a1.902 1.902 0 0 1-1.386.568zM32.969 7.32c-.77 0-1.404.261-1.941.797-.537.537-.798 1.17-.798 1.937 0 .767.261 1.402.799 1.942.536.539 1.171.801 1.94.801h3.843c.41 0 .748-.139 1.033-.423.285-.284.424-.621.424-1.029 0-.411-.137-.754-.417-1.05a1.331 1.331 0 0 0-1.02-.435H35.73l-.45-1.025c-.196-.462-.506-.833-.924-1.105s-.885-.41-1.387-.41z"/><path d="M36.812 14.579h-3.843c-1.244 0-2.32-.445-3.198-1.322-.877-.877-1.321-1.953-1.321-3.198 0-1.244.444-2.32 1.321-3.198.878-.877 1.954-1.321 3.198-1.321.87 0 1.674.248 2.39.737a4.406 4.406 0 0 1 1.531 1.807 3.083 3.083 0 0 1 2.177 1.006 3.4 3.4 0 0 1 .941 2.4c-.078.878-.42 1.609-1.015 2.196a3.011 3.011 0 0 1-2.181.893zM32.969 6.04c-1.123 0-2.054.384-2.845 1.175a3.894 3.894 0 0 0-1.175 2.844c0 1.123.385 2.053 1.175 2.844.792.791 1.723 1.176 2.845 1.176h3.843a2.49 2.49 0 0 0 1.83-.75c.517-.508.8-1.117.867-1.862a2.867 2.867 0 0 0-.808-2.036c-.538-.573-1.185-.852-1.976-.852h-.165l-.065-.152a3.925 3.925 0 0 0-1.418-1.738 3.675 3.675 0 0 0-2.108-.649z"/><path d="M39.567 11.819l-.055-.281c-.043-.218-.085-.43-.129-.637l-.169-.85.196-.075a3.474 3.474 0 0 0 1.655-1.306c.41-.604.618-1.285.618-2.022 0-1.01-.343-1.844-1.047-2.548-.704-.707-1.536-1.05-2.544-1.05-.892 0-1.682.287-2.348.852a3.289 3.289 0 0 0-1.183 2.156l-.036.26-.257-.048a32.52 32.52 0 0 0-.667-.117 27.714 27.714 0 0 1-.678-.118l-.239-.044.038-.24a5.075 5.075 0 0 1 1.85-3.229 5.425 5.425 0 0 1 3.521-1.252c1.485 0 2.766.527 3.807 1.567 1.04 1.041 1.567 2.324 1.567 3.814a5.255 5.255 0 0 1-.996 3.126 5.287 5.287 0 0 1-2.631 1.948l-.273.094zm.219-1.458l.088.438.072.353a4.785 4.785 0 0 0 2.117-1.667 4.764 4.764 0 0 0 .902-2.835c0-1.353-.479-2.517-1.421-3.46-.957-.956-2.086-1.421-3.453-1.421-1.202 0-2.28.383-3.204 1.139a4.576 4.576 0 0 0-1.628 2.68c.142.025.281.049.421.071.142.023.284.047.429.073a3.802 3.802 0 0 1 1.312-2.212 4.016 4.016 0 0 1 2.671-.97c1.131 0 2.106.402 2.899 1.194.792.792 1.193 1.768 1.193 2.902 0 .84-.237 1.615-.704 2.304a3.95 3.95 0 0 1-1.694 1.411z"/></svg>