<svg xmlns="http://www.w3.org/2000/svg" width="44.125" height="39.042"><path d="M25.585 39.689l-4.207-9.8-7.931-7.931-9.8-4.208 8.522-8.471a3.293 3.293 0 0 1 1.331-.824 3.077 3.077 0 0 1 1.559-.082l5.037 1.007.013-.006c3.14-3.142 6.537-5.436 10.098-6.819C33.77 1.171 37.77.615 42.085.901l.328.021.021.328c.285 4.317-.263 8.313-1.63 11.877-1.368 3.562-3.654 6.959-6.795 10.101l-.048.048 1.002 5a3.112 3.112 0 0 1-.082 1.559c-.16.496-.438.943-.825 1.332l-8.471 8.522zM4.963 17.5l8.963 3.876 8.112 8.15 3.798 8.846 7.688-7.733a2.55 2.55 0 0 0 .643-1.032c.122-.383.142-.771.06-1.183l-1.08-5.395.331-.33c3.066-3.066 5.295-6.377 6.626-9.839 1.293-3.372 1.832-7.148 1.602-11.229-4.093-.231-7.857.316-11.228 1.625-3.462 1.345-6.773 3.582-9.841 6.649a.747.747 0 0 1-.199.145l-.142.142-.187-.042-5.197-1.04a2.325 2.325 0 0 0-1.182.06 2.52 2.52 0 0 0-1.031.641L4.963 17.5zM3.536 39.375l.067-.489c.473-3.438.978-6.063 1.501-7.806.535-1.784 1.243-3.125 2.103-3.985 1.169-1.169 2.616-1.771 4.3-1.788h.001c1.725 0 3.154.586 4.309 1.74 1.172 1.174 1.757 2.624 1.74 4.31-.016 1.684-.617 3.131-1.787 4.301-.859.86-2.191 1.575-3.958 2.126-1.728.538-4.347 1.052-7.786 1.524l-.49.067zm8.033-13.319c-1.557.016-2.792.529-3.833 1.569-.771.771-1.416 2.006-1.914 3.669-.487 1.622-.96 4.044-1.408 7.201 3.156-.448 5.568-.929 7.174-1.43 1.65-.514 2.878-1.166 3.651-1.939 1.04-1.04 1.553-2.276 1.567-3.778.015-1.498-.482-2.731-1.521-3.771-1.023-1.024-2.238-1.521-3.716-1.521zm-4.645 9.883l.083-.512c.256-1.596.563-2.921.914-3.938.361-1.052.785-1.844 1.261-2.354a3.028 3.028 0 0 1 2.274-1.041l.068-.001c.875 0 1.648.313 2.3.93.647.686.96 1.482.944 2.383a3.037 3.037 0 0 1-1.047 2.281c-.507.475-1.278.888-2.349 1.257-1.028.353-2.353.659-3.938.913l-.51.082zm4.6-7.471l-.054.376a2.279 2.279 0 0 0-1.735.797c-.409.438-.779 1.141-1.106 2.093-.298.866-.565 1.974-.796 3.297 1.314-.229 2.422-.496 3.296-.796.955-.329 1.657-.7 2.086-1.102.527-.471.789-1.039.803-1.742.013-.706-.225-1.308-.725-1.839a2.482 2.482 0 0 0-1.77-.709v-.375zm15.003 6.259l-2.481-5.845.315-.158a55.905 55.905 0 0 0 3.334-1.807 40.837 40.837 0 0 0 3.137-2.036l.472-.338.91 4.499-5.687 5.685zm-1.515-5.49l1.771 4.174 4.616-4.614-.602-2.973a41.737 41.737 0 0 1-2.724 1.74 57.047 57.047 0 0 1-3.061 1.673zm-2.264-1.995l-6.654-6.653.108-.236a37.481 37.481 0 0 1 2.816-5.106c1.049-1.591 2.083-2.898 3.072-3.887 2.577-2.575 5.253-4.493 7.956-5.699 2.709-1.212 5.81-1.875 9.215-1.971l.396-.011-.011.396c-.095 3.404-.758 6.504-1.97 9.216-1.209 2.705-3.127 5.382-5.7 7.957-.99.989-2.297 2.022-3.885 3.07a37.912 37.912 0 0 1-5.106 2.816l-.237.108zm-5.755-6.816l5.916 5.916a37.073 37.073 0 0 0 4.77-2.651c1.545-1.02 2.813-2.021 3.767-2.976 2.509-2.508 4.375-5.11 5.546-7.731 1.125-2.515 1.761-5.383 1.892-8.531-3.149.132-6.018.768-8.53 1.892-2.619 1.169-5.22 3.035-7.732 5.545-.953.953-1.954 2.221-2.976 3.77a36.573 36.573 0 0 0-2.653 4.766zm-2.539-1.136l-5.845-2.481 5.686-5.687 4.499.911-.338.471c-.718 1-1.403 2.055-2.036 3.137a56.749 56.749 0 0 0-1.808 3.333l-.158.316zm-4.529-2.737l4.174 1.771a58.449 58.449 0 0 1 1.672-3.062 41.036 41.036 0 0 1 1.741-2.724l-2.972-.602-4.615 4.617zm19.778.739c-1.029 0-1.906-.355-2.604-1.055-.7-.7-1.055-1.577-1.055-2.604 0-1.028.355-1.904 1.056-2.604.698-.7 1.574-1.055 2.604-1.055 1.027 0 1.903.355 2.604 1.055.7.699 1.055 1.575 1.055 2.604 0 1.028-.354 1.904-1.054 2.604-.702.7-1.578 1.055-2.606 1.055zm0-6.568c-.834 0-1.513.273-2.073.835-.563.562-.836 1.24-.836 2.073s.273 1.512.836 2.074c.561.562 1.238.835 2.073.835.834 0 1.513-.273 2.075-.835.561-.562.834-1.24.834-2.074s-.272-1.512-.834-2.073c-.563-.562-1.242-.835-2.075-.835z"/></svg>