<svg xmlns="http://www.w3.org/2000/svg" width="44.125" height="39.042"><path fill="#252525" d="M9.169 35.362a1.742 1.742 0 0 1-1.352-.648 1.73 1.73 0 0 1-.362-.856l-.333-2.654-2.512-.914a1.748 1.748 0 0 1-1.089-2.013c.119-.514.462-.939.943-1.167l2.419-1.138.094-2.671a1.715 1.715 0 0 1 1.115-1.551 1.75 1.75 0 0 1 1.863.433l1.829 1.95 2.568-.738a1.734 1.734 0 0 1 1.823.581c.435.546.499 1.293.162 1.904l-1.288 2.343 1.495 2.215a1.721 1.721 0 0 1-1.749 2.657l-2.626-.502-1.646 2.106c-.326.419-.816.66-1.345.663h-.009zm-.468-12.975a.969.969 0 0 0-.974.939l-.11 3.13-2.833 1.332a.966.966 0 0 0-.533.658c-.106.457.175.979.614 1.138l2.943 1.069.391 3.107a.964.964 0 0 0 .205.484.987.987 0 0 0 .766.366v.375l.004-.375a.96.96 0 0 0 .758-.374l1.928-2.468 3.076.588a.972.972 0 1 0 .988-1.5l-1.751-2.597 1.509-2.743a.97.97 0 0 0-1.121-1.403l-3.008.865-2.143-2.284a.99.99 0 0 0-.709-.307z"/><path fill="#252525" d="M8.981 34.306l-.525-4.169-4.023-1.462 3.876-1.764.147-4.197 2.875 3.063 4.039-1.159-2.025 3.68 2.35 3.485-4.126-.79-2.588 3.313zm-2.56-5.707l2.722.989.357 2.835 1.76-2.252 2.805.536-1.598-2.37 1.376-2.5-2.746.788-1.955-2.083-.1 2.854-2.621 1.203z"/><path fill="#252525" d="M38.255 39.417H6.941A6.255 6.255 0 0 1 .694 33.17V12.62a6.253 6.253 0 0 1 6.247-6.246h4.528c.195-3.81 3.356-6.85 7.214-6.85h7.828c3.858 0 7.021 3.04 7.216 6.85h4.528A6.253 6.253 0 0 1 44.5 12.62v20.55a6.253 6.253 0 0 1-6.245 6.247zM6.941 7.125a5.502 5.502 0 0 0-5.497 5.496v20.55a5.503 5.503 0 0 0 5.497 5.497h31.314a5.502 5.502 0 0 0 5.495-5.497v-20.55a5.501 5.501 0 0 0-5.495-5.496h-5.269V6.75A6.483 6.483 0 0 0 26.51.275h-7.828a6.482 6.482 0 0 0-6.474 6.475v.375H6.941zm31.314 30.334H6.941a4.295 4.295 0 0 1-4.29-4.289V19.254l19.946 4.689 19.945-4.689V33.17a4.291 4.291 0 0 1-4.287 4.289zM3.401 20.201v12.97a3.544 3.544 0 0 0 3.54 3.539h31.314a3.543 3.543 0 0 0 3.538-3.539v-12.97l-19.195 4.513-.086-.02-19.111-4.493zm19.197 2.503l-.086-.02-19.86-4.67V12.62a4.294 4.294 0 0 1 4.29-4.289h31.314a4.294 4.294 0 0 1 4.288 4.289v5.394l-19.946 4.69zM3.401 17.42l19.196 4.514 19.195-4.514v-4.8a3.543 3.543 0 0 0-3.538-3.539H6.941a3.543 3.543 0 0 0-3.54 3.539v4.8zM31.779 7.125H13.415V6.75a5.274 5.274 0 0 1 5.268-5.268h7.828A5.275 5.275 0 0 1 31.78 6.75v.375zm-17.598-.75h16.833a4.525 4.525 0 0 0-4.503-4.143h-7.828a4.523 4.523 0 0 0-4.502 4.143z"/></svg>