<svg xmlns="http://www.w3.org/2000/svg" width="44.125" height="39.042"><path fill="#252525" d="M28.841 39.392h-6.345a.35.35 0 0 1-.348-.311l-.061-.533a3.225 3.225 0 0 1-.038-.42 3.872 3.872 0 0 1 2.937-3.76v-1.673H19.01v1.673a3.873 3.873 0 0 1 2.937 3.76c0 .12-.013.235-.029.351l-.072.519a.35.35 0 0 1-.286.296l-.534.094-6.405.005a.35.35 0 0 1-.348-.311l-.061-.533a3.225 3.225 0 0 1-.038-.42 3.872 3.872 0 0 1 2.937-3.76v-2.021c-.835-.395-1.344-1.084-1.344-1.843v-6.724l-1.132.659c.393.5.604 1.108.604 1.751a2.877 2.877 0 0 1-2.501 2.843v.642l1.824 1.054a.351.351 0 0 1 .175.303v1.98a.35.35 0 0 1-.35.35h-1.199a.35.35 0 0 1-.35-.35v-1.085l-.956-.552-.957.552v1.104l1.431.826a.348.348 0 0 1 .128.478l-.6 1.039a.347.347 0 0 1-.478.128L9.2 34.229a.351.351 0 0 1-.175-.303v-2.893c0-.125.067-.24.175-.303l1.638-.946V28.6a2.86 2.86 0 0 1-1.333-2.408 2.87 2.87 0 0 1 2.868-2.866c.12 0 .238.011.353.026l3.127-1.818c.304-.996 1.447-1.679 2.847-1.679h.577v-1.712h-5.552a3.422 3.422 0 0 1-3.418-3.419v-.144h-1.34a2.192 2.192 0 0 1-2.189-2.19v-.582l-.767.211c.027.146.041.286.041.424 0 1.42-1.155 2.575-2.575 2.575S.902 13.863.902 12.443s1.155-2.575 2.575-2.575c.527 0 1.031.163 1.469.473l1.831-.503V8.471c0-1.208.982-2.19 2.189-2.19h1.341v-.12a3.423 3.423 0 0 1 3.418-3.419h2.395v-.811c0-1.228 1.281-2.189 2.917-2.189h6.215c1.636 0 2.916.962 2.916 2.189v.811h2.394a3.423 3.423 0 0 1 3.419 3.419v.12h1.569c1.207 0 2.188.983 2.188 2.19v1.365l1.831.503c.438-.31.942-.473 1.47-.473 1.42 0 2.574 1.155 2.574 2.575s-1.154 2.575-2.574 2.575-2.574-1.155-2.574-2.575c0-.138.013-.278.041-.424l-.768-.211v.582a2.19 2.19 0 0 1-2.188 2.19h-1.569v.144a3.423 3.423 0 0 1-3.419 3.419H25.01v1.712h.576c1.231 0 2.281.548 2.713 1.361a.35.35 0 0 1 .154.047l3.593 2.09c.116-.016.233-.026.354-.026a2.87 2.87 0 0 1 2.867 2.866c0 .977-.505 1.881-1.333 2.408v1.184l1.638.946a.351.351 0 0 1 .175.303v2.893c0 .125-.066.24-.175.303l-2.206 1.274a.349.349 0 0 1-.478-.128l-.6-1.039a.344.344 0 0 1-.035-.266.345.345 0 0 1 .163-.212l1.432-.826v-1.104l-.957-.552-.956.552v1.085a.35.35 0 0 1-.35.35h-1.199a.35.35 0 0 1-.35-.35v-1.98c0-.125.066-.24.175-.303l1.824-1.054v-.642a2.876 2.876 0 0 1-2.501-2.843c0-.643.212-1.251.604-1.751l-1.617-.939v7.006c0 .859-.633 1.611-1.636 1.97v1.894a3.872 3.872 0 0 1 2.937 3.76c0 .12-.013.235-.028.351l-.072.519a.35.35 0 0 1-.286.296l-.534.094-.061.002zm-6.032-.699h6.002l.253-.045.037-.266c.012-.083.022-.167.022-.254a3.176 3.176 0 0 0-2.646-3.132.349.349 0 0 1-.29-.345v-2.434c0-.157.105-.296.257-.338.838-.229 1.379-.769 1.379-1.375V22.89a.35.35 0 0 1 .526-.303l2.519 1.466a.348.348 0 0 1 .063.559 2.146 2.146 0 0 0-.694 1.579c0 1.187.967 2.158 2.153 2.166a.35.35 0 0 1 .348.35v1.171c0 .125-.066.24-.175.303l-1.824 1.054v1.429h.5v-.938c0-.125.066-.24.175-.303l1.306-.754a.348.348 0 0 1 .35 0l1.307.754a.351.351 0 0 1 .175.303v1.508c0 .125-.066.24-.175.303l-1.303.752.249.433 1.729-.998v-2.488l-1.638-.946a.351.351 0 0 1-.175-.303V28.4c0-.129.07-.247.184-.308a2.165 2.165 0 0 0 1.149-1.9 2.17 2.17 0 0 0-2.168-2.167 2.29 2.29 0 0 0-.363.037.331.331 0 0 1-.234-.042l-3.405-1.98a.349.349 0 0 1-.603-.174c-.134-.747-1.082-1.312-2.207-1.312h-.926a.35.35 0 0 1-.35-.35v-2.413a.35.35 0 0 1 .35-.35h5.901c1.499 0 2.72-1.22 2.72-2.719v-.494a.35.35 0 0 1 .35-.35h1.919a1.49 1.49 0 0 0 1.489-1.49v-1.041a.35.35 0 0 1 .443-.337l1.54.423a.349.349 0 0 1 .241.442 1.844 1.844 0 0 0-.099.565c0 1.034.842 1.875 1.875 1.875s1.875-.841 1.875-1.875-.842-1.875-1.875-1.875c-.425 0-.831.148-1.175.428a.351.351 0 0 1-.313.066l-2.255-.62a.35.35 0 0 1-.257-.337V8.471a1.49 1.49 0 0 0-1.489-1.49h-1.919a.35.35 0 0 1-.35-.35v-.47a2.723 2.723 0 0 0-2.72-2.719h-2.743a.35.35 0 0 1-.35-.35V1.931c0-.835-.974-1.489-2.217-1.489h-6.215c-1.243 0-2.216.654-2.216 1.489v1.161a.35.35 0 0 1-.35.35h-2.745a2.722 2.722 0 0 0-2.718 2.719v.47a.35.35 0 0 1-.35.35H8.967a1.49 1.49 0 0 0-1.489 1.49v1.632a.348.348 0 0 1-.257.337l-2.255.62a.353.353 0 0 1-.313-.066 1.847 1.847 0 0 0-1.175-.428c-1.034 0-1.875.841-1.875 1.875s.841 1.875 1.875 1.875 1.875-.841 1.875-1.875a1.84 1.84 0 0 0-.098-.565.345.345 0 0 1 .026-.272.343.343 0 0 1 .215-.17l1.54-.423a.352.352 0 0 1 .443.337v1.041c0 .822.668 1.49 1.489 1.49h1.691a.35.35 0 0 1 .35.35v.494a2.722 2.722 0 0 0 2.718 2.719h5.902a.35.35 0 0 1 .35.35v2.413a.35.35 0 0 1-.35.35h-.927c-1.12 0-2.046.539-2.203 1.281a.345.345 0 0 1-.167.23l-3.36 1.954a.33.33 0 0 1-.234.042 2.179 2.179 0 0 0-.363-.037 2.17 2.17 0 0 0-2.167 2.167c0 .789.44 1.518 1.149 1.9a.35.35 0 0 1 .184.308v1.586c0 .125-.067.24-.175.303l-1.638.946v2.488l1.728.998.25-.433-1.303-.752a.351.351 0 0 1-.175-.303v-1.508c0-.125.067-.24.175-.303l1.307-.754a.348.348 0 0 1 .35 0l1.306.754a.351.351 0 0 1 .175.303v.938h.499v-1.429l-1.824-1.054a.351.351 0 0 1-.175-.303v-1.171a.35.35 0 0 1 .348-.35 2.171 2.171 0 0 0 2.153-2.166c0-.601-.247-1.161-.694-1.579a.352.352 0 0 1 .062-.559l2.033-1.184a.352.352 0 0 1 .527.303v7.332c0 .535.418 1.017 1.119 1.285a.353.353 0 0 1 .225.327v2.534a.35.35 0 0 1-.291.345 3.176 3.176 0 0 0-2.646 3.132c0 .091.011.179.032.335l.026.229 6.254-.042.038-.269c.011-.083.022-.167.022-.254a3.176 3.176 0 0 0-2.646-3.132.35.35 0 0 1-.291-.345v-2.309a.35.35 0 0 1 .35-.35l6.676.003a.35.35 0 0 1 .35.35v2.306a.35.35 0 0 1-.29.345 3.176 3.176 0 0 0-2.646 3.132c0 .091.012.179.032.335l.025.233zm5.447-.502h-4.639a.35.35 0 0 1-.348-.392 2.688 2.688 0 0 1 5.334 0 .35.35 0 0 1-.347.392zm-4.202-.699h3.766c-.268-.791-1.018-1.35-1.883-1.35s-1.616.559-1.883 1.35zm-3.673.699h-4.639a.35.35 0 0 1-.347-.392 2.687 2.687 0 0 1 5.334 0 .35.35 0 0 1-.348.392zm-4.202-.699h3.765c-.267-.791-1.017-1.35-1.882-1.35s-1.616.559-1.883 1.35zm9.408-5.996h-6.885c-.94 0-1.735-.453-1.735-.99v-8.459c0-.537.794-.99 1.735-.99h6.885c.94 0 1.735.453 1.735.99v8.459c0 .536-.795.99-1.735.99zm-6.885-9.741c-.66 0-1.005.267-1.044.342l.009 8.408c.03.024.375.291 1.035.291h6.885c.66 0 1.006-.267 1.045-.342l-.009-8.408c-.03-.024-.376-.291-1.036-.291h-6.885zM32.4 27.859a1.668 1.668 0 0 1-1.666-1.667c0-.633.36-1.203.94-1.487a.36.36 0 0 1 .217-.03.36.36 0 0 1 .166-.087c.138-.037.229-.063.343-.063.92 0 1.668.748 1.668 1.667s-.748 1.667-1.668 1.667zm-.569-2.435a.95.95 0 0 0-.397.768.97.97 0 0 0 1.936 0 .97.97 0 0 0-.969-.968.202.202 0 0 0-.039.007l-.042.072a.349.349 0 0 1-.478.127l-.011-.006zm-19.456 2.435c-.92 0-1.668-.748-1.668-1.667s.749-1.667 1.668-1.667c.113 0 .205.025.279.046a.8.8 0 0 1 .217.106.344.344 0 0 1 .229.027c.581.284.941.854.941 1.487a1.668 1.668 0 0 1-1.666 1.668zm0-2.635c-.534 0-.968.435-.968.968s.434.968.968.968a.968.968 0 0 0 .966-.968.947.947 0 0 0-.397-.768l-.01.006a.348.348 0 0 1-.478-.127l-.042-.072a.19.19 0 0 0-.039-.007zm11.087-5.033h-2.634a.35.35 0 0 1-.35-.35v-1.799a.35.35 0 0 1 .35-.35h2.634a.35.35 0 0 1 .35.35v1.799a.35.35 0 0 1-.35.35zm-2.284-.7h1.934v-1.099h-1.934v1.099zm9.385-2.549H13.727a2.222 2.222 0 0 1-2.219-2.219V6.161c0-1.223.996-2.219 2.219-2.219h16.836c1.225 0 2.22.996 2.22 2.219v8.563a2.223 2.223 0 0 1-2.22 2.218zm-16.836-12.3a1.52 1.52 0 0 0-1.519 1.519v8.563a1.52 1.52 0 0 0 1.519 1.519h16.836c.838 0 1.521-.681 1.521-1.519V6.161c0-.837-.683-1.519-1.521-1.519H13.727zm27.313 9.175a1.376 1.376 0 0 1 0-2.75 1.376 1.376 0 0 1 0 2.75zm0-2.05a.677.677 0 0 0-.676.675.677.677 0 0 0 1.352 0 .677.677 0 0 0-.676-.675zm-37.562 2.05c-.758 0-1.375-.617-1.375-1.375s.617-1.375 1.375-1.375 1.375.617 1.375 1.375-.617 1.375-1.375 1.375zm0-2.05a.675.675 0 1 0 0 1.35.675.675 0 0 0 0-1.35zm32.073 1.612h-1.099a.35.35 0 0 1-.35-.35V7.831a.35.35 0 0 1 .35-.35h1.099a.99.99 0 0 1 .989.99v3.918a.99.99 0 0 1-.989.99zm-.749-.7h.749c.16 0 .29-.13.29-.29V8.471a.29.29 0 0 0-.29-.29h-.749v4.498zm-24.737.7H8.967a.991.991 0 0 1-.99-.99V8.471c0-.546.444-.99.99-.99h1.099a.35.35 0 0 1 .35.35v5.198a.35.35 0 0 1-.351.35zM8.967 8.181a.29.29 0 0 0-.29.29v3.918c0 .16.13.29.29.29h.749V8.181h-.749zM26.62 3.379h-8.949a.35.35 0 0 1-.35-.35V1.931c0-.536.787-.989 1.717-.989h6.215c.931 0 1.717.453 1.717.989v1.098a.35.35 0 0 1-.35.35zm-8.602-.7h8.252v-.748c-.03-.025-.369-.289-1.018-.289h-6.215c-.648 0-.988.264-1.026.339l.007.698z"/><path fill="#252525" d="M23.79 27.017h-3.5c-1.282 0-2.325-1.043-2.325-2.325s1.043-2.325 2.325-2.325h3.5c1.282 0 2.324 1.043 2.324 2.325s-1.042 2.325-2.324 2.325zm-3.5-3.951a1.627 1.627 0 0 0 0 3.252h3.5a1.627 1.627 0 0 0 0-3.252h-3.5zm3.5 2.75h-3.5a1.125 1.125 0 0 1 0-2.248h3.5c.62 0 1.125.504 1.125 1.124s-.505 1.124-1.125 1.124zm-3.5-1.549a.425.425 0 0 0 0 .85h3.5a.425.425 0 0 0 0-.85h-3.5zm-3.937-8.538c-1.641 0-2.975-1.334-2.975-2.975s1.334-2.975 2.975-2.975 2.975 1.334 2.975 2.975-1.335 2.975-2.975 2.975zm0-5.25c-1.254 0-2.275 1.021-2.275 2.275s1.021 2.275 2.275 2.275 2.275-1.021 2.275-2.275-1.021-2.275-2.275-2.275zm0 3.75c-.813 0-1.475-.662-1.475-1.475s.662-1.475 1.475-1.475 1.475.662 1.475 1.475-.662 1.475-1.475 1.475zm0-2.25c-.427 0-.775.348-.775.775s.348.775.775.775.775-.348.775-.775-.348-.775-.775-.775zm11.5 3.75c-1.641 0-2.975-1.334-2.975-2.975s1.334-2.975 2.975-2.975 2.975 1.334 2.975 2.975-1.335 2.975-2.975 2.975zm0-5.25c-1.255 0-2.275 1.021-2.275 2.275s1.021 2.275 2.275 2.275 2.275-1.021 2.275-2.275-1.021-2.275-2.275-2.275zm0 3.75c-.813 0-1.475-.662-1.475-1.475s.661-1.475 1.475-1.475 1.475.662 1.475 1.475-.662 1.475-1.475 1.475zm0-2.25a.776.776 0 1 0 .001 1.551.776.776 0 0 0-.001-1.551zM13.665 9.417a1.1 1.1 0 0 1-.348-2.143l4.125-1.375a1.12 1.12 0 0 1 1.392.695c.192.576-.12 1.2-.695 1.392L14.013 9.36a1.09 1.09 0 0 1-.348.057zm4.127-2.876a.404.404 0 0 0-.128.021l-4.125 1.375a.4.4 0 0 0-.253.506c.068.204.301.32.506.252l4.125-1.375a.4.4 0 0 0-.125-.779zM30.79 9.417a1.09 1.09 0 0 1-.348-.057l-4.125-1.375a1.101 1.101 0 0 1-.696-1.391 1.117 1.117 0 0 1 1.392-.696l4.125 1.375a1.101 1.101 0 0 1-.348 2.144zm-4.129-2.876a.402.402 0 0 0-.123.78l4.125 1.375a.41.41 0 0 0 .507-.253.4.4 0 0 0-.253-.505l-4.125-1.375a.396.396 0 0 0-.131-.022zm-2.64 9.376h-3.75c-.606 0-1.1-.494-1.1-1.1s.494-1.1 1.1-1.1h3.75c.606 0 1.1.494 1.1 1.1s-.494 1.1-1.1 1.1zm-3.75-1.5a.4.4 0 1 0 0 .8h3.75a.4.4 0 1 0 0-.8h-3.75z"/></svg>