<?xml version="1.0" encoding="utf-8"?>
<!-- Generator: Adobe Illustrator 15.1.0, SVG Export Plug-In . SVG Version: 6.00 Build 0)  -->
<!DOCTYPE svg PUBLIC "-//W3C//DTD SVG 1.1//EN" "http://www.w3.org/Graphics/SVG/1.1/DTD/svg11.dtd">
<svg version="1.1" id="Layer_1" xmlns="http://www.w3.org/2000/svg" xmlns:xlink="http://www.w3.org/1999/xlink" x="0px" y="0px"
	 width="17.5px" height="14.664px" viewBox="0 0 17.5 14.664" enable-background="new 0 0 17.5 14.664" xml:space="preserve">
<path d="M10.325,0H7.658C4.864,0,2.59,2.272,2.59,5.066V7.47c0,2.079,1.19,3.949,3.113,4.711l-0.006,2.332l2.087-1.977h2.542
	c2.795,0,5.068-2.273,5.068-5.066V5.066C15.394,2.272,13.12,0,10.325,0z M8.595,2.144c1.35,0.064,2.366,0.465,3.146,1.517
	c0.458,0.616,0.706,1.448,0.73,2.222c0,0.115,0.005,0.229-0.001,0.344c-0.007,0.127-0.063,0.225-0.207,0.227
	c-0.146,0.002-0.217-0.077-0.227-0.225c-0.038-0.569-0.148-1.124-0.366-1.654c-0.422-1.027-1.229-1.579-2.268-1.846
	C9.128,2.659,8.851,2.6,8.567,2.577C8.439,2.567,8.322,2.541,8.331,2.37C8.34,2.201,8.437,2.137,8.595,2.144z M9.692,3.803
	C9.418,3.707,9.14,3.63,8.852,3.588C8.712,3.567,8.612,3.494,8.638,3.33c0.024-0.154,0.124-0.215,0.272-0.201
	c0.941,0.089,1.677,0.432,2.184,1.248c0.236,0.382,0.376,0.922,0.354,1.328c-0.015,0.287-0.059,0.362-0.223,0.356
	c-0.238-0.006-0.204-0.203-0.223-0.347c-0.027-0.223-0.076-0.44-0.136-0.655C10.694,4.438,10.304,4.017,9.692,3.803z M10.489,5.392
	c-0.009,0.08-0.01,0.134-0.022,0.187c-0.025,0.104-0.089,0.168-0.203,0.17c-0.116,0.001-0.178-0.066-0.209-0.167
	c-0.021-0.068-0.026-0.143-0.04-0.213C9.941,4.99,9.725,4.74,9.348,4.639C9.301,4.626,9.253,4.62,9.207,4.607
	c-0.119-0.034-0.267-0.035-0.272-0.21C8.93,4.253,9.04,4.168,9.238,4.155C9.373,4.147,9.58,4.213,9.701,4.272
	C10.196,4.514,10.429,4.854,10.489,5.392z M12.473,9.39c-0.262,0.592-0.71,0.983-1.336,1.16c-0.227,0.064-0.446,0.009-0.654-0.079
	C7.627,9.256,5.563,7.25,4.396,4.356C4.311,4.147,4.262,3.929,4.27,3.729c0.001-0.746,0.656-1.434,1.373-1.474
	c0.198-0.011,0.37,0.056,0.512,0.189c0.504,0.473,0.91,1.02,1.206,1.644c0.161,0.338,0.094,0.577-0.195,0.819
	C7.118,4.947,7.068,4.981,7.019,5.017c-0.384,0.281-0.47,0.567-0.286,1.01c0.301,0.726,0.792,1.296,1.453,1.718
	c0.25,0.159,0.505,0.31,0.793,0.394c0.264,0.077,0.475-0.005,0.644-0.213c0.02-0.023,0.037-0.048,0.055-0.072
	c0.367-0.51,0.762-0.6,1.296-0.268c0.457,0.283,0.889,0.607,1.299,0.958C12.549,8.779,12.619,9.058,12.473,9.39z"/>
</svg>
