<?xml version="1.0" encoding="utf-8"?>
<!-- Generator: Adobe Illustrator 15.1.0, SVG Export Plug-In . SVG Version: 6.00 Build 0)  -->
<!DOCTYPE svg PUBLIC "-//W3C//DTD SVG 1.1//EN" "http://www.w3.org/Graphics/SVG/1.1/DTD/svg11.dtd">
<svg version="1.1" id="Layer_1" xmlns="http://www.w3.org/2000/svg" xmlns:xlink="http://www.w3.org/1999/xlink" x="0px" y="0px"
	 width="27px" height="28.252px" viewBox="0.055 2.685 27 28.252" enable-background="new 0.055 2.685 27 28.252"
	 xml:space="preserve">
<g>
	<path fill="#F48120" d="M9.003,14.82c-0.426-0.679-1.507-2.155-1.05-2.76l-0.002-0.001c0.001-0.001,0.002-0.001,0.002-0.002
		c0.002-0.002,0.005-0.005,0.007-0.007c0.003-0.002,0.004-0.005,0.007-0.007c0.001-0.001,0.001-0.001,0.002-0.002H7.97
		c0.559-0.514,2.133,0.418,2.851,0.777c0.764,0.382,1.521,0.693,1.854,1.584C12.88,14.95,12.707,15.55,12.337,16l0.001,0.001
		c-0.003,0.003-0.006,0.006-0.01,0.01c-0.003,0.004-0.006,0.007-0.009,0.011h-0.001c-0.413,0.41-0.993,0.641-1.559,0.491
		C9.842,16.266,9.459,15.543,9.003,14.82z"/>
	<path fill="#F48120" d="M0.055,27.06c0.392-0.568,0.916-0.935,1.306-1.507c3.654,3.396,9.937,3.85,14.058,2.391
		c4.007-1.419,7.661-4.556,8.989-9.412c1.744-6.37-0.614-10.901-3.954-14.269c0.385-0.608,0.89-1.038,1.321-1.579
		c4.636,4.125,7.241,11.81,3.482,19.251c-2.905,5.751-9.295,9.875-16.722,8.842c-3.695-0.513-6.152-1.857-8.288-3.528
		C0.201,27.177,0.054,27.167,0.055,27.06z"/>
	<path fill="#F6921E" d="M18.731,14.759c-1.438-0.083-4.698-0.501-5.255,0.743h-0.003c0,0.002-0.001,0.004-0.002,0.006
		c-0.002,0.005-0.002,0.013-0.004,0.018c-0.002,0.005-0.005,0.01-0.007,0.016c0,0.001-0.001,0.003-0.002,0.006l0.003,0.002
		c-0.323,1.323,2.508,2.993,3.695,3.811c1.266,0.871,2.413,1.791,4.104,1.542c1.041-0.153,1.834-0.945,2.223-1.918h0.003
		c0.002-0.008,0.004-0.016,0.006-0.022c0.003-0.008,0.006-0.016,0.009-0.022h-0.003c0.29-1.005,0.149-2.119-0.578-2.879
		C21.736,14.825,20.264,14.848,18.731,14.759z"/>
	<path fill="#F6921E" d="M15.899,8.73c-0.922,1.108-3.195,3.481-2.526,4.669l-0.003,0.001c0.002,0.001,0.003,0.003,0.004,0.006
		c0.004,0.005,0.007,0.008,0.011,0.013c0.003,0.004,0.005,0.009,0.008,0.014c0.002,0.002,0.003,0.004,0.004,0.007l0.002-0.003
		c0.873,1.049,3.899-0.236,5.26-0.707c1.454-0.5,2.876-0.876,3.68-2.384c0.495-0.928,0.329-2.037-0.222-2.928l0.002-0.001
		c-0.005-0.007-0.01-0.013-0.015-0.02c-0.004-0.006-0.008-0.014-0.012-0.021l-0.002,0.002c-0.637-0.831-1.615-1.38-2.659-1.245
		C17.738,6.352,16.882,7.55,15.899,8.73z"/>
	<path fill="#F6921E" d="M5.426,20.096c1.028-1.009,3.208-3.469,4.448-2.899l0.002-0.002c0.002,0,0.003,0.002,0.006,0.003
		c0.005,0.004,0.009,0.007,0.014,0.011c0.005,0.001,0.01,0.004,0.015,0.008c0.002,0.001,0.004,0.002,0.006,0.003l-0.001,0.002
		c1.115,0.786,0.082,3.905-0.276,5.3c-0.38,1.49-0.638,2.938-2.075,3.861c-0.885,0.569-2.004,0.494-2.936,0.019l-0.001,0.003
		c-0.007-0.004-0.014-0.009-0.02-0.014C4.6,26.388,4.592,26.383,4.586,26.38l0.001-0.001c-0.88-0.567-1.507-1.498-1.458-2.549
		C3.206,22.123,4.329,21.172,5.426,20.096z"/>
	<path fill="#F6921E" d="M16.148,20.41c-0.958-1.077-2.968-3.677-4.242-3.191l-0.002-0.004c-0.002,0.003-0.003,0.004-0.006,0.004
		c-0.005,0.002-0.01,0.006-0.015,0.008c-0.005,0.002-0.011,0.003-0.016,0.006c-0.002,0.001-0.005,0.001-0.006,0.003l0.002,0.003
		c-1.166,0.707-0.344,3.892-0.083,5.308c0.28,1.511,0.44,2.974,1.81,3.992c0.845,0.627,1.966,0.627,2.929,0.215l0.001,0.004
		c0.007-0.004,0.014-0.009,0.021-0.013c0.008-0.003,0.015-0.006,0.023-0.008l-0.001-0.003c0.915-0.506,1.603-1.393,1.626-2.444
		C18.228,22.58,17.17,21.556,16.148,20.41z"/>
</g>
</svg>
