<?xml version="1.0" encoding="utf-8"?>
<!-- Generator: Adobe Illustrator 15.1.0, SVG Export Plug-In . SVG Version: 6.00 Build 0)  -->
<!DOCTYPE svg PUBLIC "-//W3C//DTD SVG 1.1//EN" "http://www.w3.org/Graphics/SVG/1.1/DTD/svg11.dtd">
<svg version="1.1" id="Layer_1" xmlns="http://www.w3.org/2000/svg" xmlns:xlink="http://www.w3.org/1999/xlink" x="0px" y="0px"
	 width="459.754px" height="350.074px" viewBox="0 0 459.754 350.074" enable-background="new 0 0 459.754 350.074"
	 xml:space="preserve">
<g>
	<path fill="#0336FF" stroke="#FFFFFF" stroke-width="1.4173" stroke-miterlimit="10" d="M49.533,252.998
		c8.851,0,16.939,1.766,24.27,5.296c7.329,3.532,13.453,8.247,18.369,14.146l-23.598,16.224c-4.114-6.078-10.189-9.117-18.235-9.117
		c-5.633,0-10.55,2.079-14.75,6.235c-4.202,4.155-6.3,9.408-6.3,15.753c0,6.349,2.1,11.599,6.3,15.756
		c4.201,4.157,9.118,6.234,14.75,6.234c8.045,0,14.121-3.038,18.235-9.117l23.598,16.224c-4.916,5.9-11.04,10.614-18.369,14.146
		c-7.33,3.533-15.419,5.297-24.27,5.297c-13.588,0-25.32-4.558-35.197-13.678c-9.877-9.117-14.816-20.736-14.816-34.861
		c0-14.121,4.937-25.744,14.816-34.861C24.213,257.556,35.947,252.998,49.533,252.998z"/>
	<path fill="#0336FF" stroke="#FFFFFF" stroke-width="1.4173" stroke-miterlimit="10" d="M109.736,281.155v-26.55h68.918v26.55
		h-18.906v67.309h-31.107v-67.309H109.736z"/>
	<path fill="#0336FF" stroke="#FFFFFF" stroke-width="1.4173" stroke-miterlimit="10" d="M243.955,254.605l37.944,92.383
		l-29.499,3.084l-4.961-13.943h-25.342l-4.826,13.943l-29.5-3.084l37.946-92.383H243.955z M234.836,295.77l-7.106,21.856h14.213
		L234.836,295.77z"/>
	<path fill="#0336FF" stroke="#FFFFFF" stroke-width="1.4173" stroke-miterlimit="10" d="M372.271,287.589
		c0,9.655-3.532,17.566-10.592,23.734c-7.063,6.167-17.12,9.251-30.169,9.251v27.89h-29.767v-93.859h31.107
		c12.514,0,22.211,3.108,29.096,9.319C368.83,270.137,372.271,278.026,372.271,287.589z M331.51,277.133v20.916h4.425
		c2.77,0,5.005-0.892,6.704-2.683c1.696-1.786,2.549-4.377,2.549-7.777c0-3.394-0.852-5.987-2.549-7.776
		c-1.699-1.786-3.935-2.681-6.704-2.681L331.51,277.133L331.51,277.133z"/>
	<path fill="#0336FF" stroke="#FFFFFF" stroke-width="1.4173" stroke-miterlimit="10" d="M389.836,281.155v-26.55h68.918v26.55
		h-18.905v67.309h-31.105v-67.309H389.836z"/>
</g>
<g>
	<g>
		<path fill="#FFFFFF" d="M179.848,188.439v7.965h-3.915v-4.252h-12.419v4.252h-3.916v-7.965h1.789
			c1.148-2.564,1.951-5.267,2.414-8.1c0.46-2.834,0.692-6.098,0.692-9.788v-2.024h13.196v19.912H179.848L179.848,188.439z
			 M165.403,188.439h8.371v-16.2h-5.636C168.115,178.586,167.203,183.984,165.403,188.439z"/>
		<path fill="#FFFFFF" d="M195.845,188.439v3.713h-12.319v-23.625h12.015v3.712h-8.1v5.063h7.256v3.578h-7.256v7.559H195.845
			L195.845,188.439z"/>
		<path fill="#FFFFFF" d="M198.275,172.239v-3.712h15.052v3.712h-5.569v19.913h-3.915v-19.913H198.275z"/>
		<path fill="#FFFFFF" d="M228.142,168.121c3.511,0,6.479,1.215,8.909,3.646l-2.701,2.633c-1.642-1.709-3.712-2.565-6.208-2.565
			c-2.386,0-4.404,0.811-6.059,2.43c-1.653,1.618-2.48,3.646-2.48,6.075s0.827,4.455,2.48,6.073
			c1.654,1.621,3.673,2.431,6.059,2.431c2.496,0,4.566-0.855,6.208-2.564l2.701,2.634c-2.43,2.429-5.399,3.644-8.909,3.644
			c-3.42,0-6.351-1.177-8.792-3.526c-2.442-2.353-3.662-5.25-3.662-8.69c0-3.441,1.22-6.339,3.662-8.69
			C221.791,169.298,224.722,168.121,228.142,168.121z"/>
		<path fill="#FFFFFF" d="M244.88,192.152h-3.913v-23.625h3.913V192.152z M244.88,180.138l8.844-12.015l3.104,1.992l-7.594,9.988
			l8.775,10.261l-3.206,2.193L244.88,180.138z"/>
		<path fill="#FFFFFF" d="M276.977,176.256l-14.411,16.301l-1.418-0.339v-23.69h3.915v15.896l14.411-16.302l1.419,0.339v23.692
			h-3.916V176.256z"/>
		<path fill="#FFFFFF" d="M301.985,176.256l-14.41,16.301l-1.419-0.339v-23.69h3.914v15.896l14.411-16.302l1.418,0.339v23.692
			h-3.914V176.256z M291.05,160.765h2.834c0,0.654,0.192,1.237,0.574,1.755c0.382,0.518,0.899,0.776,1.553,0.776
			s1.17-0.258,1.553-0.776c0.382-0.516,0.574-1.101,0.574-1.755h2.834c0,1.485-0.471,2.733-1.417,3.745
			c-0.946,1.013-2.127,1.519-3.544,1.519s-2.599-0.506-3.544-1.519C291.522,163.499,291.05,162.251,291.05,160.765z"/>
	</g>
	<g>
		<path fill="#FFFFFF" d="M211.012,220.798h1.881v5.278h-1.881v-3.566h-13.03v-19.656h1.91v17.944h9.21v-17.944h1.91V220.798
			L211.012,220.798z"/>
		<path fill="#FFFFFF" d="M225.698,220.798v1.712h-9.407v-19.656h9.126v1.713H218.2v6.01h6.487v1.712H218.2v8.508h7.499V220.798z"/>
		<path fill="#FFFFFF" d="M240.862,202.853h1.909v19.656h-1.909v-9.912h-9.351v9.912h-1.91v-19.656h1.91v8.03h9.351V202.853z"/>
		<path fill="#FFFFFF" d="M245.776,204.568v-1.713h11.794v1.713h-4.942v17.943h-1.91v-17.943H245.776z"/>
		<path fill="#FFFFFF" d="M262.484,214.199v8.311h-1.91v-19.656h4.129c1.983,0,3.556,0.535,4.717,1.602
			c1.16,1.066,1.742,2.425,1.742,4.07c0,1.648-0.582,3.006-1.742,4.072c-1.161,1.066-2.734,1.602-4.717,1.602H262.484z
			 M262.484,212.486h2.162c1.404,0,2.522-0.361,3.354-1.082c0.832-0.722,1.249-1.68,1.249-2.879c0-1.197-0.417-2.158-1.249-2.88
			c-0.832-0.721-1.95-1.079-3.354-1.079h-2.162V212.486z"/>
	</g>
</g>
</svg>
