<?xml version="1.0" encoding="utf-8"?>
<!-- Generator: Adobe Illustrator 15.1.0, SVG Export Plug-In . SVG Version: 6.00 Build 0)  -->
<!DOCTYPE svg PUBLIC "-//W3C//DTD SVG 1.1//EN" "http://www.w3.org/Graphics/SVG/1.1/DTD/svg11.dtd">
<svg version="1.1" id="Layer_1" xmlns="http://www.w3.org/2000/svg" xmlns:xlink="http://www.w3.org/1999/xlink" x="0px" y="0px"
	 width="459.754px" height="149.402px" viewBox="0 0 459.754 149.402" enable-background="new 0 0 459.754 149.402"
	 xml:space="preserve">
<path fill="#0336FF" stroke="#FFFFFF" stroke-width="1.417" stroke-miterlimit="10" d="M90.457,0c6.975,0,13.348,1.393,19.125,4.173
	c5.775,2.784,10.602,6.5,14.476,11.148l-18.596,12.785c-3.242-4.79-8.03-7.185-14.37-7.185c-4.439,0-8.313,1.638-11.623,4.914
	c-3.313,3.274-4.965,7.414-4.965,12.414c0,5.004,1.654,9.141,4.965,12.416c3.311,3.276,7.185,4.913,11.623,4.913
	c6.34,0,11.128-2.395,14.37-7.185l18.596,12.785c-3.874,4.649-8.7,8.364-14.476,11.146c-5.776,2.784-12.15,4.175-19.125,4.175
	c-10.709,0-19.953-3.591-27.736-10.778c-7.784-7.186-11.676-16.341-11.676-27.472c0-11.128,3.891-20.288,11.676-27.472
	C70.504,3.593,79.75,0,90.457,0L90.457,0z M137.898,22.189V1.267h54.311v20.922H177.31v53.042h-24.514V22.189H137.898z
	 M243.668,1.267l29.899,72.801l-23.245,2.43l-3.909-10.986h-19.971l-3.803,10.986l-23.247-2.43l29.903-72.801H243.668L243.668,1.267
	z M236.482,33.707l-5.6,17.222h11.2L236.482,33.707z M344.784,27.259c0,7.609-2.783,13.843-8.346,18.703
	c-5.565,4.86-13.491,7.29-23.773,7.29v21.979h-23.458V1.267h24.512c9.861,0,17.504,2.449,22.929,7.344
	C342.074,13.507,344.784,19.723,344.784,27.259z M312.665,19.019v16.482h3.485c2.185,0,3.944-0.702,5.283-2.114
	c1.337-1.408,2.008-3.449,2.008-6.129c0-2.674-0.67-4.717-2.008-6.127c-1.339-1.407-3.1-2.113-5.283-2.113L312.665,19.019
	L312.665,19.019z M358.627,22.189V1.267h54.31v20.922h-14.898v53.042h-24.512V22.189H358.627z"/>
<path fill="#FF7043" d="M179.09,111.305v7.965h-3.915v-4.252h-12.419v4.252h-3.916v-7.965h1.789
	c1.152-2.584,1.964-5.307,2.414-8.101c0.46-2.834,0.692-6.098,0.692-9.788v-2.023h13.195v19.912H179.09z M164.645,111.305h8.371
	v-16.2h-5.636C167.358,101.451,166.446,106.85,164.645,111.305z M195.087,111.305v3.713h-12.319V91.393h12.016v3.712h-8.101v5.063
	h7.256v3.577h-7.256v7.56H195.087L195.087,111.305z M197.517,95.105v-3.712h15.053v3.712H207v19.913h-3.915V95.105H197.517
	L197.517,95.105z M227.384,90.987c3.511,0,6.479,1.215,8.909,3.646l-2.701,2.633c-1.642-1.709-3.712-2.565-6.208-2.565
	c-2.386,0-4.404,0.812-6.059,2.431c-1.653,1.617-2.48,3.646-2.48,6.074c0,2.43,0.827,4.455,2.48,6.073
	c1.653,1.621,3.673,2.432,6.059,2.432c2.496,0,4.566-0.855,6.208-2.564l2.701,2.634c-2.43,2.429-5.399,3.645-8.909,3.645
	c-3.42,0-6.351-1.178-8.792-3.526c-2.441-2.353-3.662-5.25-3.662-8.69s1.221-6.339,3.662-8.689
	C221.033,92.163,223.964,90.987,227.384,90.987L227.384,90.987z M244.122,115.018h-3.913V91.393h3.913V115.018z M244.122,103.004
	l8.844-12.016l3.104,1.992l-7.595,9.988l8.775,10.261l-3.206,2.193L244.122,103.004L244.122,103.004z M276.219,99.121
	l-14.411,16.302l-1.418-0.34V91.394h3.915v15.896l14.411-16.302l1.419,0.339v23.692h-3.916V99.121L276.219,99.121z M301.227,99.121
	l-14.409,16.302l-1.42-0.34V91.394h3.914v15.896l14.411-16.302l1.418,0.339v23.692h-3.914V99.121z M290.292,83.631h2.834
	c0,0.653,0.192,1.236,0.574,1.755c0.382,0.518,0.898,0.775,1.553,0.775s1.17-0.258,1.553-0.775c0.379-0.506,0.581-1.123,0.574-1.755
	h2.834c0,1.484-0.471,2.732-1.417,3.745s-2.127,1.519-3.544,1.519s-2.599-0.506-3.544-1.519
	C290.764,86.365,290.292,85.116,290.292,83.631L290.292,83.631z M210.254,143.663h1.881v5.278h-1.881v-3.565h-13.03V125.72h1.91
	v17.943h9.21V125.72h1.91V143.663L210.254,143.663z M224.941,143.663v1.713h-9.407V125.72h9.126v1.713h-7.217v6.01h6.486v1.712
	h-6.486v8.508L224.941,143.663L224.941,143.663L224.941,143.663z M240.104,125.719h1.909v19.655h-1.909v-9.911h-9.351v9.911h-1.91
	v-19.655h1.91v8.029h9.351V125.719z M245.018,127.434v-1.713h11.794v1.713h-4.941v17.943h-1.91v-17.943H245.018z M261.726,137.065
	v8.312h-1.909V125.72h4.129c1.982,0,3.556,0.535,4.717,1.602c1.16,1.066,1.742,2.425,1.742,4.07c0,1.647-0.582,3.006-1.742,4.072
	c-1.161,1.065-2.734,1.602-4.717,1.602L261.726,137.065L261.726,137.065z M261.726,135.352h2.162c1.404,0,2.522-0.361,3.354-1.082
	c0.832-0.722,1.249-1.68,1.249-2.879c0-1.197-0.417-2.158-1.249-2.88s-1.95-1.079-3.354-1.079h-2.162V135.352z"/>
</svg>
