<?xml version="1.0" encoding="utf-8"?>
<!-- Generator: Adobe Illustrator 15.1.0, SVG Export Plug-In . SVG Version: 6.00 Build 0)  -->
<!DOCTYPE svg PUBLIC "-//W3C//DTD SVG 1.1//EN" "http://www.w3.org/Graphics/SVG/1.1/DTD/svg11.dtd">
<svg version="1.1" id="Layer_1" xmlns="http://www.w3.org/2000/svg" xmlns:xlink="http://www.w3.org/1999/xlink" x="0px" y="0px"
	 width="158.434px" height="164.458px" viewBox="0 0 158.434 164.458" enable-background="new 0 0 158.434 164.458"
	 xml:space="preserve">
<g>
	<path fill="none" stroke="#0F888C" stroke-width="1.5" stroke-linecap="round" stroke-linejoin="round" stroke-miterlimit="10" d="
		M156.602,129.682c-0.817-0.662-1.666-1.348-2.557-2.056c-8.717-6.896-20.647-16.346-17.928-30.95
		c2.383-12.801,5.266-32.226,2.768-52.992c-1.428-11.924-7.068-22.213-16.299-29.754c-8.303-6.786-19.088-10.918-30.363-11.642
		l-0.121-0.005C87.115,1.964,84.1,1.775,80.982,1.775c-2.102,0-4.228,0.083-7.085,0.288C57.23,3.258,42.374,9.283,29.729,19.965
		C18.8,29.195,9.63,42.006,3.209,57.026l-0.696,1.615l1.766,0.083c7.925,0.399,14.494,3.226,18.986,8.17
		c4.66,5.123,6.99,12.261,6.779,20.694c-1.908-0.185-3.626-0.367-5.304-0.556c-4.286-0.483-7.981-0.888-12.284-0.888
		c-1.761,0-3.544,0.063-5.44,0.199l-1.83,0.137l0.807,1.631c3.489,7.053,8.367,12.816,13.086,18.386
		c1.972,2.339,4.008,4.746,5.905,7.216c-2.82,6.676-2.53,14.438,0.771,19.524c2.879,4.437,7.688,6.413,13.74,5.573
		c4.012,7.619,11.25,7.955,18.896,8.308c2.108,0.099,4.28,0.199,6.499,0.44c2.496,0.277,5.047,0.985,7.742,1.735
		c3.668,1.022,7.461,2.077,11.377,2.077c1.261,0,2.5-0.116,3.67-0.341c4.007,1.489,7.775,3.325,11.426,5.108
		c4.744,2.318,9.646,4.709,15.199,6.414l0.186,0.051h0.186c3.168,0,6.602-2.338,9.431-6.396c2.696-3.885,4.759-9.533,3.274-13.376
		c-0.689-1.776-2.229-2.912-4.539-4.416c3.349-1.384,6.533-2.931,9.64-4.437c3.362-1.637,6.842-3.32,10.459-4.762
		c1.829,0.87,5.644,4.18,7.772,6.225l0.771,0.738l0.849-0.666c0.127-0.099,3.264-2.553,4.471-4.158l0.713-0.932L156.602,129.682z
		 M30.304,100.813c-0.701,1.888-1.818,3.44-2.567,4.354l-9.813-9.523c0.26-0.822,0.713-2.213,1.219-3.383
		c4.175,0.258,8.953,1.07,11.879,1.563c0.027,0,0.06,0.01,0.084,0.017c0.006,0.225,0.026,0.455,0.032,0.707
		C31.227,96.02,31.342,98.038,30.304,100.813z M25.27,57.948c-0.813-0.441-1.598-0.928-2.415-1.438
		c-2.446-1.515-4.229-3.361-7.909-3.817c1.635-5.301,4.039-8.799,7.36-12.78c0.538-0.65,1.087-1.315,1.641-1.988
		c1.809,1.301,2.711,3.462,3.147,5.145C28.305,47.712,27.494,53.994,25.27,57.948z M79.843,141.59
		c0.69-0.529,1.345-1.039,2.415-1.751c1.474-0.965,2.924-2.04,4.324-3.073c5.438-4.017,11.067-8.17,20.067-8.17
		c1.118,0,2.282,0.058,3.483,0.189c-6.344,6.697-16.393,13.902-30.314,13.902c-0.471,0-0.951-0.006-1.424-0.021
		C78.958,142.266,79.402,141.92,79.843,141.59z M56.403,132.674c6.069-3.574,12.943-7.635,17.567-10.592
		c0.133-0.084,0.349-0.105,0.511-0.105c1.671,0,4.772,1.793,7.498,3.367c1.401,0.813,2.753,1.59,3.972,2.178
		c-6.745,4.914-17.647,12.317-27.4,12.317c-3.508,0-6.635-0.981-9.313-2.921C51.368,135.653,53.831,134.201,56.403,132.674z
		 M124.529,106.329c-3.365,10.226-9.846,14.595-21.682,14.595c-2.035,0-4.271-0.132-6.654-0.404
		c-7.379-0.834-15.432-4.474-22.102-9.975c-5.947-4.919-14.162-14.563-14.289-16.746c0.613-0.544,1.214-1.1,1.821-1.64
		c3.178-2.863,6.468-5.815,10.333-10.409c3.845-4.567,9.09-13.692,9.316-14.076l0.627-1.095l-6.573-3.435l-0.586,1.054
		c-0.049,0.1-5.278,9.554-10.166,14.788c-4.523,4.865-10.018,8.033-14.862,10.828c-0.892,0.508-1.752,1.002-2.562,1.484
		c-0.181,0.11-0.37,0.225-0.561,0.336c-1.507,0.918-3.21,1.95-4.972,1.95c-0.406,0-0.776-0.047-1.149-0.157
		c-1.282-3.424-2.194-7.33-3.073-11.117c-1.445-6.209-2.932-12.613-6.117-17.4c4.862-10.399,5.969-24.988-1.234-32.854
		c8.722-13.073,29.185-21.799,51.338-21.799c23.748,0,41.162,9.88,46.594,26.43C134.235,55.771,129.912,89.979,124.529,106.329z
		 M52.708,96.911c2.795,6.554,7.091,11.63,11.262,16.556c0.891,1.059,1.814,2.144,2.716,3.234c-0.785,0.547-1.598,1.133-2.442,1.741
		c-7.106,5.103-15.964,11.459-24.895,11.459l0,0c-2.463,0-4.831-0.503-7.046-1.5C28.576,112.307,41.719,103.743,52.708,96.911z
		 M122.35,129.016c2.396-4.064,4.668-7.929,7.515-14.894c1.472,3.267,3.271,6.024,5.679,8.758
		c-4.438,2.843-9.063,5.087-13.813,7.185C121.939,129.713,122.146,129.355,122.35,129.016z M117.742,146.168
		c0,2.737-2.183,6.151-4.031,6.303c-0.068,0.006-0.139,0.006-0.217,0.006c-2.037,0-5.685-2.014-10.104-5.553
		c2.072-1.968,5.553-4.474,6.839-5.375C113.893,142.76,117.742,144.867,117.742,146.168z"/>
	<path fill="none" stroke="#0F888C" stroke-width="1.5" stroke-linecap="round" stroke-linejoin="round" stroke-miterlimit="10" d="
		M111.723,108.678c0.021-0.371,0.046-0.879,0.046-1.977v-1.223h-1.233c-12.834,0-23.777-5.26-28.564-13.723l-0.75-1.316
		l-1.147,0.992c-0.592,0.508-0.813,0.67-1.129,0.891c-0.396,0.268-0.887,0.609-2.132,1.663l-0.726,0.608l0.405,0.844
		c4.81,10.137,17.046,16.686,31.171,16.686c0.981,0,1.971-0.025,2.958-0.095l1.233-0.083l-0.085-1.232
		C111.67,109.391,111.688,109.156,111.723,108.678z"/>
	<path fill="none" stroke="#0F888C" stroke-width="1.5" stroke-linecap="round" stroke-linejoin="round" stroke-miterlimit="10" d="
		M70.369,23.132c-4.002,0-7.275,3.23-7.275,7.207c0,3.97,3.273,7.199,7.275,7.199c4.008,0,7.277-3.229,7.277-7.199
		C77.646,26.363,74.377,23.132,70.369,23.132z"/>
</g>
<path fill="#0F888C" d="M74.551,31.994c0,2.963-2.42,5.37-5.398,5.37c-2.979,0-5.4-2.407-5.4-5.37s2.421-5.37,5.4-5.37
	C72.131,26.624,74.551,29.031,74.551,31.994z"/>
</svg>
